<mxfile host="65bd71144e">
    <diagram id="k-O_9bLuxzmHuycOJ9WX" name="Page-1">
        <mxGraphModel dx="940" dy="713" grid="1" gridSize="10" guides="1" tooltips="1" connect="1" arrows="1" fold="1" page="1" pageScale="1" pageWidth="1169" pageHeight="827" math="0" shadow="0">
            <root>
                <mxCell id="0"/>
                <mxCell id="1" parent="0"/>
                <mxCell id="12" style="edgeStyle=elbowEdgeStyle;html=1;exitX=1;exitY=0.5;exitDx=0;exitDy=0;exitPerimeter=0;entryX=0;entryY=0.25;entryDx=0;entryDy=0;fontSize=18;fontColor=#FF0000;startArrow=classic;startFill=1;" edge="1" parent="1" source="2" target="5">
                    <mxGeometry relative="1" as="geometry"/>
                </mxCell>
                <mxCell id="2" value="ITER" style="shape=cylinder3;whiteSpace=wrap;html=1;boundedLbl=1;backgroundOutline=1;size=15;" vertex="1" parent="1">
                    <mxGeometry x="20" y="324" width="60" height="80" as="geometry"/>
                </mxCell>
                <mxCell id="13" style="edgeStyle=elbowEdgeStyle;html=1;exitX=1;exitY=0.5;exitDx=0;exitDy=0;exitPerimeter=0;entryX=0;entryY=0.5;entryDx=0;entryDy=0;fontSize=18;fontColor=#FF0000;startArrow=classic;startFill=1;" edge="1" parent="1" source="4" target="5">
                    <mxGeometry relative="1" as="geometry"/>
                </mxCell>
                <mxCell id="4" value="EAST&lt;br&gt;(MDSplus)" style="shape=cylinder3;whiteSpace=wrap;html=1;boundedLbl=1;backgroundOutline=1;size=15;" vertex="1" parent="1">
                    <mxGeometry x="20" y="444" width="60" height="80" as="geometry"/>
                </mxCell>
                <mxCell id="33" style="edgeStyle=elbowEdgeStyle;html=1;exitX=1;exitY=0.5;exitDx=0;exitDy=0;entryX=0;entryY=0.5;entryDx=0;entryDy=0;fontSize=18;fontColor=#FF0000;startArrow=classic;startFill=1;shape=flexArrow;" edge="1" parent="1" source="5" target="32">
                    <mxGeometry relative="1" as="geometry"/>
                </mxCell>
                <mxCell id="5" value="&lt;font style=&quot;font-size: 17px;&quot;&gt;&lt;font color=&quot;#ff0000&quot;&gt;Access Layer&lt;br&gt;&lt;/font&gt;(&lt;b style=&quot;&quot;&gt;&lt;i style=&quot;&quot;&gt;&lt;font color=&quot;#ff0000&quot;&gt;AL&lt;/font&gt;&lt;/i&gt;&lt;/b&gt;)&lt;/font&gt;" style="shape=hexagon;perimeter=hexagonPerimeter2;whiteSpace=wrap;html=1;fixedSize=1;" vertex="1" parent="1">
                    <mxGeometry x="190" y="444" width="120" height="80" as="geometry"/>
                </mxCell>
                <mxCell id="29" style="edgeStyle=elbowEdgeStyle;html=1;entryX=0.5;entryY=0;entryDx=0;entryDy=0;fontSize=18;fontColor=#FF0000;shape=arrow;dashed=1;exitX=0.5;exitY=1;exitDx=0;exitDy=0;" edge="1" parent="1" source="82" target="5">
                    <mxGeometry relative="1" as="geometry">
                        <mxPoint x="250" y="293.0000000000001" as="sourcePoint"/>
                    </mxGeometry>
                </mxCell>
                <mxCell id="30" value="定义数据结构" style="edgeLabel;html=1;align=center;verticalAlign=middle;resizable=0;points=[];fontSize=18;fontColor=#FF0000;" vertex="1" connectable="0" parent="29">
                    <mxGeometry x="-0.4694" relative="1" as="geometry">
                        <mxPoint x="60" y="20" as="offset"/>
                    </mxGeometry>
                </mxCell>
                <mxCell id="14" style="edgeStyle=elbowEdgeStyle;html=1;exitX=0;exitY=0;exitDx=60;exitDy=48.5;exitPerimeter=0;entryX=0;entryY=0.75;entryDx=0;entryDy=0;fontSize=18;fontColor=#FF0000;startArrow=classic;startFill=1;" edge="1" parent="1" source="3" target="5">
                    <mxGeometry relative="1" as="geometry"/>
                </mxCell>
                <mxCell id="3" value="HDF5" style="shape=note;whiteSpace=wrap;html=1;backgroundOutline=1;darkOpacity=0.05;size=17;" vertex="1" parent="1">
                    <mxGeometry x="20" y="564" width="60" height="80" as="geometry"/>
                </mxCell>
                <mxCell id="31" value="数据读写" style="text;html=1;strokeColor=none;fillColor=none;align=center;verticalAlign=middle;whiteSpace=wrap;rounded=0;fontSize=18;fontColor=#FF0000;" vertex="1" parent="1">
                    <mxGeometry x="100" y="423" width="80" height="30" as="geometry"/>
                </mxCell>
                <mxCell id="36" style="edgeStyle=elbowEdgeStyle;html=1;exitX=1;exitY=0.5;exitDx=0;exitDy=0;entryX=0;entryY=0.5;entryDx=0;entryDy=0;fontSize=18;fontColor=#FF0000;startArrow=open;startFill=0;endArrow=open;endFill=0;shape=flexArrow;" edge="1" parent="1" source="32" target="35">
                    <mxGeometry relative="1" as="geometry"/>
                </mxCell>
                <mxCell id="32" value="Interface Data Structure&lt;br&gt;(&lt;b&gt;IDS&lt;/b&gt;)" style="rounded=1;whiteSpace=wrap;html=1;fontFamily=Helvetica;fontSize=18;fontColor=#FF0000;align=center;strokeColor=default;fillColor=default;" vertex="1" parent="1">
                    <mxGeometry x="390" y="444" width="120" height="80" as="geometry"/>
                </mxCell>
                <mxCell id="69" value="" style="group" vertex="1" connectable="0" parent="1">
                    <mxGeometry x="585" y="390" width="150" height="290" as="geometry"/>
                </mxCell>
                <mxCell id="59" value="&lt;font color=&quot;#ff0000&quot;&gt;&lt;b&gt;Actor A&lt;/b&gt;&lt;/font&gt;" style="rounded=1;whiteSpace=wrap;html=1;fontSize=18;fontColor=#000000;fillColor=none;dashed=1;verticalAlign=top;" vertex="1" parent="69">
                    <mxGeometry width="150" height="290" as="geometry"/>
                </mxCell>
                <mxCell id="38" value="Code A" style="shape=process;whiteSpace=wrap;html=1;backgroundOutline=1;fontSize=18;fontColor=#000000;" vertex="1" parent="69">
                    <mxGeometry x="15" y="194" width="120" height="60" as="geometry"/>
                </mxCell>
                <mxCell id="39" style="edgeStyle=elbowEdgeStyle;html=1;exitX=0.25;exitY=1;exitDx=0;exitDy=0;entryX=0.25;entryY=0;entryDx=0;entryDy=0;fontSize=18;fontColor=#000000;startArrow=none;startFill=0;endArrow=open;endFill=0;shape=flexArrow;" edge="1" parent="69" source="35" target="38">
                    <mxGeometry relative="1" as="geometry"/>
                </mxCell>
                <mxCell id="35" value="Wrapper" style="shape=step;perimeter=stepPerimeter;whiteSpace=wrap;html=1;fixedSize=1;fontSize=18;fontColor=#FF0000;" vertex="1" parent="69">
                    <mxGeometry x="15" y="54" width="120" height="80" as="geometry"/>
                </mxCell>
                <mxCell id="40" style="edgeStyle=elbowEdgeStyle;html=1;exitX=0.75;exitY=0;exitDx=0;exitDy=0;entryX=0.75;entryY=1;entryDx=0;entryDy=0;fontSize=18;fontColor=#000000;startArrow=none;startFill=0;endArrow=open;endFill=0;shape=flexArrow;" edge="1" parent="69" source="38" target="35">
                    <mxGeometry relative="1" as="geometry"/>
                </mxCell>
                <mxCell id="70" style="edgeStyle=elbowEdgeStyle;html=1;exitX=1;exitY=0.5;exitDx=0;exitDy=0;entryX=0;entryY=0.5;entryDx=0;entryDy=0;fontSize=18;fontColor=#FF0000;startArrow=classic;startFill=1;shape=flexArrow;" edge="1" parent="1" target="73" source="35">
                    <mxGeometry relative="1" as="geometry">
                        <mxPoint x="735" y="484" as="sourcePoint"/>
                    </mxGeometry>
                </mxCell>
                <mxCell id="71" style="edgeStyle=elbowEdgeStyle;html=1;exitX=1;exitY=0.5;exitDx=0;exitDy=0;entryX=0;entryY=0.5;entryDx=0;entryDy=0;fontSize=18;fontColor=#FF0000;startArrow=open;startFill=0;endArrow=open;endFill=0;shape=flexArrow;" edge="1" parent="1" source="73" target="77">
                    <mxGeometry relative="1" as="geometry"/>
                </mxCell>
                <mxCell id="73" value="&lt;b&gt;IDS&lt;/b&gt;" style="rounded=1;whiteSpace=wrap;html=1;fontFamily=Helvetica;fontSize=18;fontColor=#FF0000;align=center;strokeColor=default;fillColor=default;" vertex="1" parent="1">
                    <mxGeometry x="790" y="444" width="40" height="80" as="geometry"/>
                </mxCell>
                <mxCell id="79" value="" style="group" vertex="1" connectable="0" parent="1">
                    <mxGeometry x="880" y="390" width="150" height="290" as="geometry"/>
                </mxCell>
                <mxCell id="74" value="&lt;font color=&quot;#ff0000&quot;&gt;&lt;b&gt;Actor B&lt;/b&gt;&lt;/font&gt;" style="rounded=1;whiteSpace=wrap;html=1;fontSize=18;fontColor=#000000;fillColor=none;dashed=1;verticalAlign=top;" vertex="1" parent="79">
                    <mxGeometry width="150" height="290" as="geometry"/>
                </mxCell>
                <mxCell id="75" value="Code B" style="shape=process;whiteSpace=wrap;html=1;backgroundOutline=1;fontSize=18;fontColor=#000000;" vertex="1" parent="79">
                    <mxGeometry x="15" y="194" width="120" height="60" as="geometry"/>
                </mxCell>
                <mxCell id="76" style="edgeStyle=elbowEdgeStyle;html=1;exitX=0.25;exitY=1;exitDx=0;exitDy=0;entryX=0.25;entryY=0;entryDx=0;entryDy=0;fontSize=18;fontColor=#000000;startArrow=none;startFill=0;endArrow=open;endFill=0;shape=flexArrow;" edge="1" parent="79" source="77" target="75">
                    <mxGeometry relative="1" as="geometry"/>
                </mxCell>
                <mxCell id="77" value="Wrapper" style="shape=step;perimeter=stepPerimeter;whiteSpace=wrap;html=1;fixedSize=1;fontSize=18;fontColor=#FF0000;" vertex="1" parent="79">
                    <mxGeometry x="15" y="54" width="120" height="80" as="geometry"/>
                </mxCell>
                <mxCell id="78" style="edgeStyle=elbowEdgeStyle;html=1;exitX=0.75;exitY=0;exitDx=0;exitDy=0;entryX=0.75;entryY=1;entryDx=0;entryDy=0;fontSize=18;fontColor=#000000;startArrow=none;startFill=0;endArrow=open;endFill=0;shape=flexArrow;" edge="1" parent="79" source="75" target="77">
                    <mxGeometry relative="1" as="geometry"/>
                </mxCell>
                <mxCell id="82" value="&lt;span style=&quot;font-weight: 400;&quot;&gt;Data Dictionary&lt;/span&gt;&lt;br style=&quot;border-color: var(--border-color); font-weight: 400;&quot;&gt;&lt;span style=&quot;color: rgb(0, 0, 0); font-weight: 400;&quot;&gt;(&lt;/span&gt;&lt;b style=&quot;border-color: var(--border-color); color: rgb(0, 0, 0);&quot;&gt;&lt;font style=&quot;border-color: var(--border-color);&quot; color=&quot;#ff0000&quot;&gt;DD&lt;/font&gt;&lt;/b&gt;&lt;span style=&quot;color: rgb(0, 0, 0); font-weight: 400;&quot;&gt;)&lt;/span&gt;" style="swimlane;whiteSpace=wrap;html=1;fontSize=18;fontColor=#FF0000;fillColor=none;startSize=40;" vertex="1" parent="1">
                    <mxGeometry x="105" y="127" width="290" height="197" as="geometry"/>
                </mxCell>
                <mxCell id="84" value="" style="shape=image;verticalLabelPosition=bottom;labelBackgroundColor=default;verticalAlign=top;aspect=fixed;imageAspect=0;image=data:image/png,iVBORw0KGgoAAAANSUhEUgAAAjcAAAEZCAYAAABrZgR1AAAAAXNSR0IArs4c6QAAAARnQU1BAACxjwv8YQUAAAAJcEhZcwAAEnQAABJ0Ad5mH3gAAPgPSURBVHhe7J0FWBVNF8f/n4GJ3d0tgt3dXa/d3d3d3f3a3d3dHSgoIiIgCCoggoA03m/P2d0bcFFAfUWd3/Pss7Mzu7Oze/funD1z5pz/aSQgEAgEAoFA8IcQT1kLBAKBQCAQ/BEI4UYgEAgEAsEfhRBuBAKBQCAQ/FEI4UYgEAgEAsEfhRBuBALBT2HqjDUID/+ibMUNaP7EtJlrlK3v4/SZ6/j8OVDZ+j05c/YG3r3/oGwJBH8OQrgRCAQ/nC9fvmDFqp0ICwvj7fDwcPj7B+CN63veDggIwtNn9ixsqNAxoaFhcHvrYZBPea+d3bR5tB+l7V6+ho+PH+ep0PZzWwfeR4XS6rlJ2FqxerdBeURoH6pbvw2EzXMH+Pl9VrZ0RKxL3abj6ZjPnwN4m6C6P/n68zUag46lfRydXLXnD5fy1DStqVxeh+NzQCDfRzruyxf5fOq+Km+lc6m/A0HH0b7e3r6oX68yMmVMq5QAzi5v4ebmrmzJuLx5B/tXzsqWQPB7IIQbgUDww3H38OJO1tnlHW/nyFsHV68/wP+k9JZtR3HvgTXSp0uNlOkrIDg4hPdJm7kKbCTB5NiJy0gnpYmS5dpgx67j3KEnS10Wti8cMXDILGTLUxuJE5tg8rRVKGzWlPcljQwJBcmSJUXLNsO1HXqKdOXx2PoFCwDUeVO73N29uCwifQdOx4DBM5HIJCHyF2nE+3p6foRp2nJInjwprt98hBmz1yl7y1y99gBeXj6cdnrtKglR7iyQ1W7QG6bSMdaS8HH+4m0uT5GuHB49smEBwxipM1bC7btPWCChNJ2/QZN+2vvo7PwWVWp2RUhIKJKnKQf39x9gYpKA27dyzW6pjUk4HRQUzMfStQdK6SXLt8Oi7D9cBx03bNR8SWgKh5X1S3z8+In3peul+0wCU5MWg3jftp1GSfcxHAkSJECOfHV4P4Hgt0B6WAUCgeCHkypDBU1oaCins+SsweuIZMtdS3P/wVNOd+w6jtdSB6tJmqoMpyXhRyMJO5wOCAiS6gvT9Bs4XSMJNZxHJE5RivNprSIJMpoRoxdwusU/Q3lNUL4kNChbkSlbqb1m/KRlnJaELt5/6szVmjnzN3AekSZTJc4/dfqaxt8/gPPGjF/C6wFDZvF66Yrt2jLat2yldpym+r9Glx7jlZR8XZ8/B2rqNOytcXrtxnlOTq6aClU7aSThxeB6O3efoKQ0mmq1u2kePnzG++zdf4bzqA3q/pLww2vi8ZMXmg8fvDX2r5w1WXLVVHLpehbzOm+hBtLvEc5pagvVIxD8DgjNjUAg+E/x9fuMPIUaoHipljw0EpF48Ui/I+P86jymz1yLjNmr48Spq4gf3/grKzAwSEnJ/O9//4OHp7eyFX1uXd3OmpMM2aphyvRVXM++fWdRtXIpZQ8gODg0kgZj45ZDrBnavvM4b5+/cBu5C9bneqjt3t6Gw2c/k3j/k+8RaXf6D56lbYOpaTLON8bDRzZIniypsgXMnzOC108tDyNX/nrS8dVYo0P3QyD4HRDCjUAg+E+hIQ/HF2fw9NFhpEyZXMk1Tv3G/XDv1h64v7mK3XtO4dCRi5yvDut8+SILGTQUlTBhAk4Tvr7+KF+2uLIVfRo2G4BTx9bAw/Ua8ubNwbY6Y0f3wPRZa7mchJo0aVJG6uR792iN1ev2YtzontrtO9d2cj202FrLQk9sSJgwITw85GG0YElgiS6JEyfCgL5ttW1wc7qklESmccNq8PooD60RFap25HXNer3g4nBBuv/XeGiRhq0Egt8BIdwIBIKfQqaM6TB05HxlS0fvHq3QtuMoLvOThAf9TjUiWbKkR8WqnTB3/kZcuHwXFcqZcf7W7cfYjqSYRXP06NqctT0njqzCP+1HYvGybcgudcQD+7fnfSNCWp6t248qW4bUrVURxS1aYOGSLRg/cRnb2XTu2BQOjm+waOlWNGs1GGdPrI0k3AwZ1BFjxi/RnrNZ0xooVrIFFizejMnTV2HX3pOcHxu6dGyCFv8MxZTpq7W2MNGBhL0du05g4NDZ6N57MmrU7aGURIaus12bBpg+ey3GTVyKnt1acn7Z0sUwfeYavh/lpXsfleZMIIhriNhSAoHgt6L/oBlInz4tZkwdqOTEHHrtde05kQ1/Vdq0rocWzWopWz8X0iz1HThD2ZJZtWwC0qZNpWwJBILvQQg3AoHgt+JHCDcCgeDPRgg3AoFAIBAI/ijEAKpAIBAIBII/CiHcCAQCgUAg+KMQwo1AIBAIBII/CiHcCAS/KeQ0buKMQ0iTczAy5R+GBcvPKCWCmPLKyYPvIy1zFp9ScsHbAoHg90MINwLBb8q23bewdtNVXD8zFhtWdMO8JaeVkphz4OgDuL6NuUff2DB/6WmEhhqPrfQrCAwKQdnqM7F7Ux/s29oPObKlVkriDhT36WfSqu1w2No6KFsCwe+PEG4EgjgITWJ8+UqOoE24e/jiibWLsiUzdupBDO5bC8WKZEOVigWUXB3v3vvgqY2rsqWDBIsnT10MQgi8sH8Pf3/DEAYUMNH62ZtIoQYI8lRra/dW2aJo0h/w4qUc3FGfwMAQvJbK9Ln70JEjXesTEhIGO6kNESEPxPek/b+Fg5OHQXtUqO2vHHURuD94+eHhYydlS8bLy5/X9WsXR50aRdGpbUXeNkZQcKhUn2HUbIFAEPcQwo1AEMfIXngkMuUbjjrNFvP2sVOPUbPJAgwatROV683lDp/ywsK+sPZm6NjdvJ8Kdej5zMehbvPF6D9iB4pXmMx5tIycuA9ZC47AwJE7kS73EK7LvPJUbNp+A607r0abbmt5P6ozcwFpP+mcaXMN4Txi94G7GD/9IMwrTUXtpouQt8RYLFl1Dh16rUeDVksxbtpB3o9oK9VVoOR4NGu/kusg6Fz3HjiifM1ZPKSmnitnsdHo3GeDtJ88DETtoiGh9HmGoGXHVZxnjEKlJ2DK7KPo2m8TX+/MBbowB3QPshYciX7DtvH2oeMPUbHOHIycsA85i46CnyTM0fmp3QS1jYS26o0ie1Um+g7dhrxmY6XrWsftDAgIVkqiB3lGpojcFN1891556IvOT2ENKK9kOTlq97egYynaN0VOV3+XtJkq85pIl6WKJMCGcmTwfQfOIlOOGryvh+dHLqeQEsVLtuBz6ntO/ujjy3l0vMrnz4GcR4uf32fO6zNgOvoNnMH10vm79ZrE5bXr99K2RyD45UgPo0AgiENkKTBcG335+OnHmhxFR3GaqFhntmb8tIOcljp+zZTZRzjt7fNZkzrHIE7fvmfPi0r1hvM0k2Ye1hw89kAjdcpKrkYTFh6uWbDsNKdnLDiusbV7y+kxU/ZrSlaZpm1DcHCopkr9uZzetf+Oxs7+HacJOueyNeeVLXmb8PkUoKndRI7KTVy9+UJz7ZYdp5t3WKkJDArh9LS5RzXVGszVnuvSteeavYfucWRwta6vUbDUeM2+w/eULfn8jq89OZ0p/zCuhzh78alBfdek9qj34o2rl0FZNel+qejnV647R0lpNOek+gpYyFHMowNdH0XlVq+zd7+pmrCwcE2bDiO1bfT/HKDZtOUQpyOSr3BDXnt+8NY8t3XgNEVcnz5rLadTpivPayJVhoqakJAQjSRMadZvOsB5Dx/ZcKR1On/yNGW5jJgweTnX07LNMM3R45c47+btx1J5MKf1I48nTVWaj+/Zd4omWKqf6NBljGbG7HWcvnzlnqaXdF0CQVxAaG4EgjhGvHi6v+XT566sTRgxYS8vCRPGx+kL1kqpcWYtPInte29rj/H+FMBDVGs2XkHDunJsJiK+dJ7RQxsoWzouXnmO1s1KaeMnmZgkwLPnbpwmkiVNpKRksmSOHDLA1e0jUqZMqm0DaZrcjNj07Np/F4kSJWSNEu136Pgj3L0fM9uPJIlNlJQMXStB8abUCONnLjxF7pzpOE1YmOVg7VB0od8gVSq96zn9BB99ApTSbxMQEMSBLIeMmIvBw+dAElIQHByMm7cttW1MljQJeigxnaIiXdpUuHLtPtJkrATTtOU58vfXoPheRLJkSVir4vTaDdmzZeK2ELNnDEGCBHLA0QL5cvI6bZqUCAsL42FJijlF7aWF7hfdB8IkYUJeL104BnPmb0CfgdNRpEhebFg7jfMFgl+NEG4EgjhMSEg4UiRPjFFD6vOye1NfnDsyQik1DtmFDOlbW3vM6YPDsXBWG+6YUksCx7egTjBBgvjKVuwgm5qObcpr20BLs4bmSqkOGsWoXqWQdp+Joxpj6vhmSmnsCDFirBwQGCJ18DqhLF4MA0B+ka6nSQNzXTtHN4b17elK6beh41OlMpWEiaG8bNs8B0mSJJYEyJi14+Dh89i5+yQ+vLuBAJ8HSm70iScJrNEV6qjNGdKn0bbZ3fVapMCZGTKkhf/He5g/azhKlG6NydNWKiUCwa9FCDcCQRymRtVC8PTyR+aMKZElUyrunNKkSqaUGmeRJMhs3nmT96eFhCNTaZk0qgl27LujtYsgI95la85zmnQHSjZmT2kp5V/QdoKenr6SAFKQ09Elf56MGDpuj7bdtE6SRE/Dopxr/IiGWLHuona/TBlSImWKJHJhNHF9K9uSqBTMl1FJ6ejbvZqB9mn52gt8T6ILRdieOvuoQTtjIgCamibje0w32USqa9LUlfw7zJ89HGfP32L7mCUrtuOD19dnrLm6eeDTJ38EB4egY5exSi7QuFE1to8JCAjkuqIiV66sHLRz05ZDbANE9j7q8xARE5OE8PLyYQ0ftZmis0eEZllRANDESRKhbet63D6BIC4ghBuBIA5TrVJBNGlQAk3arsCS1edRpOwkg07aGObFc2Drrlto2WkVG/vmKDqaZ03Vql5YKsvOdcxedBLZCo/EgN41+ZhmjSzQf/h27vRp1lDBApmRz3wsT9suVGYiDm6PWZBKEmSSSkux8pO5juyFR+GTbyCXtWleGu17rMO6TVfQtUMl5M6ZHnnMxmLRirPIbzEOfn6Gs7a+xYp1l7B45Tk0a78CjeqZIbMkfESklHkudGlfEe26r8PC5Wek+3IeF46NVEqjR7asqdlAmo4nQ+pV6y8pJdHjle1ptOk4CsVLtkS+vNl5+LFj+0Y4deY6cuSri08+fkiXNjUWLtlisLy0d0bf3rKx8bDBndC6ZR3Urt8bA/u3R5lSRTl/8/qZKFayBbr3noLpUwZy3fHjx5fOk4PLaahp1PCunH796hwcHF1Rp0EfbPx3Og8/UjR0NSI57ZtQGXZyc76MZq2HwKx0K1w8u4H3bVhPZ3B8cO8S5M2TDYWKN5V+80RSOwwjnQsEvwoROFMgEMR5jDnTc3q6AOVqzsTCmW14yEggEAhUhHAjEAh+W2gquBBuBAJBRIRwIxAIflvIGWHO7GmR+ht2SAKB4O9CCDcCgUAgEAj+KIRBsUAgEAgEgj8KIdwIBAKBQCD4oxDCjUDwF/LePUDr32TFRmtkMdvOacL7UzC+KGUffYINyqIL1R0cEncifwsEgr8LIdwIBH8ZJHiUrHMQt+5HjsJNFK2yD31HXlO2YseNu++Qv7xhQM+/AXKKFxPot2jSchBy5q+LNh2+7XeHnPRFdY4mLQZh0tQVypZA8HcjhBuB4C+DHLG9te6CyuUyKzmGUNmGJdWVrdhRtUIWuFh2Vrb+HihmVEzYtuMYR+keM6I7ihbJp+RGDSnUojqHj48v1/UnQn6Onr94q2zFDS5dfQ57B3dlyzheH/1x+bqtsmXIG7eP0Q6FoXLu0jOuU/BthHAjEMRB6Iv+8dMPeOX0yegLMDQ0HI+sPfHO/TMPIXl9DJLy5KCGPr7BCAoO47SKr18IAoN0ebR/mBIEMSJUFhAQOSAj5T+y8tSeR8XPX647LOwLnjz7wHmU9vKWPQ3TtdCxtNZHPy8gMIwX2rZ+7gUbu4/a9unfi/AYdgZxnd17T+PyuU3sbXjqpP5KruB3YNq849i844ayZZwps4+g79BtnP7g5Y+KdWZzmjh07BFu3H6pbEWN/jEDR+7EvCWnlS3B1xDCjUAQx+g6+DKyltiBsTPvouOAS8hmvgPOrn5cRh19ow6nkLPULoyTytv1vYjClfaiePX9eKwIFm16ncfBk46cVuk/5jp2H7ZXtsD7Ozj5KluGUNmyDU+VLZls5tvRoP0pDJ98Szr3TphV36eUAMOn3EapOgeRS8rvPFAOSWAvCSKlah/kdKgk6FCdEWQbzlNllbXbbGBRaz/yldvN52jd8zxyWOyU7sEd5C27GyOn3UajjqeRXboX4eHfFnAozlKKdOWROUcN5CpQj4NAEklSlsbUGauRLHUZFhpp26LsP7wm3D28kDlnDT7ONG05jr+k0rrdcKTOWAlLln3dBilnvrrImK0aUqavAEcnVyU3Mlly1sStO4+RJlNlDBo6h9s8aKjckdHvTGEaKPp38jRl0W+g8bAGGbJV5TZRHRQr7Hfmc0AwX7fb24+wfvaG08agfMfXnhxSRF+LQfkkQFhJx/p80mmwPDx9OZisk7Mnhy6h/SiILG2/dvlg8PFAZS9evoPNC3m/r3F09yAOoEp88PLjOl85usPGVnfswpltcffSJD6Hu8cnqe738Pgg/5d7d62KKhXzc5qga6HrprqIkNAwbjsfI62pztsXJmDm5BZcTtBvTtfr+tZb+4wTVBe1x8HJA2/f+XzzWv5EhHAjEMQxLlxzxY7VNXF+f2PcO9MSC6aUR40Wx7ns2p23khDjhVEDSuDCgSa4drQZalTKwmU/k9snW+D+uVa4frw5n/vDR8PgjKTNcXncGU+vtVVyYg69m+3vdcClQ03x/EZbJEuaAEdOv8bzm21xWcp7casd0qdNjLOXXZQjjEMvchJYPFyv4Z3LFWTOlB7de09WSuXgk5+9HyBePA5liQF92yLw00M+rphFCwwf0pmPc7A9g4LF5M6LOHXmBqweHsSIYV2UHOOcO/UvR9CmGE9lKrSTOhnjhtVvnS+jfLkS8Ha/hVXLJyi5Mm07jkaGDGng9f4mvN7dxLadxyN1UDdvW6JyxZL4KO1Di/Wzb2sB4jLrt1xD9YbzMWjULgwZs5vjkhnrlDv32YCpc45i94G7yG8xngUXYsCIHRz76+hJS45VRjHNiEKlJ6JDz3+xdPV5jj/Wvse/KFFpKmYtPIky1WagRuMFvB9Rud5cbN19C2s2XEa1BvOUXOM0abMcy1Zf4HSF2nPQpe9GrFp/GU3brcDkWUc4f8vum6jddKEkuAZh5ET5g4BiuBGrpXP4+MhC2LhpB9nb9tFTj6VrmMBttbN/j16Dt3B578FbWZNJ13L2gvzh8fS5K8eHO3LiESrWno185uM4nygtXVeRMhOx8t+LfB9HT96vlPw9COFGIIhDHDrpgNw5TFGkQGoecqKFhJegYLmD7DH0Cq9H9CvBa6JJvVxK6ueRI5upkpLPnSqFCexe6Ww/hvYx0woLsaWkWXqOek6QXVCP9oXQvH4uJE6UQJuXP09KSbCSA3BGxUdvX7xxfY9de09h09bDHGjy+An5vhGb/p2upGR6dm/J67Xr93HAyTEje/A2CReeH3xYo0JUr1oaObIbt1PSp1DB3LymIJcBgUF4ZvOKt2PCiVNX0aFdQ2zedgQ795xEuTLFDb7Miakz1uDQvqV8X4jSJYvw+nfm8snROLJ7MK6eHstDm0PG7FJKZIKDwzB6aAPsWN8bc6e1xsNrU3Du4jMu23f4Ae5dnoSp45rB/vFcZM2SmvOJDq3LY8WCjnCwmo/zl23w+OY0bFrVHe9fLWMNEPHR2x8bVnTDPKne1Ys745ntW3grwkd0aNbIHMvmtedzrNmoe94IU9Mk2LquJ6cP7YgchLZ963LwdFyBKWObwtV2EWYuOIHiRbLh+N6hXH5s7xAkjBCFvlqD+XhwdQqmjW8Ol+eLMKRfbdy4bcdlJBTaWc6V2tMBVremYfOOm5z/NyGEG4EgDvHI+gOcXPxQqs4h7VKm3mEuIzVzULBhB/erSJsmMVzffVa24hahyvDM4ycveHF67YauXZpx3tcIDws3KqD5+X3fdYaGxW64SG0/LcWK5dcKMSpkPBwx709iqNRZn79ko2zJJJIE3Xx5MrCmooK0/NN1jVZz07ldBZSvNRuV6s7h/Tq2Kc/5TITbFFFQINKkTo40aZJxvbQQYdIzEV1MEspCeGwolD8TuvffxOet2WShkvttsmbWRcDv37MGnJy9OE1Cusr/9NJ/E0K4EQjiEIkSxUf9mtl5xlLEJX78eNJLS9nxF+P/ORSJpbbGRZIkMeH1qmUTtMuyRWM572vkzJUVgYGGw21ExoxplVTMUIdUTJPHLu7VtMn9Da5Bv8Mi8ufLGeWQ158AGY//L4KwGRgUghxFRmPL2p5sf3Jg2wClBFg+vwPevVwiCTUVeJ923dcpJdHD7a03ipadhON7h3Dd/yU5i41BSfNcuHR8FK6cGqPkxgzVN5VARgg3AkEcYsqIUjh7+Q0++Rp2surMoxljyvDa4fUnXhM060ifvLlT4sAxB2VL5s3bHzd99KmtF9w9A1GhdCYl5+skTCC/Zj75hfCacP2B7YlIypSmmD5lAGrU7YE9+84gX5GG6DvAuEGuPk0bVUfb1vXYuJiOq1yjMw9hxVQ7QvY+dLxp2vLo3LEJChaI+bDhyaOrkT1PHSxaupVnVFGbItqf7NgyB8nTlMPW7cewa88pvHJ4o5T8vlg/0xlgk13NnCmtlC2Zw8ctkTxZIhTMn4l/lzOK/QmRLtcQBIeEYUCvGnhwdTIuXHmulEQPspMxK5od6dOZ/ucaMTIMHtSnJpImTYSDRx8quV8nqSTEr910ldP0bJC9UovGFrwtEMKNQBCnUF+qFrUO8jAULeNn3YVZddkgsH3L/Dx00qDdKW35xLn3uUxlUI9ieGjlibuP3nP5P73O4VUUM6OiS7n6h+DzKZjra9zxDOdF18aGrolsZZp3Pattc81WJ5TSnwPZzbRqXhsDh87C5n9n4N81Uzh/zYpJvFahbf2ObN3qKbh4ZgMf171LC3Ro10gpAYYO7sRrD8+P6DdoRqQlNDSM69u6cRbW/rsXm9dPx/o1U7njMbY/MXJoV14TJiYJ2c6GqFWjHGytjsHu5Wucv3ALNk+OcjtpH/UaaPv08TUYO2GptJ8TDu5dgrb/NOCy35VWnVajeqP5bMybLUtqNG9cUimRaduyDGtvqkrl5pWnYtX6S3hsJRuYm5fIgcJlJqJWk4WoWGcOOugPS0WDlYs68swjOj8ZKieIHw8urvIwz48gjRK5vkYjnQGzSgrTxGwQTALKv1sMHWjS40nHBAbqPg6IW+fHY9rcozyMRQbSrxw92bZHICOiggsEcRBLa0+eYp3CNCH6dimKxnVyKiUyl2+6Yvjk2+jfrSiyZ02O3iOu4ei2+ihrkYHLL113xcqNTxEYHI4VsyuzH5oUpibIkzMFlx8/95oNlU2Tm8De0Qe29j5oqhgmU1n+3ClRuEBq6YsyHGevSC/8illw6oIzZi+3xPJZlVCzclatUPDgiQdSp0yEfNIxKuRX5/rddwbt3rTbFkv/tUbbpnkxYVhJnLrogiZ1c3I9dg4++OgdZKANsn3pjZDQcJQomk7JAW4/eI8sGZMiVw75OgR/DjRDaEi/WogfP24Nd7btvg4XLhva/pQolg1XTn17qFPw6xDCjUDwm3PqonMk4UYg+N2Iq8KN4PdEDEsJBAKB4JdjYiKEGsGPQwg3AoFAIPjlDOwttDaCH4cYlhIIBAKBQPBHITQ3AoFAIBAI/iiEcCP4raGAdFnMtqPnMEN351FBgRlp/x/FsxdeXN/Bk4Z+ZX4nPD4E8jUsWvNEyRH8Tmh/v7VWSk7MIOU9Hf8j/xcCwa9GCDcCgSASJy84c2f3+KkcafxH8fCJB9d75LRh1HLBj8XK5gPf55MXXis5v4blG6y5HeQjSSD4LxHCjUDwCyFPxPTyX7j6sZITNzBJGA/x4/8v1iEW3r7/zNc1e+kjJUcmoVQv1Z00Sezj8Ai+TYIE8fhe/1f3+d4jd/693aTfXR86P7lDovYIBP8l4okTCASRqFs9O9487syO/H4k5JDv9aNOqFcjh5Ij+BkULZgGztJ9rlk5m5Lza+jdqQjcrLogebKESs7vybSZazBjdsxiVQl+LUK4EfxWrN/xHGXrHcKSdVZwdNbFVzKG9XMv1G1zEnX+OYEte14oubGHbBPWbrWBRa0D2LjzOTy9ApUS49DQQI+hV2Be8wAmzLkbSTW/dZ8d9hx5xWkrGy/epkUfOufBEw6o3fo4KjQ6jANSmgIKfg+nLzqjdJ2DaN/3Alzc/JRcQ8hjMLXlQ4S4VYTzGz9s3GWLEjX2Y+qCBzh/VRfT6JGVJx9HbSaevvjI2+4eAbz91v0zb9s7Rv7tyIvy1r0vuN6ew69g/3Hjdkx0PA1r0b2hdYd+F9Ch/0UcPhX1UNfF666Yu9wSpesexLL11ggLixxdnerdvl++/6s2P+N9yaaL8mkxBu0fVVlEqL20786DL5UcHVS2+7B9pDI6/5otz1Ch4WFMnHOPf7vo8N4zgM/1xi1yDK87D95jwux7aND+FHYciNwWfahd5Fm6UYfT6Dr4MvZIbdS/d8fPvubznLksPwP0u9M2BVYlHj/7wNt0HRGheGfrttmgUuMjmDzvvsFzpA8dr5Zt2/dC+i+cwJgZd3D9zlvO+9lYPrZFqxZ1MGViPyUn5nz65IfDRy8qWz+Wo8cvo1ffqcqWQEVMBRf8FtDLsV7bk7Cx81ZyZHp3KowNO23RoGZ2bFpWQ8kF+o66hhPnDTuCGpWz4O5Dd6kTDeco2zEhVHqh00vY9a2h2r1nh0LSy/8FVsyphNaN8yq5QM2Wx/HilY+ypWPBlPLo1LoAp0mNbwy1bd6SMFS+wWH4+csdhQqp+p9ea4MkiWM25EAxnUjYo1AL+vTpXFgSGm0xop8ZRg0w57wdB+wwduY9nNnT0CD8wXtJSClZ+6CypWPx9Apo1zwfCxCrNhu6qicOb66L8qUz4cbdt2jb5yKW0P4t8iul4DALeUrvQsQ+sHHdHFi3oJpBHCu6b1kzJ0OQJAx5eRsKjEe21kO5khmVLblzLl5tPz76GO6XIMH/cHZvIxQpkEbJkeulIZQhvYpj+QY5IKOzZSe+XgpO+uJWOw5hoY/6G0b3eVL3d7PqrA1fQZBgl7fsbrRqnBsr51ThvEs3XCXh+Co/e/pkypAEjy601h5PBsUkQI/oXwKjpIW4+8gdLbufw9YVNVgLp9Jr+FWcviTHYlKpXC4Tbt57z2n96wgIDEWZeofhHeHeJTKJB8cHHfn8tSSh2/Zl5Of8/rmWyJY5OQ+3Lv33KVyk+6g/NEWCTbn6h5UtHZNHlES/rkUN7g3dswqlM8I0eUJJyNEF1iSaN8iFNfOrKlsx59MnfyRPnhQBAYEwNU3Gz4uPjx+fP1UqU4SEhHJg0hbNayF5siQc4DKZtPbz/4zUqVJIHxpf4CvVoe6v4u3jKz184Dyq0+XNO1y4eJdjh9HxFM3d1/czTBIlRLKkcjwoOq+paVLOj58gvnS+pCwUEVQPnYPqovIv0nnV823eehTHT17G1o2zkTp1Cu01UBT5lCmTy9tSPfGlbYqyHtso9b8bQnMj+C0oVGkvCzZXjzblFzAtL++059ADEXnp4MOCTbKkCbT70kL2IyTYxIZcpXayYGN5sbW2vmeSgEGCTUQWrHrMgs32VTW1+1JnRjYsY2bcVfaSOxLbm205Pbxvce2+BL2QilbZx4KNrdSpqmXLZlaUOp0wnvUVU3KU3MmCTfVKWbT1UYdNgk10IK0MdfQ1JSGRrketY8+6Whg59Q4Gjb+JCcNKcd7D83I054Hdi/I2CTZR4ecfIt3fXdJLPyEc73fQ1vtA6iBPnndBdosdyp463N59xtKZlbT7UueZMoUJWnQ7h88BOmGQgnWSYHPjeDPtvtT2sDANarc+Kd1nZUcF2ibBhobkaF+KaH5qlxyMkrQF+ji5yMFIh0tCYXSxKJ6W1xQXTB/1uVgxWxZsaOZa54GXJWFPo203LV3bFpAEzEBYWsfc0Ju0OCTYkGDoJAkn2noj2MkQz158lJ6xPSzY6J9/3/raCA75gsnzH/B+lw7K/8cjW+rx9gPpd6dtEmyiYtehlyzYkGCi/xxtX1kDM5dYomz9Q8qeOu5IHyWZMiTV7kvPLXH0zPcZTJep1A5tO47Chw/yR1Oy1GVZaLB/5YxjJ67w//CL5gvCw8KlZyac92/YtD/euL6Hra0DSpb9h/e3fvoSJcv9w3W0aDNMEi58kSRJIqTNXJk/zOhYEkhIqNm89TAKl2iOhCYJsGTZNuTMX5ePK1C0MXr3m4akSROjS/cJaNdpNBInTsTBUxcs3sL7pMpQEc9s7FkQo6jzQUHBXC+1M0yqm9aUT0KNzfNXyJ63DudlzVULz6X2enoafhz+yQjhRhDnuXLLTavmLpAnFa8JGse/d0buRPWZMOcer6lD02fjkur81RlT6GUsvR+k8yXgF6xKmtSJcWiz/GLShzQqrRrn4eCSKvTVRV+f0SU8XMN1LJwqvaj0tAX/NM0rdbj0BadkxAD1mN1ra8sJCdJE3D7ZXNn6OoMn3OD1zjW1Db6sq1WUr/PiNcOv6ujSd9R1Xt8/20p6meu0UVmlDpLuObWbXtD6kKBYu6rOnoS0AsP6yEKGp5duKI2CebaW7mPeXLqgntR20gIQxoY2Hl5oxfWr5MhqKi3JcfycoSB96KQ8DNajXSFeR4dVc2Xh5cptN16rqMMu6m2liNT0+x/eYvh8zZ0oR7qeLwnQMWXIxJu8vnWiORLpGYrfOB759yetDZ1/0nDDqNxVymfhjwQaPowtE+bIUexJ46L/HNWuJmuY3N4F4J27ocBFAtm8Sboo3/TcNqsvB2UNDo7dB4vKqmUTkDt3NkmwmIqB/dpxm8qULobVa/dI98lEelaSIl26VCxQENMm94dZsQIoXDgvrB4ewvWbj6Q2hMD2hRMLo2fP3UTuXNlYMBk8oAP8/D4jbdpUSG6aFClSJMegYXNx8cx61sxMntAPX8J1mrkhgzryOfv3bYtN/05nAal8OTOcO3+Ly+vWroBKFS2k5z0+zIoXwCuHN6ztoWjx6dOlRr+BM9CxXUPW2lSsYK4V2ojy5Uogj3SdfwtCuBHEeR4+8eR1g1o69bqK3rtRy+0H7kifNrEkiBiqX+mlFV/qNGLKrkP2vO7UWjeMoqJ2kvoM7lUcK+dUNhhKIUgLEF2os6Y6OraSh7BU6BrixeIawpQXaKM6ke9h0qTfNvakDuT1m8j2GyqHpS/3batqKlvRh4S4q7dlAYMioEdkyshSvH5q+5HXKsaG5LJnkX9vGn5TWTy9IlZI9zEi6i8TcXYPkSVjZLV9j/ayAKNvZ7V8/VOkS5MYaaUluuTKbip1RPHg+SFIK7CR5oQ0dEmT6ASOYX3N+PcvY25cIP7kG6Kkogedi6K30z2KTgynshYZ+fwDuhdTcnTQR8UXw5GyGBEaGvXBRQvKBuyrNj3jtQrd54jkViLDRxy2iy2vHN9g7fr9SJm+Ai9v38nvnagggYY0Iq6u7pwmQpS1yvQpA3moSB/6LUgQUUmTRid4f4vTZ29q20eaGRo208fnkz927z2t3YeEnr8VIdwI4jx7j8pGt+Z6th/fIlNGnYble1GNMrv8E/0vdPpKzmomO0ZTlyu3YmYAGRoazsbQ+nXQEpsv1SeKv5r2zSMLaNHhpWNkuwp9ypfKyEtM0RcW9L/iVSqWycxrMnCOLS26n410D30j2DF9iz5divD6n17neW378iMbdpPdTkyga9y+UhYCVW3kgLGy5mqbkq9i98obZeoditT22PDJL4QFkuYNcis534Y64SadTkc6vzEj85iSK4fOPkWfQT1lYeqlw9cnC/wMBvXvgNIli+CT5x1eLO/tV0qM07PPFPTs3gId2zdCzZrlOI+0NfrCTJESzVhzo0/hQrlx9fpDTpPtjoNj9DWeKUyTwdv9FrfP/vkplLQorJTIkGanRImC2mt4ahnZrulvQQg3gjiPMe3Mt0iU8CcE4ItmO57aeuHgCUekSZ2IDX9VO4EalbIoe3wb6lhyld7FdkZ1q2fDm8edtPXoDynElIjapOjyv+he/A9G1W4Ym20THcgw+t4jDxQvnIaNjdV7mMKIxu1b0B1QO93VW2Sj6Yx6w5TRpWoF+TmYu8KS1/cfe/JQT6WysiBHODn7okbLE2xbtGRGRW27aYkN6q8XP0H0fkdfSRii5++R9QeMGlCCDavV8xvTosSUqFqh/NwIDfu+oabY0KpFbbZf6dh1HMpWao+Hjwy1RxFZtXwCFi7ZiorVOqF8lY5KLnDp7EYUL9kCrduNQI1qZXk4K2UKUwwYPIunk186uwldekxAkxaDkCFrNRzcu1g58ts0a1qDNTLde01C5epdWHNTr04lnD57A/9I5+vZvSUSxI+PDl3GomzF9ujcfbxy5N+HEG4EcR6ahUMYmz4cFcaGG2JL9qyyceTxs068/hrUGddrewqF86eC9dU2SJs6dh2Bw2tfftHPHFsGW1fUjNVwmj7mxWStlzED7OiQL4+haj0iNNuJlphCw4cqasemDxmSEvlzR191r0IaLprxNbK/Gc7ta2wwiyo2dGtXkNcfvAJx+JQTG6zHj6WwuG1lDWzb91IrtG1ZUZ3XKvXaneT19WPNtM//90A2KvGkR+hMhJlSUVG9xXEePuohXfOIfiViNKQaHYxNUSdWb5ZnqRXO/2P9K0XFy2cnkSmTTiN8/fI27No2D/dv7UHFChac17F9YyRIIA+D0v5qfqpUKRD46SFuX9sJ64eHOE0ULpQHTy2PSELLEqxeMZHz6KOCNCk0nZw0O55u13HiyCo+pn5dedjUw+0azEvI2uF6dSpqbXyIy+c38Xrdqinw87qHLRtn4aXNSbbPofoCfB7igHQ+4urFLdi9fT7u396Daxe3sv1NgI9sAP43IYQbQZynjHkGXh824rKfDPgiUqVcJrxzD4CXt6H6nAQP1fYkJnT+R7Z7WbM18hRnXz/D4Q21s0qePGGkYRaa5RRdVLuEiDY9ZE9izEfLt1Cn4e46JA/x6aMOj3yNxIkSaG1ajEGznQpU2KNsRR8S2sqXkn9f/VlOKrMUD8eqcBYTaBYWkTRJZC1NWLgRSeobTBtdmtdTF8odBc06iy0VSmdiYW6eor0pV9JwNpk6q0/fsJkw9rxHB3oWyY7G7tWnr9q8qNCUfyKpJMDpQ8+33+eY2ftEhISsqO6/jZ08/Ni/W1FeCwSxRQg3gjhPtYpZ2NiUbAYcneXptwQJC+WN+MqYPUEe/yZnX/qQj4+QkJgLBu1b5OehMRJk9O0NSHXfuqdsg6FCnXXa1Inw4LGngYM8mv1xz9JD2dKhGnfaOXwy0FykTpWI1+RMTl+YIRsMMsKNDaqs1WfkVTkhQQJFtebHlK2vM3+yPFtlxJRbLCiq2NjJxr61q+hmYiROLF9XRAHTGOoMIvIjpG8cShoSVXiMzXBaaul3IOFg5pJH7EdG5fFTT62gGZ2OXiVhwvisrTlyWp5+TAa3sUX12Es+gaqWzxwpzEWWTPJw16Bx8gw14p0kcBSrso/TsRmmI19MRI2WxwyeqYj/E4KmaRMHTug+KOgeVm9xDMHB8rH6z0DKlPKMvkdWkZ/xiMwYW4bXE+feM6jD0lo24E2bJhFyZDNukyMQRBch3Ah+C57fbIcCeVKicpOjWsNG8vVSqkR6ZQ8dNP23fo3scPeUoyWry1v3AGRMLzvMiinkyj5zxqQwq75fWx/53qEhj4g8udKG1+UbHNHuW6rOIQzvU5zz7fSc+9Gsn46t8uP0RRdkLSHvS9CU8/IlM+CVky/7p9GeM39q5M319SGiqHB53Fm6Nylw8oKLtr785fege3t5uOVbVK+UFXdPt8Deow5SW3do66jzz0ksnVkRG5ZUU/YE0qRKzF/otC/tE3Hqsz5ZMiXD64cdWXDMqXetZjUOsGDr+qSzsmfMIKdldrfbc5oc5Kn1Nul8FoULyC4FjkVjqFGfQ5tlfy4liqZlbdb3kCu7PNy5daXO+aTKndMtkU7q5B8/k6PO01Kq9kGtQbD+dPfoQr5nyH7L0dnP4JkyNuS5el4VNKydw+A/RPcwedKELIwR+h8KBfPK97Pf6Bu87wv7qP2p9GhfGDdPNMeWPXYGz1HjTmcwsEdRWCv/H4HgexAeigW/FSs3PcXitVbsGbhpvVwwK5IWOw/as11Mdakj1Ie+InsOv8ov735di3Ccm6OnneD3OZSHmiI6ZTNGz46FtS9u+qss/dcaS6TzjxtiwR0N+WIhl/mVymZCnpw6oYMcvFHHuWCVFYZKQk2z+rnYRw9NK6fpwFWUDkKFfMgcO/NaOl8hTB0lf9nS+c5cdsGp8864df89hvY1Q/d2hXD5hivc3gfw1HSyQ6JQCF+DbDZKmumEQApTMGzyLZ52u2xmJRSQro/uId1L6rQJmh1FhrgNa+WINNWZZgpduumGOcses2BUrUIWAy+4KrZSB0e/1TuprWsXVmF/MaTBunjdjX3+kBCqD2nC9h17hakLHvJQFflZiTgVnqCQARQUMqItCmnKrt1+x/da35PwQ+k5OHb2NbbttePfjTxEk1dfsuehadltm8n1qKEI1GFIY5DGgwSD9YuroXEd2c8KMX3RQ6PDavqULJ4e7Vro2kwzxc5efhPl+ej3PyT9VmOm30V+SbAnw2KKGaW2k4Ri0miRRoUM2PV/P3fPAPbmS0bs2bIYOtS7cM0VR884saakT+ci0m9YiEM/kEYwYluu3HTFiKl3+LppWj39zvcs3dmwuk2zvEikN62cfPXQMBvZy8waXxapJQGXQpBYP/+obas+5CjwwrU3WLv1Obt5qFUlq/Sfjjybi66XnkF6FvV58uwDuwig54CeB4FAHyHcCP5aKJzDt5g5rizKWsg2IXGRh088MHGu7BQtKkYPNDdweCeIPV0GXuJ4WY8vyd5oVf7pee6b08vJqePYwbIxqkAg+LkI4UYgEAiige1Lb9RqfQLrFlRF0/qyTYpAIIibCOFGIBAIvgKFaOg65IrWeaKrVWfEi43zJYFA8J8hhBuBQCD4Cq9dfLFx9wvkyWGKHh0MPcIKBIK4iRBuBAKBQCAQ/FEIE3OBQCD4Q3j7zge5io9B+jxDUaPRAiVXZv3Wa8haaAQy5R+O2k0XKrnAqXNWMK88FVZPXZC14AhkKzwSgYEhCAoKQYXas5Eh71CD/Ql7B3eUrjaD62rQaqk2WKnzGy/0G74dg0bt5ONUytWchTQ5ByOP2Ri8ff/1OGH0vV2i4lRQKAQV2u7eX/bSGxW0D7WreIUpuPvAgfN6DtqCXMVGI13uIeg3bBvX7f85iPd9p9eOWk0Wch7xwcsPVRvMQ1qpvWWqz8SjJ7JfI8HvhRBuBAKB4A/g4WMnFCs/GYd3DITT0/nIkjklRk6Qnf7NXXIK46YehP3jeXjxcDY++QZi32HZ03KAJMi4vPmIMVT+ZB56dKqMgqUmIEvBkRgztAHWL+8K25fv4PFB50CThJXmjS3w/P4s+Ep15TUfx/lhYeHYL9Xr4voRY4c3ZGHCovI0tG1ZFl6vV2D9im4oVm4yB4WNCvKmvHReO1RvKAtnQ8fuhucHP6xe8nV/R2/cPnK7GtYtjvTpTPFEEtaeWLvg3uVJ8HBYjgNHH6G/JHglS5oIfv5BaNpuhXIk8Fjab/TQ+pwuUHICsmZOBQ/H5SheJCvqNIt+7CdBHIKGpQQCwZ+D9MWryVXhoaZ2u2dKDuVpNN6fQjTSF7aS83dD9yIs7M+6F7mLj9EUKzdJ2ZKfg9Q5BnF61sLjmn2H73OacHv7UdO17wZO7z9yn/cLDgnlbYK2z1/WPT+jJu3TrFh3gdN3H7zSDBm9i+snJEFBe55Xju6aynXnaMt8/QL53PrQvu/cfZQt46htv37Ljtd37r9SSqKG9rt87bmypdHsOXiX26MybtpBTX6LcZxeuPyMJkPeoZwm6NiP3v7a9CffAE5TO/TvqeD3QWhuBAKJ954huHDDB8GxCM/wO3Dt7idY1LdG0VqPlZw/n9euQfybRgyxcPexH9+LSi3lII1/Cj6fAnBs7xBlS9aAfHReyemJo5rA6tkbHiqi4aFi5afA18/QyzF5dNYnd05dPK9sWVNrh57+3XINB44+RPYio3gIq1DpCZwvyQG8Tps2OZ+bME2eGGOHNUTRspOQNtcQPjcREPh1n0B0/IOrk9Gs/UqsWdIJ5cvkVUq+TpbMuoCb7VqVw4QZh5Ap/zA+77+br2o1RqOG1OfI5BR93Fq6L/VrF0PqVHLstFrVCyNXsTH4p+sanLnwFE/vzuR8we+FEG4EAolH1v7oM9ZBeuHHPLL170C18inQpHZqnNjy98z2OX/dh39T/wBD4aacuSnfi82Lvj/adlwjqgnqdZotwvbdt+D+ahkLPM7PDG1oYgIJOTRstGdzX+1ybO9gbewyfYKDQ5G10Ejs3NiHh6VUYSs6fPSWI/u7ukUdyuFrrN10BYGSEPXu5VI+76A+NZUSmdo1irJgs33vHYMhrwPbBnBbU6dMyjY7qkAm+L0Qwo1A8BdAX8IrZuRBvlyxi631J0GdMN2LIvnl4JR/CunSJGfjXhWNRqPtmB89ccb8Gf9oNSovX73ndWxo2aQUTp2zRuXy+VGlQgFeMqZPqa1bn4fSeUlbYmFmGDrhW1Db67VYgssnR2P+sjNYse6iUhJ9tu66ha1re2rb5e6hsxkiNq7shvotl2DzjhssyBChoWEoUHI8p8k+iASjXDliHpFe8OsRwo3glzNwogPmrXHlF1rDrs+Ru+IjXvqMfYXwKKIfj579GnmU/UrUe4KVW94qJTLen8LQfaQ9Dp32UnJ0zFz+hsuIoOBwTq/dIb/sh013Urbf8baXdyhv29oHYJ20D52vQFVLLlOZusQF5lIb1HardetD18b1bn8Ha9vPaNhFd53G9o8JdTrYaOsaOMmBo6dHhO4jnefUZTmCtz5TFjmjZANd+yfMd1ZKIrN1v7t2vxa9bPk+n7r0ketWhyXoWntI29fvfeIhofJNrbXHjJ/3Wirn3SLRZ5yDdr/CNSwxfamLUhKZIVMctfvmqfQI63fpOmsfX/k323/iA28Plval7T3H5KjTgUHyb35SandEDpz6gJptn2nrHiM9Z78LB7b3h8cHPzx8/BoBAcHo2Gs9+naXg5mmSpkEg0btYqFm7JQDqNtiMXz9ArkspjRrZIGTZ63QZ6g8+4iGfsrXmqWUGkIGucTC5WfZwLdtt7W87e3tz+uo2LX/riQ85YN58RyYMrYpZsw/jvcen5TS6FGhbB40a7eCtTOr/r3EQ2khIbro8IkTJ+R4WvqBQxMmTIAPXv5o3+Nfvrbp847jtYv8HAl+L4RwI/jl3Ljvi9OXvKVOyhJ2DoHIkjEh51+48QmFqhkKEsTgyY44eMpLehH9D3lzJuKhpCUb3sHquazGJsh25uodXzi6RI6eTENQVEaEh4PTNi/lF/3th368/dxe3g4KluuhTnn+2siRrVdtfYvtBz3xSWoDtSVBfLm+so2tEBZm2ItT/qVbn9Cs5wu80LtOyj9wMuYvUGobCSWvXgexNiJzhoQ4fdlHEgwi29WQQEHncXELVnJk8ld5hB2HP0hCSjiK5E8C0+TxJCHgA4rXecwvfn3a9rfD9GWunM6QNgGePA+Qzm+FlVvfcd0qdK4r0vYp6TctUO0xfPzCtNe697gXKja35rQK7V+g2iNcuO6DRCb/Q65siaRr02DrAc9IQitBwsyJi97ImD4h33M6fu5qNzTvKQcQDQ7VcHscnOVrvfVA/k0dpPtE0O9i7F60H2gnCTPOcHoTzPWmThlfEna8UFB6Bv0+x/3hyhKSIPDi0RypY16HPGZjJQEnBHOnteayV0/mo3b1IqhYZ44kZLyBs81C+PsHcwdOdjEF8mY0GNOiberoVdKkTsaLyrXTY2H38j3b8Nx76Ajbh7M530Q6JlsWnd1LCtMkePFgNlatv8T2M0mTmKBg/kzYsfcOXjm6w87+faSFZm+RMKLaDw3uWwv5pfaQsGZsf1oIanMiE12bl83rwFqb6o0WYOf+O9iytgeyZ02jlMpkzJACQ/rVVrZkLG9MwUefz2wjdOaCNfZv66+UCH4nhBM/wS/HTOpI/T5/wdYl+VCtvC5SNHXc1Ok63iqpVS036PIcL14F4tFpM6RJJXeYxMJ/3bBm23uc3UFRvJOygXCFZk8xoEsmjO4nfz2qUCdoZRsAp9ullByw9mHQZCfcP2GG9Gl19bq9D0blls+kl3I8PDxlhiSJdVGQB0xwwJmrPtizOj/KW+gigpNQkK+KpfSi/x/srpXkPPqbkfBGONwsqY2QTPnV/nmGN29DDPKjA2kWCJuL5kiaVNeuO5Z+6DDoJfLlTIwLe4pyXpjUpvxSm8b0z4L+neWI5KSdWrD2La4fLIbsWRJxHtG8l3R/JMGlYN7E0v2Ujx861RHHL3hzh295xpzzCNJskWYmTOr71faTBidvZfla758oLt1POUK3/j1Q7z3dq4LVLVnIfHHVQuqc5O8t2vecJOz0H++IciWTY++qgpz/yikQdTo+x8F1BVHKTBftunLLp9JvFWLwm67f/R5zV7lJ7S0htVvX6fn5h8GsrpX0XGSRng/5Xjyz+4wm3V+gQY1UWD0rj/Z5e2Ljjxa97TitX7fg+9mw7ZrWwFefFo1LInMmORJ/RNZsvKykDBnQy9CeJjrQM0b+bz44rdD+3r8rjk6uyJQxnfQeMIzg/zcjNDeCOEHSJP8zEGyIRrXkL0D9YRYSbOg9pC/YEAM6Z+L15dsxU11HFxIK9AUbejFevCmfS1+wIeLH/x9fT0ho5O8G0gjoCzD0Ui1nLnfSxoaTooO+YEOUt9B1+l+jXrXUOLy+oIFgQ8wdl5PX+sbVJNgQy6fl5rVK2tQJUauy8Y6I2qEKNgRda/o0OiGDeOkYyIJNCtP4WsGGoH3rS+0j7lnqhjDsJeGGMC+q0yIQa+fkwbzxOfl3iQ3qsOTiybkMOjrzotG7l4KY07trNRZKIi5RCTaEsf1piSmDR+9Ciw6r0LVDZYPf+3elcYuBsHwiay4FMkK4EcQJEiaM/ChmyaB2uoYdVoIE/+OhEP1l834PLiNNxM8gRXLDTvn+E3+EhmlYO2OMvh1lYcvB2XBYLFkEQYQwVeqOSbesduJ5chgKJjEhT47EsCiWHA+t/bBiy1tUbmGNUg2t0H7gSy43JidUKWcogBJR9Q1pUxveM4KEGH26DJftjWpXjlyvMRrUlIcVSDM2d5UrT3EnihdKhrZN0sWqoyJNEw3nVSxtaiDAqpDGRmht/izmT/8Huzb1wZI5bZWcP5u5CzYqqb8HIdwIfjtCQzVYsv5tpOW/JETxnZIxnaEGScU0udxJ+v8kWw1Vy2NRzFCDEVPKNrHCP/1eYumGd2yrQsNvSRL/d68FVYCqVMpUTkSANGARObqxENKkSoD1u93RbcQr2fB3jhOCg2On+lLvZfo0xn9LwZ9H0qQm7Kn4R/D2rQcyZa+OIiWaIUO2avDzk23/suSqiXyFGyJTjhooVb4NchWoh0LFm6B6ne7aj5PmrYcgR766ME1bDmvXy96k9x88h7SZK/PxDZsO4DxjTJq6AinTV0D2vLURFCjbj1G9+Yo04rakyVQJDx49Q4Om/bFo6VbkyFsHbm7uvA+1k/ahc8RW2xnXEcKN4LcjidThTR2ePcrlvyC+MrRE2htjfFZ8q9AQ1c+EDJljC80A8/QKQ/mSyfHsojkenCyBG4eKY+fy/Moe/x3+AcavIyAw8v0tUSQZHp0uwUNR/TplZM3RgZMfedZcbFCVPaFhsROOBH83fQZMx4kjq/Dc6hgG9GmLeQvkGFj+/gF4ZXsa712u4LmtI54/OYoXT0/gwYNneOMqD4P6+wfC2f4cHKT9Zsxax3ndek2Ch+s1uDldgs3zV9JzqZvhpc/yVbu4bpdXF6T3jawh3r33NOrXrcRteWp5BO07jcGZ42sxang3uDhcQNasGXHy9DW8fHaS9ylcMA9OnrrGx/5pCOFG8NvxReoHu/2TIcqFUM1aIs74+VGYFZY1Ju89jXtaJc+4BM1A+hmoQtPFG7G3MRo6zYnv055VBY0OlxmDZmj9SEb1zcLrnUeiN1vs/mM/3H4oz8yqXz01xg7IBsdbpTCgS0YEh2jg4RnCZTGB7mXu7Il4aEqdzq7PkbNevAgExli2eCwaNx+ImvV64vzF27B6Khugm5gYagKTJpXfBQkSJuCgpIS5eSFJuP4fMmRIKwkosj3ZsUMrkD5rVTRrNQQH9i5GwgSRh3eJ9m0bSh96ifn4tGnlYd2O7RvB9oUjmrYajCHD58LHx4/z9WnSqDoy56yBRs0GwNHpDWxs5SCjfxpCuBH8dlAnZkxooWnZqopVHRZ67Wo43ZegadgRUb/eNdG0fEmeLD4K55NfVhGnfBPWtgG8jsnsp9gSUa1MvmeiwxfpHhrpyzFmbmQ/N8mSyq+KsXMM/b6QMKA/BT+mkFEzYe8UFOk61FAYCRPo7uGkRS7oOCSyX6B6VWUj1EC98Bnao6Khdm/TOC2vyRWBPtSmETNe8yIQGKNUubY4c3IdLp/bhGFDOim5sadyRQt4vbuJFUvHoXb93hyM1BghIZE/rIaNnI+0aVLh+KGV2L/beMDPeQs34eP7mzh1bA3Klyuh5P55COFG8FtBU8ApBA4ZlLYfZIf7T/wwf60rD0ksXv8OrxQDXjIMbV4vNc5d80GNNs+wcc97dtxWvPZjFo4ikj+3LKg07f4Cu454sFPBb3FqW2EkSxIP+ataomkPW9i8/MxO32hqM3Fmx88NdXB5rzxNm6ZXdx1ujyNnP6BeJxuUamjoRyYq1s2T4/Xkq/II7QbYseM9uo+WT2VhJUhPUKDp1KbJ4vGsqRa9X2CndI/aSsfQlO93Hl+PE/Q1aIr2tYPFOE1T1cfOfY17j335ty1U/THSpIoPm0u6qecnt8r3NG/lR9h/8oN0zwMwc7kLmvWSv5ZzZtVNhS2YV/5Nqb17j3ti+abIfopU+inT4xt2tUWtds94avj2Qx7aqeubF0UvtpHg76NChRLo03869h04i649J8HzQ+zCRaiUrthOqmcirt94xB8P+k4G9Tl15hrqNuqD3v2n4fVr2eawXt1KuHr9AVau2Y0ceWsjMEj+uMufLwfmL9qMz58DUaZ0MbTrPAabtx3G0eOX4eNj6Ln5T0EIN4LfCpoCbnvFgjUtdy39pQ72JdbtcOdpy/eOF0d+vfACS6fm4TVpb2avdGPHbeTvpVKZyMar+XIlRsVSyeH+IRSTFr7BA6uve1AlSB389KIFD+08fRGAxt1esNO3EEl4OrezCArl/bnu/XPnSIz9awtw+vo9X4yY4YyXjkGYNz56ru4pFEOBPIl5Kva9J/7seO/z53D250P4fNJ9MZokjAer8xbInsUET2w+Y7J0j2jGWPtm6VC/etRTd6NDjiyJcOtwMVBcxv0nvNBuoD3/tiYm/5OEWXODmXTUjvEDs7IR8Ng5ztI9t8XmfZ7s/G/3KkNboSplU7J2zdktBOPnufBv9DXouslA3NElmH3eTF38BtSv7FtTADUqft81Cv5czp5Yh7GjuuOJtR1evzyH8WN6cf6WDTqvzXt2LFBSwI4tc5Alc3pOd+nUhNfEji1zeW3z+Cga1KuCt+894fXuBr9n2nUcbbCQUOLpdgNNGlZD397/4MblrShUMJd0XGVcv7QFwcEheON4Ebu2zeM6W7esC3cPL+m/Ho5aNcqhZrUyePv2Ax7e2YtmTWM+lf53QDjxEwjiGKpzvqggz7x3j8kCSFygWQ9bWEuCg76zRYFAIPiVCOFGIIhjXPmGI0LSUlQsbeg48L+g3/hXWDfXMJL2W/cQVGrxFNUrpMCWxf/9LCuBQCAwhhBuBALBN9my3x0zlrmyA8XdK/MjayYT3Lzvh7GK8fGDk2ZIJ/zECASCOIIQbgQCQbTpP+EVzl6VNUs0AlXaLDn2rCrw0/35CAQCQUwQwo1AIBAIBII/CjFbSiAQCAQCwR+FEG4Egm9As5do8fKOvT8XgUAgEPx3COFGIBAIBALBH4UQbgQCgUAgEPxRCOEmjhCkuMkWCASCn03F5tYwq/MEIaG6EBs/EpqncvCUJ4rUfIyC1SxRvM5jjJjhhHcekQObUjtoEQh+JEK4iSPs2H0yUuDAHwXV26TFIGUr7hIqvWhDlSCUFFPF40MIAgIiB42jQJVU5uMbZjRopT4UYNPvcxjvHxQc/s17TC97z48hbF9jLEK0CrdV6RioTqrbnc4R8sXgHJQODAqP9vnpnB8+hvL5w79yfoHge/DzD5f+F9J/6yc8YravApC3kiVGz3bh/1PChP+TPt40OHL2I85djRx3idrBbREIfiBiKngc4fiJK2japIayBSxdsQOZM6VDuzYNlJzIvHvnib0HzqJsmWKoVMGCO8aNmw8ib97ssH76EkMHdWZfJBs2HcTipdswaUJfdO7YhDtYykuXLg1aNq/Fda3feAB9ev2DJcu3o0qlkhxczd3dC3fvW8HT05vD8Q8dpIt4u279fg7KNmxwJ63L/afP7HHx0h107tQE6dLK0Z5jAhntpk2VACtm5NZGfqZo1M8uWnCa6Dr8Ja7fMwzjv3hyTrRskE7Z0nFWepH2n+CobMlQU63Pm3NU74jsOOSBKYvfKFsys8fkwMQFLpym2ENpU8uO6tQQCS+uWnCAR30oHtGrm6VYqClW+wnHQVJRy4wxe+UbbNzjoWzJ9OmYAeMHZle2BIIfAwWQ9Q/4Ajvp+TUx+bHfuKUaWuGjTxgHWrW+oPvv0nvng3cY0kdw9qj+l5xuG/9fCASxQWhu4gjLVu7kNYWxT5+lCpo2ro4FizbD2UWO9hoR+1fOKFG6FVo0q4U2HUbxi0Oj+YKhI+fj1JkbyJolI8pWasf5gcEhCJfW/p8DEB7+BXkLN4TrW3fMnL0WlWt04frouNwF6iFf3hyoWqsb5zk7v0Xn7hOQM0cWWFm9xLadxzh/zbq9cHvrIQlGtZExe3XOI+o07INWLetK9dTHpSv3lNyY8fFTGDoNlQUbCjOQMIEsONF1LFjryoINRQXPkyMRsmRKyEErR850xtb97ryfyoT5r1mwIY+6FOzRrHBSftlK1aBMYyuuT5/lm920gk26NAmQJWNCPr8q2ERFyQZWME0eH5kzJJQEnwScRwEg56125ejc5Nwuk1SWRVpIsKKyfuNe8X76yJHLZcEmd/ZEyJHVhNPrd3mgcbfnnBYIfgdIsCE6tpCDQ6rQR1BEwUYg+GlIL3lBHKBGnR687t57kkYSIjhNWD5+rqSMc+DQec3mrYc1z20dNGFhYZrEKUopJRpNqgwVeP3lyxdNpWqdOT12whLNjl3HOU3kzF+X13RcaGgop8dOWKoJDw/X3LtnralYrRPnEV17TlRSGs27956ag4cvaM9BlCrfhttA56MlpuSq8JCX+WveKDk6hk514LI5qwzL6DzqcfqnVPMicumWN+cPmeKg5Mjo6jBs95u3QdqyDx9DlFzd/oMmGdYTHByuLSvd6ImSq0Mte+cerORIv/FTP86r2fapwfklQVS7P9UrEPwoitWy/GnPlfrMbtzzXsn5Our+AsGPRGhu4hg0tJM2TSplC7AwL6ykDDl99gaKmjdH+vSpkS5d9IeAXti9xplztzBs5HxemjeJHO7+W5GdV67ZjVVr9iBt2pQG+04a1wet241Ervz18N79g5IbMxIn+h/G9M+mbMlIzylOXpLH6scPNCyj85cslozTZF+jYnPJnJeIlDEz5bXrO51h4yNrf16TtibitWfLnEhJGWf5jDxKSoZU/HWqpOT0rhUFeK3PwK6ZeG3/OojXxJTFsnbo7M6iBuePF4/uRRZOP7UL4LXgz0H1n+TsGsTaOXWbluf28u9Nz37DLoZlY2a/5rKIkA3Yon/dDPat3uYprG0/K3t8mwbKuYZMMRzOJShPv+62/e0MNKDNetpyvsqsFa68XbqRFW/vPurB25v3GWpZo4L/9xe9tOejpdsIe3w2YocnEERECDdxjEXzRmLAkFmcDgwMRocuYzgdkQmTl2P6lAGoWrkUrJ/KwzhfIzhY7sy7d22Oc+dvYcnCMVi6aAyqVinN+TFhzrwNmDV9MKpJx1IbiU+f/CVBKw2OHFiGpQtHY/ykZZwfU4zFKLp6x1cSXOT09Xu+kZaUKWT7GTLoVUmaJD4vV+98woxlLihR9zEKVbeUXrTyrAz9UamXToG8jig4xRb1GowFkqQhNUIVxMiw85mdfP47j/wiXVsCpS7qtH41Tq89kS73EGXr92bs1ANIk3Mw0krL+cvPlFwZusYPXoZ2XT+T6m1skCpFAnRtnQ6VypjyM9Koqy3a9H+BPJUseWi2Q/O0qFY+BZIk/h8OnPJCqz4v5IMVqMMvUO0xVm97jz4dMuL2keJsi+bsGiIJHS/g6fV1B5QkSDTq+hwvXgWiaIEkWKEntL95F8yCxYmL3qhRMQWOby6ESqVNcd/Kn9vn+VGue8KgbNi4IC+niRb1U/P2okm5eFu1PfvGtxND7aG6B095jSplTXF5b1F0a50e1+76sh0bTRIQCL6GEG7iGCRslLYogmq1uyN91irYunG2UmLIzq1zZXuY/PUQFBQkdTyuSklkSBtgY+uAmvV6olmTGmxEnDV3TRQo1hgnTl1R9oo+m9fPkM5bF5lyVEfKlMlZcKJ17Qa9UaNOD3TtNUkSfn5cJ+j6XjdNvutw+0jLldu+XPbxk+6F98kvDFVaPkX3ka+wZb8nfP2/IDhEgxAj7/g7lnJHlin9f28P4K3XZmPXNmeVLNTYKwLYr+bLHzCD6+SZJ9iw9TqnEycxQf/hOzit8l9f46U9RbBzRQFMG5ETO5cXwMktsrb2gdVnNkA/trkwZo/Jha1L8uPm4eJc9sTGUBszY5lsL7ZkSi6Ml4SMzBlN2Mh+gyJs9B3vwOuoGDnjNZ7bB7LwdEI5v0rtdja8Prm1MDYvyo/ihZJxe1fPys35fcbKNmTlLExRq7JO61y0QDLerl5B1mTGhOMXPvK6VPFk2L6sAHLnSIypI3Jg7rgcnN9+4EteCwRRIYSbOMLl85t4TYLIof3LcO3iFvh/vA8Tk4QobNYUGbJW1S6jxi5CsaL5EfjpIVxencfMaYPRsH5VxI8fn/NUvN1vKykgwOcBLp+Tz7F+7TS8c74Ce5tT2LJB0RJJxyVIIBvEzp01VPp6jIeyZYvj1lXdi3/rRnnfBvWrwNn+PNzfXMN7l6tIlEg2fqU6rlzYDD+ve8iWNSPn/Qj0Zxs1r5cmyiW19PWrUqqBlSQUhUhfvOnw8poFz8SghWZKRcTUyMyp/wq1I02dIr7Ra1KXxrXS8H6C76dLv024dmYsPjqvhNuLxXCwmq+U/Bry5EyipGQK5dNtH9tcSEnJpEklC+D02Oj7jDEx+R9aN0yLBjUMh6hrK8KGo7NuGDQiZKh/5JwsTNhcsog0NBsSKj+jRQsk5bVKw5ryM/nEJgABgT92qGjYtNeswdq/rqCSI9OuaXqYJPwfbCVBTCD4GkK4+Q2wtT4OD7fr2mXR/FFKyd+BeRHdS3Xp1NxRLqp9zJu3wTwridTrs8fkRMKEX3/MK5RMzms7x//+hZlF+sImvH3D+avb2HXRMk36av0ZkHD12NoZb9/7KDmGBAWF4OFj4zYeKu4en+D5QdaeGYOGGJ7ZuiE4OHaxud67f73+0NBwvHGTO2cVP79AvHz1ns9tjHy5Myip6GP19A23xRh+/kF49OQ1fD59v22UvnCRJWNkm68EiiweFKyT+meOyomFk3IhcaJ4sHzqj9uPfHH7obwQYXr2aPqcv+6DtTvckSJ5fNheiSzYWD6T7dHov2QM0iwRdg4/7r/zXhHaKpQ0RbwI7SHog4WEu1sPon4mBAIh3AjiPGaFk0kvXWUjGvgrDsEypZcFB32+GOnsShSRhZvZK6Me2vtZkAFyYeVLXf1C/q8gtwDp8wxBrSaLUKzcZIyZvN9AGHB9640sBUeibvPFyF18DBxeeyolMl++fEHpajNQuMwkFCw1EeVrzULGvMOwYNkZZQ/5HGTDUrX+PGQuMALdB2yOUuDQp2aThXxc8fKTUaSsXH/lenO4PhWymdm+5xYy5hvGbSRI0Klcby5yFhsjtWc210F5KnQMkbXQSG26QMnx2rQxPD/4oVTV6ajReAG3ZcT4vUqJzDapDTmLjkadZouRx2wslq+5oJT8t2w74MF2Za362qHjYHv2FaX6i4qKwVOceE2aF32DfJUPiq2OzctAA8NedVF/Dn0D/e/loWLgf+uhn9Fzbj0gP4fCyF7wNYRwI4jz0Nfk1f1FOU0vt4OndTOxqKMs39Sa89WXs6rWv3Trk4GRcb/xDjCvJ8/c0I/wnT1LIpDsFBikwcotb7WdLx1rVtfQQd/P4NQ22caBnAGOnaPTktD1tB1gx9dGXl9/JDfuvJQEm6Fwd1jOwzO0bN55ExVqyzZeF648g1mFKXB6uoDLHK3nY/bCk1ymki73UBYWPzit4H0uHh+F0DCdIPHJN0A+x6tlXO71eoVUrw0y5R+u7PF1SKtkfWcGH0vnsHfw4Pr0OX3+KZfbPpDbTYJOtcoFOY8WZ5uFnKdqfiiPoOEoNf01rt+ykwSrCRg7rIG2zp3776BaQ3ko69gpSwwft1dbRsv0+ccxcKShHc/Php7baUvfIF+uxHC8VVI7DPstx3jx45OtTHLQz1a8duQQCKqX7Ca1U2PSkGxRLgXzGtfsxAby8k3QrENj51KXMiXkjxKBwBhCuBH8FuTImpiHbYjRs5yRp9IjZbGUhJBQ5Jde6uosJRKGVOPg8k2far/4zl3zYQd5xHtPwyGS0zsKs3ZoyYZ3XCfVTcd+DtBpCn4W1N7GtWRbif0nvfjceaUlXxVL3H/iz9PjC/3AzoNo0UHu2BOo4woSQ/rVxitH2ZHgxu03kDBhfKRMIZ+X2rh5dXdO63Pl5Giesk4kT5aY1yodev7L9zSBMo5Cdaxa1NFAk/It6BiCzrF9XU9O67N8fnslJQ9FEdPHN+M1obZp0KhdvI4pU+ccRaYMKfBPizJKDtCxTXk8tZG1fB+8ZMNefW2Up+NyrFzYUdn6+ZAQuFR6bonjm+k5lu9ZdHhwwgx7VhWQ7lM8jsSw77ihdk51uufsFoye7TJGuRTI8+OeTxqOIgIDvxg9l7qUKi6EG0HUCOFGEGegd7I6VdoYLeqnxdj+WXgf6kvU/mTy0Gw4v1vW7KhcP1QMbRqnVbZkyGfMxT3kSwbaGFYqhfImxdkdRZQtuW7yOnxDqof2VxcVbZ6yrQ+1T97X8BwETe3Wr0dl5cw8WDUzt9aLsvLBjM4t08HqnLl0jLEzxR4y0k5kkgB9hm7TLpev23JHSdy6Y4/06eRO5mukTGFoZKqP21sfmEQ4xyZJaIot5mY5lZQ+uvty7dZLFMiXUStMqVCenf17ZStmPHvuxr9H32HbtddAGiSVdq3L8jXmtxiP/sO383niSwIjGeT/V9CzTL8a+WlSBc3okixpfH62jm2SDZfHzXOBn79uBl9JRYCwtv3vhoBUOzQbxdePQBArpC8OwV9KxnxDNalzDNJkLzxSyRH8LdDvXrvZQmUrMlkLjdAUKz9J2ZJxdPLg41T00yqUN3/paU4XKTtRY1F5KqdjSo3GCyLV//add6Tzv3f/pGxpNKfOWWkq15ujbOkoXW26pniFycqWfFxAgM5DdH6LcZHq9fzgq02377GO01+DPEvvPXRP02fIVj7m9j17pSRqvuaZVy376CN7DdcnX2W5zNElkLfDpXOreQdPeXIeQW0yq/OY8wtVf6TkyhjzUBwQGMZ5tOiTp6KcN2WRs5Kjo0hNS03phk80nwPClJyoPRTvOOTO+Zv3Gear++uz9cB7zstX2bDdxKBJrzTF61gqWwKBcYTm5i+FHLKFhX3BnYsTYPdojpIr+FugL/xHj52VrcjUrlaEDWn1UZRJBnj7RO39NmP6FHjt4qVsfT+WVlG3l6haqQBsbN9GGvZycPJE0UJZla2YkSd3ep4FJb0rlRxDaEYWaWtI+9G2ZVn8u7wr57fr/i+v/wtoRtHssbJWa9QsZ5jVfQJJqEH+Kpbw9ZfvRVCwRquVi4okieMjXy552JYcX6o8PF2C46xtP+TJBssNu9ig+j9PUaCqJQICv6BmpZTSsT+2K+nSSp7NRrO86JxNezxnp4b5qjzCyUs+qF1J509HIDCGEG7+Ug4df4SmDc1RMH9mJEkSeVaR4M+GDHCpQ5429ygCg0J4oZlA+S3Gcfn6FV0RLgm/IyfuRWBgCE6ceYxyNWU/Ryr58mTg4ZiTZ614nzFT9islMheOjeIhml6Dt3B5QEAIytaYibS5ou/g8eqNF9y2fYfvo3OfjcicMWqHcGRfQ+fLXmQUT22nc/YZspXzdm/qo+wVM66fGScJef7IVWyM9j6VqDQV2QuP5PK7Dx3ZCJsMlqnM/7PsT6Zbh0q8/hrkjZg8/RpDLSOD34jUrZqKy0jgUGnTOB0u7ysqCZQJEBz8hWfe1ZH2I+NiGtqsLNWnzkIiqpRNwXVEHMa6sFsezn3pFIT1u+WhvNQpE+DF1ZKYNy4H7+/gHMw2a/lzJ+ao+PMn5DIYNuW2S0venIY2WLRN+RnSGTrLpLZRvj5UHxlDX9lfVLoH/4OdQxCsbANQrGBSXDtYDEumyg4EBYKo+B+pb5S04C9h2ZoLPAuEvsxbNi2FPt2rIVlS+YuNvkJ37L2ND17+qFA2L7pGeEnT43L24lNs230bWbOkwoIZbbjzUKGpuhOmH4KT8wdYlMiBccMbGrz4BHEHt7feKF5hirIFFCmYBZdOjpI6TcWI1EX6DatM53SSxAlx5ZQ8vZpmBBFhYeE8FdzFVfYxk0kSPMgPDP3mY4Y14Dyvj/4sAKnQPucOj0D2bF93SkhTwZ9YuyBZskT4/Fn2UE22M9dOj0OiRLKzRpq+TUJaxgwpeJv46P0ZVRvMw9t3Or89TtbzkTKlzjaIjqPZUqpQT1PB6XlXr4vKX1rOQbq0codLWs56rZbggyTkELlypMWlE6OROpUc02zNxiuYNPMwp4luHSth8ey24rkXCH4hQrj5CwkKCpUEnPMsyKxd2oU7C3oRr1p/CXMXn8Llk6ORLUtqNGu/EpZWLvjgtJwNJF1cvWBeaRoK5c+EWxcmwN3TF0XKTMKYofUxbkQjHDj6EH2HbsPz+7O4w1m3+SomzjiMxzenIWd2Q+Newe8PzU4yNTWcJUOCwcqFHdCxTQUlxzhDx+6WhOg7ypYhJGSowo0qcAgEAkFMEMNSfyGJpa9wmlESL348TpNgQ/5Jps87jpvnx/NQVbJkiXHx+Giei/LcTp5mOnDkTtbSXD87jo/JlCElKpbLi+VrL3L50ZOWXE5f51Tev2cNzqdYPoI/j5JVZ2D0ZN1Q1L+br/AQAtmefIvl8zuw4GJsEQgEgu9FCDcChqb+0pBS7pzplRwZsr1o03UNp2/dfSWVpzOYartpVXdcPT2WjRVp2IDqsHdwV0rlr/CBfWopW4I/iXVLO2PrrpusraFl/PTDsLw+NdJUbIFAIPivEcKNgFENISOSNUtqnlWlYlHcMMZRxgwpUTB/JjY0nDquGXuSHTFhL3uSpQ6PvLV+CxKIvL1FnJjfjVrVi8DTUfZOrC7Zs/2Y4cfLJ0YLLY5AIIg1QrgRMIkTG58xRQaa+gbDtvbyEFVUkJBzYt9Q9tJK7vgpzs6u/cZtK1RCQ8Pw0l4OO1CiTGteCwQCgUAQW4RwI2BqVSvMfkl27tMJIjRLpVPvDbh2eixvjxhUlz222r/SDTtZVJnGU2OJXMVGo2jZSZwmSpbICZowoj9z5VtYPTiopEijE44XdnJgP32cXd6BgjbqQ3bxjk6uBv5IOM/xTSQfJS/tnWMdoVogiCvMXvYInQdeUraipmz9Q0pKIPizoP5q3NQDypYhQrgRMGQAbHVnOoaM2c3+TiguEPkLSWGaGBkkoYeYOKox29yUqzULw8fv4Sm3zi5euHFW9o1yaMdAvHP/xNGhR0jleczGsP1FP8WwODqYK5qbgIBAZMtTGyNGL0DqDBURGChPB06SsjT6DZyBdJmrsJCi5uUv0gjde01C0lRyDKAnVi+QJlNlDBo2B6Zpy8HZWQ6IWdisGYaNnAfzsq0jCT0CwX/F85feyGK2HbYv5Wn00SGb+XY+RsXbJxjunnI8ra/h+jZqR4u/I/S/vXbLTtn69Vy7aYfXzrpgvoLv48btl2yqEB1u33uFfYcfKFuGCOHmLyV1qqQcEFAfk4QJcGzvYHZFe/OOPWZOagEHKzn6MUEC0IOrkzn44fY9t+Hh6cvlKZTpwKUscsHq9nT4fArA1t23kTZNcjg8mQfT5IbOvKLDvIWb4WR3FqePr0X/vm2xacshtsvZ9O90nDmxFndu7ESPPpOVvQH756dw9eIWmJrKvkf69J+OJQtG8/EL543EgUPnsXvvaSSUrpHyntw/gIFD5UjSAsF/TdrUciT69GmjH3AykYkw1FZp1XG1kvr1tOi4CnsP3lO2BN9Lm65rERKqi28WayQpWCD4pQQGBmvu3rPidInSrXidOEUpXuuzdMUOzlcX07TlOH6O/r55CzXgdVh4uGbS1JVc1n/wTN6vXuO+BsdXqdmV9xUIfkdGTr2lqfPPCWUrajIX36akfg6fA4I1oybt02TKN0wzcuJeJVeG4ozZ2Lpp8pmP1TRouURz4cozpUTG8bUHx+MqW2OGZu2my0qujIOTh6bfsG2aouUmaeYuPsn/4as3XmjGTjnA8btovWDZGY30lc/pg0cfaIqWnaTZue8OH+/rF6ip1nCeJo/ZWM2Yyfs5jwgKCuH9/f2DNP90WcOx9W7ctuOyxSvPatLnGaLpP3w7b+szedZhLhs8epcmKDiU26O2pVaThZxWuX7LTtOs/Qpezl3SXfOxU5YcI23khL2a7EWijun32tlTM2fRSWVLo/H2+WxQf1TQPncfOGgy5x/O70Bi/LSDmgIlx/N9fvfem/MuX7fVjJtqWB8de/LsE2UragaN2qnJkHeotL/unqrtmzH/mCZboZEan0+f+bz6HDv9WFv/K0d3Tc+BmzXpcg/RTJx5iPPc3npzHelyDeHnSP/4vYfuanIVG62pUn+uNu4bQb8T5RtDaG4EcZLUqVJoh43eu3uxPU3OHJnxzvkyAj895MX3w13WJhnD1tYRUyb24/2IYaPmo1jRfJg/Z7j2+OuXtnKZ4OdAv9/arc94KIWWf7c/jzQUaP3cC8Wq7NXus2DVY6VEplWPc5z/0sEH+crt5jStXzl9QmjoF4ydeUd77PApt5SjdJCLgqJ69V+95aaUyBSruhcDx13HwRMOXH7noRxywM8/hPPV4yxqHfhmbCaVeSss+ZiILP3XCmXryfYvb99/5n0CAnVfqDQrsYheW2l//ZmK2c13GK2X7kXhyvJx+crtMjgmKt57BGjPU6HhYXh8+PbwljFo+EDqzHD/oSPOHB6OS1dt0Xuw7n81b+lpdga6eU0P+H8Olr7K12mfgWe2bihVdYZ0r4MwoFcNTJl9FAEB8vAz7UPer9+4fcScKS2x8t9LPExOPrTKlcnDtnzlpbW5WXbed/3Waxg5cR97TSeev3iLnEVHo12rcti0qhuOn3mCmQvkmZvk04v2z1V8DHp0roJWzUqjabuVbD946rw1Fs5sgzMXnmLzDl0E+wIW47H30H2cPyJd6yNHZCkwnPOpDUS2rKm1abIHbN5Bqs8sB3JmS4t23dfh8PFHXEbuNMjr931LJxQukJnzjJEzRzosXHFWup/PeZtCfEjCAae/Bl1Xiw6rULxoVtbAz5h/HNdv2+HIrkGwd3RHkbKT2fkqedn+d8s15Sj5ftOxDeoUV3IiQ/s0aLUUkmCCc0dGSNdkCUlwZE/lZJ9Jx+8/8gBFCmXm9zI5cb19/5VyNCAJK6hbsxjXU6b6TI5Vd+n4KB4FKFZ+MpImNeF7+D9JKilbKjfKlZZDbLTsuBJDxuzhc3ZpVxEFSk6IFD/OKNKJBIJfijHNTXBwiCZjtmqaAkUbazJI65CQEM5Pk6mSJn+RRpoceetopkxfzXnGNDeXrtzVpMtchY9Pka685tZtS/7CM5Pqp7x8hRtKXwruvK/gx0NftaQxkDpb6asuSPqSC9LkKbOT8167yF9eV266abKYbdOcPP9aIwkTGicpP0fJHZqhE29yOdGy+1k+ptvgSxp3zwCNl3egpmDF3ZyXtcQ2zeFTDpqPUv2WTz04b8EqXbTo81ddOO/giVeaT77BGo8PAXw+s+r7lD00mqJV9vA+xavt07i4+Wk+B8hf5JRXu/Vxbheds02v83xsdJBe9rzvU1svJUeG6qR7Qbi98+dtOh9B10bb67bZ8L1689ZPk91iO+epZCthuE2aG9ouW+8g1/fO/TO3mfICg3TRxPWPIao1P8p5koDF96Vdn/O8PXd55Ajc38LqmQtrLvz85AjlhPObD0pKOnf+4Xw/VSZJX+mkHSHouMvXnnOa8PMP1NRqKkeqnzHvmObWHV1kdfrvUvR2gupLm3Mwpwm631SXPrS9bbfuOSIo76O3P5+H0x/9lRK5bODIHcqWTF7zsbwODw/XFC49weA6chYbpXF5I/++dOxcPS1LhdqzWJOhcu2WHe9DkAbp4lXdNX+NZ89d+Tg7+3d87frnjwr1PCrunp8MjstbYqxGEng4XanuHM3NOy85HSS9b6s2mMvpqDh84lGk+qldR6R8V7ePRstyFBnFaWeXD9py/89BnFbbRWv9Z4Y0gAFSn6BC1xAYKL//CSpfuPwMp4XmRhCnoWno5cqacfqJMlvKxCQhXBwuYNH8kXB/cxUJE8rxjrze3cTOrXPx4ulxTJ8ygPNU7QzxyvY0r2tWLwd316tYuWw8vN1voWIFC56mTrOxli8ei6sXNyNLZjnysODHQ9oEwuryP0iVMhFSpkiExxdlY/GR027zesKcu6hTLRsa1cmJ5MkSIld2U0wYaoGjZyLPkNuyoiYypEuCNKkS4/7ZVpw3bXRptGiYB6ml+i2KpUeHlvlx467OVUHPYVdBcSFbNc6LFKYmbN8ysEcxeHoF8dejSppUiWB9tQ2yZ0mOpEkS4Nqdt8iYPgnO7mvM7aJz7ttQRzoG8PAMUI6KGnKdYFYkDXbs1xm92tjJhsMpUxh3uXD8rOwKoW+XInyvsmVOjmUz5bhu+m2NiGnyhLh9qgWyZEqGTBmS4pzUZmLS3Pu8joitvTdeOnxC6yZ5kDljUr4vu9fV5uskzVpMKVY4G9KnM0XOYmNYM0IhOXLo+zqS7r++dpUmF1CUdpXNO2+ia7+NvJAHdLuX8u938pwVyipf7gT9d19azlW2oodZ0exKSsfBY7p3BRs96UGBYA1Q7rvj6w9IlDghuvXfpG1r0iQm+CRdqzFofwovou67Xk9DQiRWYqN9i6KFs6J+7WIcz40CuEalpf4aGdKlwLBxe1gzQn7HyLWHdGFctmVND23bRozbi2njm3M6KhavPKekdNBv0rxxSWXLkIPb+7NWjpiz+JT0jMnxC+ne0X+ENGcTZxxijajBMxOB9GlNsXrDZeQ2G8PXEBwS9tX/hIoQbgRxFhJwmjSqrmzpKFumOJIk+baRMsXDqlu7Iq/1qV+vMrJmyahsCX4Gi9daIUni+EiaVBcBOoXUac+fXA7NG+Ti7dunWmKrJLToky9XSoSEfn1YhTpkoqUk2OiTKqUJ3rrrOhzpgx61JeFJn3GDLXgdFqZ7OWbNrAuqSVSvmBWPL/2D+CQZReDjJ3nY5FtsX1kLOw7aK1vAwtVyCJKoOqiyJeWOlYRC9cXdomFuuFl15nRU5MxGkcN1zzcJAfS4n73souQYsvuQ3KbRA0rwmqA2dWlTQOo0ojdDRR8634uHs/H0znSODk9Czs07L5XSyCROlNDAWJQCq1IAX3WxKJGT80PDvkT638aU5BEmMtCt9/eP3u+nj7ckENAwiH47c+VIx8FkjREidb76+3709tcOWcWUPLlkj/GmpjGflEHQcBZFyKeJIG9fLkGa1PKECyJv7gw4If1mxMWrz1G9ckFOR4UawDa6FJUEX3o+iNMXrDFxtCx40/P23n4pVi3shOu3XrLD1279NnGZMQqVmoh/t1zlmIV0DWrg3G8hhBvBDycgMBzTFrvw8jdB17tyy1tl67/j4g0fPvfU77zfP/I3u3LrLUqVMAzlQXT+pyA6tZZfomSvkbPkTrb7yF9+NwpU2IPeowy/cmOO4Rfd+auuWtsSWrKZ7+D84JCvj9mXqnPQoF20xIR0aeXOaM8RWZigdnRtW4DTxjArkhaWl1qj9j8nkLXEDmQrsR2NOpzGJ9+QKAWiqCBNk8+nEKM2QuevvuF1uQZHDO7Lmi02nB9TSJvRvse/yJwpFe5dngyv1yvYfkVrEyEJavpf2TPmHUdpc1m4JZo1tMDpg8O1y7E9gzm/W4dKBs4/v3z5whqMmHBIT0tDbaBm9O1eTcmJPiXNc+KDlx9OHRimbefJ/UNZODBGoQKZsHBWW4PrOr53iFIafTZuv84R599JHXpuSWikgMcxgf5fFBx5/9b+kiBmgkQmCQyeCRI8TEzio223tfD08v/mc7Z6cSclpYN+k/OXnylbhpDQPWZYA66fnoc+3eR7/8DSSfptHqFJgxK4cW48e7UnmyhjvHH9KLXNDzel/egaSDg29lwbQwg3gh+O/+dwbDvkycvfBF3vkbPR91vyo7B85s/n3v6d9/tH/maktfH1C1G2jNO+70XWtjjc7wD7ux3w8k57bFgU887na2xbWQNvrbtEWmgYJirsXvngnXsADmyso20XLTGBOgoaMtp75JW2c58+RvbBFBWZ0ifF64edYHe7HXp3LownNl4oUmWfUhp9AgJDES/+/6Q2KBl6qMNizpadjN6XmNK7azWpc7PBtt2yMfeFK8+RIb0pEiSQu5ag4DD2nUWckDqwHfvuoEeXKrzdrWMljJ9+CMdPP+Z7tGPvbfQZuo3L+vWojlGT9uPuAwepYwxDr0Fb8fKVbOxNfJH2pxh2qgFyRBbNaoP5y87wsAh18nOXnGYj1SRJjA8Lfg3qpEMkYbh9D9kYmlxgkC8wfWHjmHRtqkC3c0Mf1Gy8gAULMraloRcygo0pY6ccxPL57ZFI6tBJC9W8fczCkagavV3773JbyciZ3HToG+M2qW/Ov1mlcvmUnKih+0duP06efcL3YeaCE9Jv8B6lLXTDhxEZPaQ+11+hTF6t8FS0UBb0G74dT566cD0Ll5/hfJWMGVLA0spZeo5DkCVzKhbCyEg9UNpetuYCtz86U8WFcCMQCH44m5bWwDPbj9wJqdCLjLQExarJHfbN++9xZGt9SRDSqZk9vWI3aycqegy9qqR00Eylr7H7iD2KFkyNSmWjns0SHXauqYUHTzyxdqsN6lTNCpOEUfupMauxn+8NYZrcBFNHlYHlRdm2iGb3RIWPbzDfVxVKk+a0fs0cRr/EyS6JWPqvNa9V6LjozLKKSKXy+Vhb4+cXhL7D5A7rxcM52nMnTpwQKxZ04DKagfT+1VIkVAKrLpnTjo+lGUT9hu/gmVAbVnTjMhOTBDx0ceqcNQaN3o3lUh1qrDGqm2bOLFp5joUW2v6nhaHgSLOgaH8SkAaM3ImK5fLi7OERvC85FqX9ya+XCm0XijB7qVkjeQiToLqmTWjO7aQZSDREQtdG0DWUK51Haucu3qahJNK2LFl9HgNH7eK2OFrL/sIsSuRgGyWV/YfvG11IkzF+REN0bleR97N/Mhc5c6ZjZ4HG9j978SnvF/E+ULvv3HfA0HF7cHT3YPTvWR3unn5KKbBumSzQ7trYh9ckBBmrn35Xum+vny2AzYu3fB9aNikpXftKHuoiO5qI5ybU52CnUj+RNGkivmdbdt7kekoUz24QR+7xzWnYvucORk7YywIahfJpLp1r2Pi9aNOiNIYPrIswSWAlSOCKyubnf9JDHT0dj0AQTTw+hKBcU/nP5nS7FK//BnJXfITc2RPh8r5iSs5/w4K1rli7Qw6J8T33m9pP/IjfjL6Ws1vsRLWKWbB7rRwVvvvQKzw8s0varlEpK7Kbb5de9Enw4HxrNvy9b+nBU79J60y2JvRipO07D90jaRVIEHh2rY30YtXZIsxa+oiNkR9K9RFjZtzBzoP2uHy4CQrmlacI7z/mgOFTbmvrp6ngWTMnw7l9TbicWLfNBjMWP8K1Y03ZBoimnFdrfgzOrv44urUeypaMnr0WvVppiIk4tr0+ypjrhjFIwCpd9xBe3evARszjZt3B9v32cLHsJL3Q5Q5hyvwH2LT7hbatNBU8XLo56r0YNe02dh9+xbY5K+dUlvYBVmx4ivmrnuD+uZZslEzQvVKPIZV+7tK72KbF9QnVS+0EGnc6DcfXvnhxO2Yaqm+RpeAIvLVbomwJIlKx7hwlZcjt88Y1PafOWWH24lPKlo4cWdNg75Z+ylb0mTD9IG7dc9CG2CEboWYdImuI2rcuh8F95P9xTKD/QNX683D9bOwMor8HIdwIfjhCuBHCDTFrySOs2WpoyzFpeEkM6C7fHycXX1RqfJTTKh1b5ceuQ/Y8DERDR98j3NCrrfeIazh9ydCOiGZobVspGzIbE24IVYuikjdXCjhInf/Q3sUwdrDxL0VjdBl8CRevuWkFFJWIwg21tWmXM3hkZejGv3SJdDi+oyGnjQk37z0DcfvBe+mLW6fd6dGhEGaNK6tsGQo3BGnHqjU7Bh9fw2HDdQuqoGn9qIcYYoMQbuImNNR36vxT9BiwGSf2DUGl8rJG70dy+MQjrPr3EqZPbI4qFaK2N/tZCOHmL6THKHu8eRuCC7uLSutgtOhtCy/vcCRI8D9sWpgXVculVPaUee8Zgs5D7dG2STr0am/41eriFoSeox04TfUR3xJuVm97h5Vb3iE4RPqyzZQQQ3pkQZvG6ZRSQ+jxHDPbGYfOePEXZpdW6TG0Z2akSRW1zcS38P4Uho173mPNdlkgIIFk65L80tePPFUxInct/bBkvRseWH8GDWN3apke00bkUEp16As3Sze+xbod7xESqkGDGqkwdVh2ZExvfLz//hM/vr+0b/Jk8bB7ZQEUL6Sb1aDPpZs+mLPKFY4uwVJ7TTC6X1Y8fxkQSbj5HBCO5r1egCacnNsp/y761OkgCx3qb0Z8Tbih52TBOjecvOgtPSdA938yYPyg7Pzl/7fRacBFXL4ZteF4REFMIIhr0HDx7v130altBSXnx0M2VI3qlTCYofVfIoSbv5B6HW3w0ikIa+fkQf8JjkqujnZN02HuOHlKJvHmXTCqtnqGblKHNnW4oe8Ia9vPaNbzBafVTjEq4YYetcbdbPHcPrJdRbd/0kt1GwoMZDtQ7Z9n+PAxsvGYw62SiBeLnpXakK+KJSIEFWemj8iOLq0NZ0C8dg1CjTaRZ5JkSp8QNw8X1w4hEKpwUyBPEpy7ZhgJnZrqeCuy0FC/kw3sHGVfEPo0rJkKq2flVbZk7BwCUL+zrbKlw6JYUjx+JvtfUe+3r384StR9EuV5jQkyUQk3n6XfoVityLMZSLi6diBqj6Z/KuQrhmYjRUWF0sLNgEDwqxEGxX8xAyc64syOwtyZ0eJwU1a37z3+QRIoYjbtMDqUa2rNgs2h9QW153SUhJQaFVNg6wFP9Bmrc9VNFJU6VBJsXly10O5/YXcRts/IW8lS2StmmNezYsGG6lHrVK976pI3LPyozF39hgWbIvmT8D7q/lf2F8V7z1AWkiJ+Gzi9CYb188/afen6KpYyZa0TaYv0GT7dkQWbFvXSaPenhbQ3py/7wNlNJ/S4vQ9mwYZsMa/sK6rd9+V1C61g8zO4/dCXBRsS2p5fNtee98TWQnBxC5F+o8fRnpr5p1A4f2oWYKJaBALBr0cIN38xRzYWQqG8OgdmNOVuSPdMnO44JGpHXLGBbAU8vWQNTMlisqEjQXYImxfJ4713LHVW/Hcf+/K6fvVUSGSie0zz5UqC0f2ycHrPsZhNWybHbaTRIKgeFbruksVk1entR7o2rN/lwevjWwrzPiq5sunsPKYuMbTnSJI4Hm4dlb0tE3R988bLWrDZK3VxjcLDNTh6zhsZ0iXA4ik6vx/E4fWFeD1AT6vWbYQs+J3eXgS5suvOnzBBPNZ6/Sz6SwIwQUNtNL1bpVgB+X4FBH7BhRuGWiqBQCD41Qjh5hfj7vGJPVga48qNyEMQP5KsmSLbgAztKQsObu+/7qMkppBsoMoHEZQdjP31knhy1lzZAgZPduL18F6Rp+OqQ0e3H+oEkegQX28mbkSNy4F1BbkNpGWJiDFPtY1qpkLqlPHxOcBwfIuGqyKOlmXNHPk+r9spa3EGd5ODzOmTP3cStn+yc9QN3zm8lrU4VBYREqh+Fr5+UU9DLm0mCzhHz/33vn0EAoHga/wS4Wb+Mjn+z69g1KR97B77Z5K10AglZRyrZ2+07qZv3LbHYyvjXmFbdVqjpP47VA0FddqkXfhRUAd++5hsn5Gn0iO27+g/wQGb9rrzsAZ15vr2K6qdTfNedihS67HBUrqR7DL82l05flF0oTac21mE03kqWSJf5UeSEOWIPUc9+bqpDREFjTSpjLv6XjUrLyzPmGPx5G/PLjFmG3Ttjtz22StdI10fLaRlCteTK37FwI/+72+sjZbPZH8x5yPYFwkEAsGv5pcIN+R6+VexecdNrQOgn4Xbi69PfSxRLDu2ruupbP09ZExnwjYohfPJ2oezV30wa4Ur8la2xPV78jBURAKDviAwMMISJHe6+p1/dCFj3/O7iiB/rsSgx+DkJW9MWODCAtdjm8gatMhiyY/B21dufFCwJvL1SUtcIFQv/pKxNqpG2X+ZyY1AIPgNMBBuSFVfue4cFC03CYVKT0CbbmuVEiCf+TjkLj4GhUtPRNpcQ7TxJCjmR4Y8Q+VjSk3Ahq1ybBjSjhQrN5mPK1ByPLIXGcWuqMlttZPzB16/cfuIpm2Xo0r9uRw86+qNF9yGDHmHokiZibxP7WaL+BwE7UNurelc2QuPxLFTlshVbDRvp8s9BNPm6nxmVKg1m/MLS/UsWHaa66X6iFJVp2sFnIatl3E+7del70bOIywqT+Prmr3opJJjCAWJo3OrZM4/HLsP3OV06WozeO3rG4iM+YZx3Tmk6y9TXc4nR0n9h+v8aKxcfwkFLMbz/aX9yM10RJ7auHI53dNshUbCX4m2+rMgZcN3xq0zCmlGyG6EjFJJ0Hlw0gz5JEGj63B7tOwjz7pSofOrBqzGFpvLOg+iMYGGds7vlo1yqQ13jhXnobKWve14hpY+QbEIJhgdMmWQp7K/vKYzlja2/EoSmciiHT0LxtqmvwgEAkFcwqD7un77JV46eMDm3ix2oX3xynM4v/HiMnK9/OrJPNg+nI1RQ+qhQ8/1nL9g2RmcPDCMj6GysVMPcj7FgkiZMgkfQ2HRy5fOwzEhyG117pzpeJ09axre95MkBJCjp+pVCrGAsHRuOzx/MJv3eWzljBXrLvF+RKtmpflc9lK93Qdswe0LE3mbHBGp+62ShIUw6bOe2yTVM2/pGekr/wvXRzy6PhUJ4sfjmCbPnrtyPu1HAssLJeQ+BUp7+XguJo6SI5lGpFE9MwTqxRahMOz1ahk6b5sqCVvFCmflul2eL4KzC/lqifyZmyplUj6X09MFMEmUAIMVN94qdEz1Rgvwymoent2bidrVC6Nxm+VK6Y+F7hOR0jS+dohGNTkho+DYcvuRLzubo0WF6k+XJqHW18oTG51b/MSJ/seagef2P24m0Llr3nx+RxedYEhtyJTeBF1by0a5m/fK/mJUItrUqBw+8wEzl7/BgZOGTteiS9H8svZq8z7ZaPlb0JBZTFDCyrDQFlvU3/976hAIBIJfgYFwU6VCfmRMb4qG/yzlYFsU7yFn9rRcRvEw1EBcIwfVYzsJYtX6yxwZlrQfRctN5hcihU+nUOrL5ulceR/YPiDKoGVVKxVEQiXuyuDRu9Gxjc6x0PmjIzmWh0rxIll5TdFB6d1LgbWIMiV1tg9zF5+C18fP3CZaaL/7j2QDVX3GTDmI/0k9t7ofQYHaiIL5M7PQERV0nWuXdJaEwfcstDVtaI60aXSzgAgKKvfY2oU1SBRczt1hmbbD0KezniOljSu74fAJw2nOp89THBgNipefwu28ftsez198f/TpnqN1Qf1UyjaR/dPsWKbzWJlUmSVz6LSXJDTq9qdju480nL4dFSmSx2dHc6qzOX3UZ4kEGpXrB2X7nEZdIxtVkzv8vJUewdktZiH4CTp/1+GRZ4K9eCUb7+bIpnPkV7SALIBsP2jYZrrukTOdWTApVijqZ+RrjBuYHSYJ/4d5a9yw/ZChgEP1dxthjxMXdIa6k4dk43XdDjba+6Wyflfke6ovDIVI90sfsjGKLhVLyc80adYismW/O8zqPuFp6gKBQBCXMBBu4sWLB+s7MzC0bx0WKKo2mBfpRRqRcOnzmsK5q8u9y5NQoazsfEx/+ux/CWlRSPuja9NkWJhF9ihLLqhnTmyh3e/+lclo0ST6Kva6NYti0/YbHO12jZFw8EUKZeHgb1vX9kSvwVt4WCmiMBERY8VBwaEsaKntJIHvzqWJSmnssXoewM72yOneW/dgtBtoh48+siFv0YK6TjtVyvjIkC4hT/ut2uopjl/wwtYDHqjd3ka7/7coVjAZDz8R5Fxut9TB+viGYc32dyhS8zHn63s/Tp82IZIllR/Pkg2spHN+5P3HzX2NIrWesJ1HWIRO+1vUrZoK2TKbwPVdKBsle3qFcJ2kzbn3RLa3aVJb1iYS5CmYhsamLnHle/PmbRD7fSnXRA46WChfYhTOFzvhhji1tTCvpy5+g8Xr3eDzKQzOrkGwqG+Fa3d94SG1T4VmiCVNHA/2r4NQprE1+8yhqfA12z5j26GIkOCUWRn6qtzyKY6e9cKOwx7smZhsjKLLjuUFkFASlMgmqkIza1y47i3dt1CMn/caM5a5cgR4sosSfB/Dp9xC5SZHlK24z7nLLtzeb73PBIJfhYFwQ5FFN2y9jnq1i8Hu0Rw8e+6GOw8if5l7fdQZXpomT8zanXx5MmiXZEkTsbbEwVH3RUpRRd+7f3t2S42qhSSBSvey3HvoPkeLjQlmRbPh2i07gzYZ0xpVqVgA67deM9gvZYrIU22jgsLQ0/2iYTCKdBqRuUtOITAwlLVKLjaLWEgx9jIgWyQVGoajCKv6VKtcCN4+AQbtzJvb0JNubFg7Jze8vENZwKnU4hnuPZZ/14WTchpomCh9ZrvcEb/zCMXQqa8xfekbDgFwYrPskyU60EylmhVTsK+ZiVIHS534wnVvOQxDxxbpMKK3rJVTeXjSjB3oUbiEoVOdeP99J7x4JtGhfwsir56vmuhA13F1fzGeEu7lHcZaKqpT1SYN7pbJ4LpTmCbA/ROyzxq6N1Vb26DjEHt4fgxD2yZpcXqbPPMqtuTLnQRN66Tm9Kqt72EhCXHV29jgk184h6Xo2U72OaTy4JTcFhIoyWfOhPku7DTw4L+R47bQdZBtE9nNkH+h4TNeY8qiN3hFwlGJ6LtDpw+Ux+dKcJocF/YZ5yjdN2vsPe4lCT3g50LfZ5Agdrx3D4Cjc8xcG/xK/D6H/lbtFfyFSJ2tlqCgEE22wiM1k2Ye1gwdu0tTpMxEjSRocFnWQiM02QqN1HTrv0mTOscgzYkzjzmfjqHtfsO2a6bOOaopXmEy5/v5BWrymI3RlKk+Q9Ow9VJN+jxDOJ/oO2ybpkPPdZoXL99pmrRZphk4aqdSIkP19Rq0RTNkjNSGsro2pMs9RHPt5gtOE2lyDlJSGk1oaBgfp2ImtaP/8O2a2QtPaIqXn6wJD5frSJtrsKZK/TmaQKndRLWG8zTN2q/QSIKIJnfxMRqfTwGcX6vJQl5/iwatlmgKlhqvbMmUqjqd1+cvP+M2dem7QVO57hxNloIjON/D01e6X9s4feDIA0295ou5jYVKT9BklfaRhEcu07+ew8cf8j1ctuY85y9dfV4piTl1OzzT5KrwUPPho3wPfmfCwr7wtXxrGT7dUTlCIJC5ee+tZujEG5piVfdp1m17puTKPH/5UbN681Pp3aPRbNr1XGNWfZ9mxuKHGmdXP2UPQ5ass9JkN9+uad/vgsbzg/wO0cfPP4TPkbXEds24mXc0D5+4KyUaPk/Fxoc1mYtv4/TGnc85//g5J95+8cpb03XwJc3lm66cT3zyDdb8u91Gk8Vsm2byvHtSfR5KiYz18w98LL33Nu1+zuedMOee9l16/7G7pkiVPZpy9Q9pnkr7RkT64NLsPvxSY1Frv2bMjDt8r1R2HrDT9Bt9ldu7SjqHfJ/keonzV100vUde0eQqtVOz/9grgzKC9g8NDdd0G3JJY15zv5IbNSEh4XyMrfSbHDnlqKnX7oSmTe/zmqu33bjc0ytAM2/FI02eMjs1yzdYa3z9gjlfn4dWHpqaLY9JbdrBbTLGmUvOms4DL2oqNjqs2Szds4jQdSxfb6XJW3aXplqzo5p7j94rJYK4SKTYUmRQSnYnNESlDi8RVerPw/6t/fDK0QPZsqZG7pw6r6jv3H3g6CT7CilbOg/iK9NsqC7S2NAZyLA2cWJZTS49I7h51x6lSuSEu6cvTBLGl+rUDQeQZsjeQfZ/Qm1Qv6afPndF7hzpWGPC2zauKF5UtkWgyyBNk7otPYi4e99B+oQFypfJy9dD0EwlW7u3qFwhP+fRcfcfOiI0LBwVy1GefC66TtKQfP4cjAatl3KePtfPjOM1tZVmN+m3387+PQrml7+6qZzqInsl8+LZ2TCbNDXv3D+xQbUkTPH10PX6+HyGWbHsrPki9K+PeGrzBh+9A1AgX0ZkziTbGsUGNbbUw1NmSJs69gEo4wLki0Ud1voazeulwfwJhp6ABX8v7fpcwPW779i3EjlpJLukIgVS4cKBJvy+2XvkFUZMvY3kSRMgMCic96N96FXk+kQX4VvqtlG+/mG4vf+MhAnj4Yv0PNL77sqRJsiXW/6P0jsmR8md/KyamMRjzSO929SI4DlL7ZTyvvBxVEdKUxNYX22D9n0v4Nqdd3xOKhs32BxDepvxOSlCOOUZ1tdeqk/+P2/d+wIT5tyX3iUJEBQczi4NyF6uXMkMHAX98Ckn6b0rHSu9o0lRfnRrPZQtKQ8LU3sLVdzL2hl5H7l+F8tO0vsrHkcUd3Tx5euh9hJODzryu/P5S2/Ubn0CCaT7FY/uWcgXpE+bGFZX2vB+BEUpz5U9OV6/kTXF3wo0+jkgDPnL7+aI8XuO2PNkENWObNG0Chgz4650bvkeUZvIk7bD/Y5cTtfSpPMZWFp/4Gsh6NhMGZLg0YXW2t+xUpPDcHL2Z1s1yiO7vkZ1cmDD4upcTvWUqXsI7zwC2Cs4nStU+s2G9SmOMYNiN2tT8JORfrRoUbneXCUl+N35kzQ3AkFsIK3DBkVDokJ5o6bd5vSew/a8/eFjIG8T9OVOmpLGHU8pORpN7jI7eT99mnc9Y5BXvsEhTa8RV5QtGdIS5Ci5Q9nSaNr1OR+pHjXP/7Ph/5TaMHDsdWVL5skzT97X3VPWGm3ZYxvpWNLGUB5pJvS1KdkttmuyldiuzSOtDGkm9Pc5e8WFz6vmHTj+iuvS38fbJyjSOUmLQsfduv9OyZHvM2mFoov/51A+hrRIKnTerCW2cX5gUKiSq9F89JbboDJx7j3evn5H1vIQzq6+nNdruPybUF20feehoSaG8i5ce8PpiXPu8rbe5WqGTLjBeYK4iSzKRoOaVaNvWyEQCARxnSdPP/AXuAppEBZO1c1cJNKm1sXxoi/61fOqwMbOm7/kiaCgcIwfogsbQgzoJrs2IAICQ+Hs6o8pI0orOTJ1qmVD/RrZIXXcSk7UJEuq0676+YdwmxdNr6jkyJQomo7XUmfOaxX9Y9XZrjPGltFqLIgMaZOwmwep4+btY2edsXNNLYN96lXPzuclLVBU9Bx+ldf65zRNboIq5TLj+h3D2Z0tGnzbs3dEOrfW2ZZR2xrVlmO2JU6k8yKeOpWh7eOscWX5d61SXg4rQ6RJJf+mdg6yZ231Om/eexfpeahdVdacm5jIM0ZDQnXXv3x25W9qnQS/jmgLN9MnNFdSgt+d5MnjI1WK+BxhWiD4G0md0gSHTzuhcKU9LBCQO4fokDuHKXfw1AmqAs6eIw5o2uWMdpm3Sh4m/fLlCwtCROZMhrPqSND4d1E1JE8Ws2Hh/cdkVxX6wWT1ufswsluAiKjDM19jwLgbBtdEC+HrF3XMufcesk+qiMdZ23rhpUPMQqVEh6RJjYdGMca2fXao1OQIilfbh/INDiu5OsgaYck6a5jX3I/1O55H8uk1eqAswOYtswsNO5zCkdO6oLaCuEm0hRvBn8Ohfwvh8VlzpEwRsxerQPCnYHOjHX91XzjYhO1Dcpbahaxm2/HR5+uev1WbPBJs1K/8utWzoWubgtplQLdiWDmnMqkEtNoQPSXId/GzQ8eo6F+PutA1mSaP+p2h2sFEPG7m2LLo3v7XaP5PXXRmGx9a3zzeHE+vtcXdMy2VUh2uVl34edi1tjaePPvANk35yumcqSZJnIDLHR92RM8OhXH87Guul+xwBHETIdwIBIK/ipCQcNYykICSPUtyTB8jD12QGNKy2zl5pyhwcvZF4sTxWchRBZ0M6ZKgVeM8kRYKmFqskDzRwMNTF+GdoHNb2Xxgw9WY0K55Pl5HdZx5Mdnp6vdSrUJmo9ekGiwbg4a3CGPHVSkfObr/f8HarTa8JqFFf5hNn88BoXD3lLVO9HutmV+VnwcKxTJnmexQ9b3HZ3h+COTJL3Q9W1bURO9OhdiQXBA3EcKN4LeBPAvTzCjhEVfwPdDMp5K1D2LRGjm6PEGzlYhsWQx9AO09qvPM7PrOH/3G3GBNhNpRZsmYFLOWWhrYzly64YrcpXdymuxPGtTMjnL1D3MnSpDGZ8SU2+g+9Ip2tlHqlJH9ZBkjZYpEKJg3JcxrHdCek7RDQybe5JlTm5fV5LzvYe7EsihR8wAsn+o8WXt5B6FQxT0slBHp0sh2K6q2hji+swGvx828q9VY0X3tOvgSXr3+8cNS0SGNYjOlDiN9kdpfpakSg1BuImvVLGodxFG9oaagYNk5ac5ssofu7sOu8j1RnxOCZtEJ4i5CuBH8NpCzP/KGG2E4XCCIEWTvQtOtl/5rjUKV9qBd3ws8HZvEFbKD0WfElDswlzq1zgMvoWw92VajfUtZe0JcO9aMpx4XqLAHrXuewz+9zkv7XkbG9Dobm41Lq/N06vzl93A9BSvuxr5jDrhyuKmyBzCkjxxupJQkdFVoGNkmRJ/TexrB51MIn7PTgEvIU2YXDp5wxMmdDbXC0vfQtW0hFsAadzzDggDZmBSvth/VK5FRrizUVa2Qhe1USOCp2OgIT8GmKfVbV9TA9gMvkUu6n50GXOQp8BeuubGG7FewYHJ5Xg+bdBvlpfuarcQOrd0Q/SYEaaNIwBkw7iZK1TmI1j3OSfd0t/SMJERHxYh55+pavKbrat/vApp3O4udB+1RtKDshFMQ9xDCjUDwFe488sXN+77KluBPwfZWO2xYXA0F8qTiIaMKpTPCzbqLwUwfgoYnChdIjXfuAewj5s3jTjzcpEL7k0+VyuUy4aNPsCR0BGPPv7UN7DpIy0P1VC2fGa5v/aUOMY10TAfWwqgUypca86WOOEUKE+TLLXtkLyLtV7GMLiSJCtl/OD/qJAkYmeH2zh8WxdPhjCTwqENgRKYMSY0eS3kppXPoU8o8PefrD9tQezu1zs9+eEjQ6SAJdOsWVmMhgKAhuXtnWyFXjhRImyaxNr9u9ezYtbYWzKU2ub77zMNbrx91RCJlthFB51KH9IiHVp64df99lAtp2uiYbBEEpPzSfYrqGlXoPpBfouoVs/B9q1YxM+zvduB9VK0M4WbVhWe9ZZb29/ENQRXp97S9pYuNSLPm6J6Ul54Td49A1sLtWFWT/SIJ4iaRnPgJBHEViu9EYRCuHyqG7Jmjp8b/XmgYjLRFTrejH3NM8PujOvGjDk3wc+ky8CLcP0RtyH1uX2MlJRBEHyHcCH4bhHAj+K8Qwo1A8HsjhBs9cld8xOupw7Jh9fb3+PAxDOT36tVNuWOj8tQpE8DyjBxIUB/1WP1OkPJyZkvEwRrLNbGCh5cugvbxzYVQvFDkAIb2ToEYMcMJz+x0syuKF0yCLUvzI20qWWVu5xCA+p1tOR2x06WfM08lS9StmhL/ztPZBhD1O9tIxwZJ7TeTrkOui/bvPvIVR6HW5+yOwiiYV7YbCA75gkLVZd8dzy9bIEliw9HMlVveYsmGd5g4OJtBZO/oQlHJKXinPvMn5ESbxrJjMpWvCTdPnvujRS87ZQscyXrxlFwGUb5V/D6HYfj017h0U2fkWKmMKZZPy60NR5G38iPoxW/VYnfNgv2E1G7/DA7OwahaLgVHGt999AOXv7hqofVBQu7ZKSK3xwfd754xXULcOWamVeOrqM/PpoV58djmMwfSVEmc6H94dtGC1fP6fA4Ix7h5zjh5UfalQlAk8HVz88KscPSDYwoiQ0bBqzc9w+Gt9ZUcgUDwOyFsboywaZ8HCzY/giDpq79yS2uOzEydlDrU3LzXC+7U9dm45z3qdnzOgo1psniSACKPUz+VtstLnb8qh5LQQXUZY+WWd7y2ei5PbVQh4zkSbJInpXrlDpxmNDTqasuCDcVmIcd+quDSoIstbj2QBR7qrOtXl+PkPH8ZeeojCTZEywaRBYlvce6aN8o3kwWbZFLb1OsaO8cZb90N709ULPrXTSvYmCaLz/cuNEyDIVOcWOuiD93Dkg2sWbAxMfkfX7NJwv9J1+qHMo2ttffYNLlUj7SoqNvqXf+fknJ6E6QVbPShaaQW9SSBVhJsKAp5Suk8dI/dP4SiRN3HXG6My7c/sWBDMW6oXURQsIYF04iY13vCgk1CaT+6Drp3FLW9Wc8XbOApiD21qmQTgo1A8BsjhBsjuL4Lwcg+WWB1rgQenY6spYkJ1Jm5vQ/lL3rbKyVhf6MkypRIxlqBgZMMvVzOXunG6yZ1UsP6ggUsz5jD+nwJJJc6awqO5+isG5fOlV3WXETsxE5ekr/i6bz6+PrJwlrLBjo/GDOXv4Htq0BULmOKV1K7yLEfaWbmjc8pdfJA1xG6abBdWsmBUiO2WRUGiDSKZim6kOah33hHPtfJLYVYO0Hn/3deHi6v2zFyhx4ROv/qbbKW4+mFEtJ9k+6ZdO8GdZMDlzbrIWu4VJZtesv3Mk+ORLC7Kl8z/TYpTeNzO3Yelqe/PpHyrc+ba4U9StMScTbKm7chaFQzNc7vKgKbS+ZagaRGWxt8DvyC1o3Swv56Sa6P7nEDSUj0+/wFZZtY834R2XXkA9bNzYOX1yy4XUc2FGQtz6vXwQa+TZxcgiSBlWb+QLoOC74Oer6KFpB9jQyZKjyoCgSCvxch3BiBIkgP6pYZKUwTSF/c0XfxbYwE0uGOt0qyDwqCZgnsXyt763z01FALMqZfFh4SWzFd7twJ0+QJcGJLYU73Hie7XieObpTzxs59zWvCxu4z7J2CJEFEHs7x89dpn3qOesXr6SNz8JrIkDYhn3PH8gIGMyXaNpGPD5c6T1V4qlAqBa/dP4TB9a3Oz0yv0XK9saFMY9nPCAkiRQvKwyjUjrpVU+PAugKS8PMFq7fKWqGo6D9B7sR3rcgvCYG632pkn6wY3isz7F8HwfqFHH3Y9V0wVmx+j/RpE+DS3mKcR9A5n5wzl4Sz+Jiy+I3WR0d0SJs6AVbNyoP8uZMgaZL4XBcJSR6ScElasoUTc2nvLa3XzJEj7dO1jZ7txGl9xg3IinrVUvO+tJgXTc7PBLFup26o6swVWYhdOyePtn7i5NYiqFTaVBJmhQ8OgUDw9yKEGyPQkMCPguwz9Dufr9G/S2Z0ayPbrJBGQl3IPTyh3+mqGgIaTlE5cMqL19NGyALMlTs6mxJnt8iO7+h8tKjon1NF9QVBqFdx4JRuGOb2I/n81MnGlMAgue52TQ1ta4iiBWRhZ8sBD15Hxf0n8vkrlpaFL306NJe1TVMWveE1DYERM0fpBDx9SGA8u6OI9HspGdGAbGgisuuw3OY6VeShvIi0bSprz05c0NnKqNDwVUSqV5SnBusLLKrmbtxcF4Pfi9i5ogALrH8TRWs9NlgEAsHfjRBufiER+iSmwyA7Ni4lo2B1qdLqmVKqgwSmkX0y471nKFwUwWXbQXlIhcoqlkqO8fNceJvw/mT8S97ZNUg6x6NI5zTGgklyFN4VW2QNAnWqZA9CATjrVjXekUeFfodcueUzPr/+QrOUCC/vqG2fyGBXva6Ix9NCNjSEu3SPiBv3ZUEoVUrj2rjsWcj7a5JoC6NRQQbBxKShssYlIg1ryI6/yClhdFBbExKq279hzTQonC8xPvqE8e9F12tW9wkOSoJnRGHnd6ZWu2f8LOxUBMaoCAj8ol0CpeVrTFviItVpiSY9bCUB++douNZse8vnIFup6NqOCQSCH4cQbuIQ9BK/Y+nPwsIiSZC4daQY7G9Y4Or+osoehvzTSNZ4WD71x0MrueMuay5rPEb2zcIvehe3IK3Gp2MLQw3J5ds+qN7GhoWsVg3TYv/aArC9Ys7nNAbZ65CNhwrZrhANa6Y2cMoVHfT73xTJ4391iQr92UzGjlOX5MnkOtRO//tEl2+jd2k/ldPbi+Lx2RIoZZaMtU1+/uEYPdsZ+SpbxjhmUVxk5AwnOLoEs1H45EVvcOvh97vwn7/GlT8CSGv47EUAzOo8UUp+HCcvfcTCf9/xOciIv1ILw5mAAoHg5yOEmzgCdbz0Ek+U6H9sFNuqYTpkyZhIEnTiRZoCrJIxvexpdMpiF2xVhm8GdycX6YB5Edn7Js2meekoTyuvUUEe3lDpPUa24aGp4Ysm5UKZEqZInCg+n9MY5Jk1jzIcQtPDl296y+m542SNTkzQV45YSh201XnzKJeooOneaj3GjlOXC7tl4bBAHtnYlmZS/UxothZBWjVjRJzB9T2kSpEAB9cVYmPlK/uK8v0gWZZm4/3O0P/h8NmPypbM1v26WEexRR1GVSGj7B/N1v1f1zIJBIKfjxBuYkh4DIxNY8JnZWpw/WqpQLFq9NEXBIxBs29OXfZBujQJULmMbHtCmhSSURb++xYzV7xB0iTxUKuy4dCRqvlQp4ZHh2ObZUPmzkNfYsMeD57JRYa0MUV/6Oe2MuU8ptA15sspB8b7pMwG+xpkqEssXi/PSotI/wkOqNrqqVYjFVvG9JeHo6IytqYZYoQ6vT42dB1uj77jdQbmdC9yZU8Mx1uleIbXc3vDKNS/EgpWGHHI8FvQ81Eor/zbqpQo8v2+e8gnUUyo/s9Tg3b/q2fUHRXqcyYQCH4dQriJIRFnodBIx5b97spW7DFJIP8UZK+hbzNBwwvtB73ktF62Fv0OoHp5Q81MjqyyluX2Q3+Ut4g6cJ2+0TBh/SLqMP4keOXLlQgPrD6zDcjKGTE3JFYpX1JuU5fhkYUAGkor29hKO4U9KtYohsx1OkSeNk5CCglhqqamVPFkPEz1+FlApMjinl6hOHvVh/fVNyj/lmBpjGRJZWGPfM6QhkufEL3tqAybo8PjZ/44f80Hz+wMfyt6dugayKdOnMHIcxsdjm6SBWmiZLFkPIPxe1k1Mw8K5Jb/MzT8O3vM13+D8AhKNmP/wYj0ap8BZUrIzzYN43ZvIxu2CwSC/w7hoVgP9YuSfJPQFN6IVG/zFM6uIdzhJTKRez0yqNUnoodi0pjYXIpsw6KeS3//fJUfaV+m5JCNfhkyOqXpxmRYS75YaMqyPlbPP2uHIGjKub5G5L1nCCooDvIenjLTet9V2XrAHdOXunKaZl9RhxjxejYuyotaFQ01DN4+oSjZUDbWjXjOmELaEhIqCLpXpH2i4ZwQ6bpJA/HkXAmecUZE5aG4SbfnePYykH8XGhJKI12n27sQ7uQzpE3AHoFVmyASmvJWlg2m6XwZ0iVkZ4oBgfJ1R7ye7iPtcfWOL2vByFne7aPk3TkB6rS3wSvnIBTJnwSnthVR9tZBPolI4CJFH91b8hxM10W/J7kHOLO9iCQkysNkhPo8zB2XA+2aGnaGZDdV7R8b9jWkTuWnKfr5qsjXQc9ilowm8PscrnU+qe9h+lejf89VfnQ4C/X+EfTrOf6g+qu0esp+r1TG9s+Kfp1lH0oCgSDuEpe+7+I853cVRepUsrM3EgJUQeDoRtlvzfdybpduGjLVTR1h1XKmuH2kOOf5+ofzl7k+ZoWTsu1J0iSyXxR9aJqy6vE3TarIM4S6/ZMRCybK9jKkhVGvZ8P8vEiqOK9btz2yGj614qyPTvc9gg2xdk5erJ6Vm9OyAXQICzZULRnLqoLN1zixtQgGdMnIv4uv/xe8fhMsa2Ckr+a7x3WCDUHpfWvIr498PtqXBBvS6JzZXjjS9VD7CBI69QU/zTfUEXlyJsYt5Xeje+ssXZc6O+rW4eIGgk1sIDus7cvySb+9LAA7SdehCjadW6WLM4KNQCAQ/AqE5kYQY2j6bJGaT9i5nOqXR0X/CzoqyIne/RPf5/lZ8PsgNDcCgeC/Rgg3ghgzZ+UbNia+f8JMElQMh7r2n/D8pjYnadJ4aFQz5nGoBD+eN++CDabG0/CWvqYrKui14fZe1+nztHtTWTtIZfoCAW3TsJo+1w/qPEQT9BwlTmSopfP1D8MnX52NW7bMiVjjZozoCjcU8oN8A6mQfVXmDDojY/JJox/SpN0AO7z10M1669UuA7q0zqBsyUOO6qxFleDgL/DwMpwpRz6UogvdLwrrcejMB1y74wuXt8E8FEphUfLmTBzjMCf6vJHqOnrOix18ktaSNIDlLJJjaI8syJrJJFaTAwSCuIgQbgQxgnzqtOprx8Nhx/QMPgW/JxE1bY/PmiFVim93nkHB4ShcQ+cjZnTfLBjQVTb41bcHii7zxudA2yaGtkZqtHkVh1sl2R2BMaIr3MyWBPONkmCuElGLWLz2Y/gHRLAi/go5s5ng6n55+FGFQmMMmKiL7UVNplls0YGcag6e4oSnLwwD3+qTP3dinNtJQ9hRSHpGIIP5IVMccfexHIokKvp3zoQx/bMqWwLB74uwuRFEiz3HPLkDIcGGEIKN4EfyvbZbsUWN7v6roRmLrfq+YKeaXxNsCIofR16pe4+JXly3YdMdOVDrtwQbYu2O9/w/t7aNesakQPA7IIQbQbQoUTgpB9qsXTkFrC8IexnBV5DkBRru0S5GRjoMyqVF3/P1r4RmxOm3KyIkg+mXkzH/90KCTc02z2AZIZAu3ROaKUn/O5opGZGLNz/xDLmvMWa2E46dM4xhRteQQqqP6iXNlTG5smWfF3B7FzkenUDwuyCGpQSCv5ifMSwVkdgaFP8Xw1LUwd87YaZsRSY2BsUxHZbKW/mRdI+UDQkyebK7XlISCg2vlV7Vm/a6S9dg6ITS6nwJpEgeeTakseFB8kZuzGlnQGA46nWyka7V0FboRxt+CwT/FUJzIxAIBL8IEhL1BRvSBJEvq4iCDUFDd73aZ8LEIYYBWTsPtVdShtjaGw5vNa6VOkpv5GRIfP2goe0QMX2pLviuQPA7IYQbgUAg+EUMmqzT8BCHNhSEafKvj9H1bKubrUXY2AWwdiwiSzbKsd9UBnf/uodnEp4K5zP0v2T/OkhJxY6qzY6i76hrylbcg7Rh1EZ3z7gTrkTwYxDCjUAgEPwCXNyCcemmYVy14gW/HT+LhJAUyXWvbnIwuXlf5GCdFP5Dn/9F420/Y1R2HnpTl0Y1vy9O1isnX7x5+21D5l8JtTFML85GFrPtvHwvJWsfQKFKe5QtwX+NEG4EAoHgF7Bup86eiMibM/q+cCYMNhyaOn3FMII6QeE69Fmz1fB8xihtZso2RerSvtl/Hxfr7fvPP0S4iC2tG+fBwU11la3o0aTT6Uht3rqiBgZ2N/TnJPjvEMJNLHFx9UOuUju1Un7vkVfxwUuoNmPLR58g5C2zS3s/s5XYDiubD0rp7wOpuZ+9iNzRCAQRORphFlPnlobDTV+jZDHDQLgUDDYi7ZqmU1IyR897s+H11Ts+8PP/dhT92EDP/0tHH4SGfn0WV3BIOOyl/cLCou9TSOWdRwALQLElRGqb3SsfBAQavwcr5lRGxTKRjcbDw7/AzsEHIVLbo4NZkXQY3CuyHRPdIxc3Pzg6G2rtjOHxIVC6T5+kY5SMCFBddC0+vl+f2ebrF4LPAYaavD8dIdzEAvpDVmx0BKHSevW8Klg8rQJOXXDBU1vRqcWW6s2PIzA4nO/n0pkVUbRQGixfLwfn/J14Kgk2dducVLYEgqghT8b6LN/8FhWbW0dr6TjkpXJU1NDwVfFCkWOYdR/pALO6Vug63B47D0cezootOw7aIZv5Dv4v5yy1C/3HGLe1qd/uJHKX3oVq0n45Su5E18GXlRJ5SKh03UPaNC365C+/G6VqH+R98pbdhRPnXysl0cPB6ZP0UboLNVoeR75yu3HygrNSooPO2bL7WWVLpsugS8husRM1WhxHLqntHfpd4HyakUb7P7KWP8QoXa35UU6Pnn4H5erL16ISHByGrCV2oHyDI6jc5CiXv3U3FNSojhUbrHlYy7zmAam+Y6jUWOpvIgiMA8fdQHbpftO1FKm8j/fXZ9ikW1xXr+FXUKjSXixY/QTDJt/kvIjUlOpo3fOcsvVnIISbWODg/ImjPd8/2xItGuZG+5b5lZIfBz2AW/bK0b5/JfRlQG3x9fu5Pi8+fAzC+CHmfD/bNsuHiqV/fPweug76avuRUJ0vpC8nlbw5U6BRHTlyt0DwNSLaAHt/Cmc7megsnl7R07wc31yEg+8a4/o9X0xe9Ia1OYWqW+LYOS+lJOaQQfPYGfeQNEkCXD/aDHMmlIWl0uHrM2LKLTx74Y2xg83x5nFnVK2QGReuucJVscu5crgJ9m+orU3TQgQGhSFPmZ3IkS05nl1vg2Pb6vO5+o66zu+o6EBCRJVmx1BM+nDavqoGdq2pyQLCt3j4xAMXr7uhWf2cUps7oWWj3Lh6+x3OXHJBPKkHpTYWKZCK96X05mU1OB0R0p7kLrNbOn9q3D7ZHE8ut4bb+wCUrnMo0jXMX/kEpUukx4NzLTGoRzG8fuOHRh1PK6Xg7SOnnVCzSla8te7C705PryDMXmro2oE4f9UV9Wpkk9qYGtNGleG8d3oCVZAkcNE7bPRAcyXnz+CvF25s7D7ydEz6sUmdqkIP2/OX3rB+7sU/voqvfwjuPZK/dpxd/bk8KqjDpnJajP0B/aS6qOyZrZd2tsMnXzmPINWrrb1OdU11eHoFcvlT6ZiIdVI+/YHc3n3mtMNrUmfK+9C1UZ7rO3+jbXklfdFQ+XsPnXrbycVXq42ysfM2KKM6SLVKxzhLfzT9Oqlt1AYSJKg83MhMDhVqL+1D5MmVkn+PiJA6lfb5pKd6JbU25dFLT4XaQPeL8j08dW2lOtVzPJOuh+47QXn+nw1VtZRH6mcVqpOGmSifrkuF1MVqnaReV9Px48fD4J6RVdHuUntoH1vpmdKHzqUe6/MpmNP6v5tA8L1sW1oAr26UjGSDow9Flh82/TULOgWrWcb4+Rsx9RavX95pj3x5UqJbu0K4d7YV56mQxrt8qUx4fqMthvY247hWe/+tg2yZk6LrEFl7UzBfauTJmVKbpoXw8AzEvEkVcOlgU6RJlRhlLDLA6kobLnNxi57BcvkGh/mc5/c3Ru2q2VGjcja8ftRJKTUOvXuadjmLS4eaYO2Cavz/XjW3Cm4cb4ZeI66ydozamCSx7GeI0nml95gxSAsj7S6dvwly5UiBDOmSsrCUKUMSzFpq6I+oasXMWL+4OrJmTo4Jw0oiY/okLBSqOLz2xVFJwNu+qhZvD+5lhntnWmL1FsMYboSzZSdsWV6TPxpTpUyEVpJw1mPYVe1vvGGHLa/LlTQMgvy789cLN617nseCVZYoJUnP/UdfV3KBIlX2oXbrE6jf7pT0xbAb2/bJWpQHjz0xbtY9TtOxVG4M6ojNqu/nclqqNz9mMF1zyMSbKFhxL5fVbUvn2MX5t+6/09a5erMNOvW/xGli8PibKFHjAJfXk44pVm2/UiJD+cfOvkaZeoc4XaXpMf4yoS8PUhVTXtl6hzF0ovwiUqnzzwlUlb5oqLxk7YMYNe0250+cc5/ziFY9zhtokujaSbVK5RUaHZHKdSpN+sJYsu4J8pbdzeVBegJIRO4/9tCeo/eIa1xvREiwon1u3NMZRLpJgh/l0Z9cpXDlfajVSv7NzGsdRDflhan/OzXudAYPrTw5TXmPnxp+XVKevsDTbcgVHmaifLrnnQZc5Pz9x15p66SvRzX9RhL41DRBL5D2fS/AQmoP5deSnqm5y3UvMjoX5a/e/IyfOUqrv5vg76JetVTsiyZWS+2vz2qiTn36yBx4ftkcK6bnRoWShjY7+oSEalCuibX0v42+lvPa7Xdo2zwvd/ZRkSBBPLRplhcpTE14SJ/sFmkhgSE09Ou2Nzmzm/KxBL1b6ThV2xNdOSwsTIN8uQ0Fj6hbK2P9XP7YKpzf8P7mloSTZ9faKlvRgz6im9bLqWzJ0P2qXikrNu6SBQyVqJxVqtSqkhVlJQGP3i90H+h+eEsfR8aI+Jv07FQYVjbSR7vy+85f9ZjXfxpiWErC4bUfq/YuHWrK2zQOOm6wOefRcud0C4yffZ/L6KHat15Wm9IXCJVH5JGVB3e0bladtXUkTBgfRSrv5fLXb3xx7Mxr2N1upy0f3s8MTTufRsPaObV1zp5QFo8utub0tdtuOH3JxaDOLv/klzrCowZ/bhJA1PL1i6viqHSegZJQpOaRuvjgSUfWFhETZt9FmtSJteVU/+7Dr1ijsntdbd4mXtxqi/FDSnJ6w47nbMCmtoXWdg6f8OSZTlDYe9QBztJXEZUnSxq1x9vaVbPxPsS1Y01he7Mdp2NKjZbHpJdrHu11OD3siKu33sLbJ4jrVM/x+lFH1JBeJtGhrPQc3Hn4XlsnLZdvvsXUBQ8wqGdxbZ2XDzfVpiNCAigJZ6SCV+tYuekZCleSnwWV/NLXrlq+Zn4V/t0EfzYR+6/R/bJg5cw8sVtm5FFq+TpJEsdHkzppsHtVQfY+TIvtFXO0aZxW2UPG82MYCtd8Ak8vnXfmr0FGtvRu/Ba7Dr3kodxugy/jwAlHXvz8v23oSsJQhYaH2cZk8Vor7bExxSRhzLo8fc2wPhQ5P3Wq6M9uUylWyPA+E707Fv6mcBcRGmmg+0i2NvuOOfC9oD4lOpgXlQ3NR8+4w0IROZHcvKw65/1JCOFGYtQAw1hJb95+Rte2hZQtIEfW5EiV0gRu76Kn/hypaD70JeYOrfLBV/kT7zjwUhJicsA0uQlvE0N6FZck76hfJF2HXMHaBVUM6hwzyII1Fx4fdEMwnVoVUFJA6RLy7IuhvXXDJKrqkYabSOqnP8bcieU4j6D6y5XMgJt6WpKILFtvjU1LqmvbQmsaH74iCWAqTevl4hfAf4Xdq0+YPLy0sgUkMomP3p0L48T5yAaD0eX+2VZ4eaeDsqWDhg6ji7dPMMYPteAv5/+3dxZgVaRdHD/7CaIoBnaBICYNdrfY2IG51tq9tq69xtqxtmKD3WsroiIKqIgKkgKigkgIgqjfnDMzN+fCRXB14f09zzx3uu/Mf857QmTSSCuI48Sjoum/ddMKQh8KPlaVOTegl1f5/3HjbsbRM9+DfHp5YNnMimTVUWXqYu3+P/jxhlE76YEfTFPn34VzB9rB/s0tYfJIa+oMi2YsEvYcek5uAPhxsmBabdmymUUq2WF64LnJTl69UY/y2uPynEpuZIaBY6+Rf6LfrV6yczH6V3Nhasbg8+jspVCYu8yThps2KEu/OQkmbjgU76tEIVyuYs19ss6k1n56ofn4yn0u0sM/kH9IKa7jjxX3aRyCJsGqZrwDmggKBLdTjsKQOmhSrVJJfRkk/FX6YZH4ohcR+/Evjl8LyR8/Q/NuGAEg31dPn7dwzV25fo0IPhxQhDXtqrzM1VsRcN+bb+4hMvlnzQ4UBQQya4I9DOhZVRj6Ni7deElNhviVhB3ylc6e9rRvqWyKrmnF+z6gX5IUP7JSdfLHzB0b49vRy6v8+L14M31x8L1Bq06rRsrNNtoKrrr2JWHV3+lHN4rh2zYWyiHq2oSDL1zFPz+xCUtE8eNAG/D5oNiMjWS0hupV+OYo1f8q+tx1UHDw1QZd3f+B82H1KDe0MHfroJ3lDcHjRj/AFtxHkPgOQNC6pS3jhlpASuoXuMl9xOKHaT499dpk/3WYuFFBVNAh9/spdREPB0D7VsovqfTAP5Li8mFefLMEUrCAbqa+/kU0/ZexLTsrBN1zUtrXcJ/+sGJefWGqMuJ/KdBDeRlsdsGvsR9JJp91GVK37VEYNc0NgjydZE1G34KqyRmrQCP5uJfJj0Yx0y2yx/W10Jc+nz5l88nOhRzdqiy8PbyzL5PvZudX5BwsdokZVA8X2brMTOjLHJuWNab/n01zF3Lmv8Z97LTrK/c9Q0yNC1EldWxKP34uiJrQMbQ75GUihEfKxUNxw3z063IqEPyEAIMdQgTSvOX3wPvxW1i0+gGFVCMYXKAN1451Ir8X9GcTgwwq1TogTJWmaGE9WL+kAfkxbt3rR8JiN7ffti1coUcnuSCpUI73YcLcXPhBJAVG1+J/f/T0m5TXKzk5DUxr7yeH6DWLGghzZQwKGse2FWHM9FuwabcvnLkYAk4jL4FVU+VQ8PSYPNKGxBb63bhsbyWMzVkwcaOCfn7eP0TVfJmZrwR76+KU/0AVcR22lsUhIDiO+kVwe/iH0YRx+QLgeuqFMMQjRnGZVSxEv5kFb+5CBrpqTVDpHSv+scqU0qcwxH8LfUEEoFlb5LPEV4rqQ27mEg9wdnkuDEmTXrKxsIgPFKWQVTbt8hX6eDYJEQ3FimZ93VmlRhV9oY/nwnXl+1IKvD16j8k4z4oICmKFD8z/FKpNR4lJmp3jM4upUT7ui1l5/et2KteDSg9MxHfuKjYvCyMUKF1S3uSNDJ0qXVxTlW9N7odN0CMHmcOb6I/kzO806orS/xXJmzcP+FzpQdaT0dyLGQMWqpgWho6tjUl0iOB8psYGlKelZQ8+ZxT68/TqXAm27XsG7Z3Ok9BYs7A+6HIfdtq6C6Azscu2VvTsasWtF533fxtYQ5iqmW4dKlFEE1rfUVDN5PYbXRUUrcLrlzTk9vt/0LbPOQr8kKJUCX24f6kbt/0QsGjsApXqHCAb7Yndbei5mhkw0SA+vxet8oLhU25Snh30DUUUoz01gdfLslpR+l/mRKsNwsSNBHvWN4MKtnth2XpvCmPGlyTe1Nq21x7f7UBfH+gAh1mL8WZD4YJJoxD0r7nqFgHNupwkBX/oxAtq+vh7RWOaLrJ59xMKM0ZunHCEtdt8uT/kGRIf+474UxTXqb0O6Trspgf+oR5c6g69R1zm/iA3KKoJBRQmq0KzqzgPspD7E2FoOHLrtCNFe7Xpxe/L+Suh9AXmdlf7B3NmwIR+BfV1YNpCDwqXvn47ghKAKXLZtQPtw0ZBSGA69N2Hnqs1S7meDKR1iPQfc5Wchs9eDqHoNkVsLIpBUGgC3LwTCdfdIyjpFoJNhCJN6peBKfNuU6i3FOgcvHmPH3QecJ5eQuu3P4a7D15z9wg+0ISZfiDDnZTzCYVGpEBScvpfwtWbeYGfv/bZuPEeUhUJ/xVKFlP+b93zSb8JODPgefG+oOw3snr7K2jb308Y0szgSQGUiG/07GCo3PgBeD9RfsF3cSgGJYrJX1oe3H73H5+xIK3b+bHQx9OwlnSOHCnmTLKXWTixu3W6C/2eO9BemAOUghewO8tN27KyCfUrIi4rjsdztXphA9k4tIT37GxGYc7NG5anAAex6Viqu+0ZRetpWKeMbB3YTRtrS7/lSstreuHwsV0OwhCP1+UeSsvdOddV9mxEsLkMLdg47dntPjRuxbx6auHwZUsVUFpP4D0nqK0Sgo3jVa3g3pwoxPEiOtz2xIAN7J659+E+gA2oX2y6Q2uQ4jKqvHufCs7rmwtDOQ8mbiRo1aQCdHaoCOu4FxF65x88/oKijLR1kMUb7+G1HhQFYNXMlcQC+tiIzqn4p7hwqD33ZfOJFPxk7uXYsY2xUp6B2RPtyFTbcxifCRObnvZuaM4JjAQSWr8vuAu9u1SSOQ1/KyiM5ky2p4RUprUPwIQ5t2HUYHMoWVxuVbDlXvL7jwbAFu4ljWBOh5Xz6pL1Cfdl6KQb3DkrD43qfh+nNDxft7mvksIGeSlcuu9vV+DKkQ7CVJ4aVQ2hO/eFtXSNFz3M0NR7Yk8bYSoPWmGmcufNW4jqcj/jSGZnDHMfMcWNO5/KJvmz+9tBS+64UPz1HXkF7K2Kk1+Cp488q+uKufXA63E0hXpL4djWhCIRMElWOWtnEsyYM+NnySnRrJ56Tg6r1j5wyzOehKtI6qcvlOTNqpUP5UTJLJWM+aYGkeHTXqit/2ekQlllZ1fPh4nkpyaS2SgXVdBhtYC+8mP4WWAy9B71nPvAUG+6Tkj8DGPnBsJ1BV8YjHYpqK/exHlsqzwoArnlmQDLN4dL7nNM7CcSP0nJytMWTPlvJKQsUkhP9qKX6qTKKeRm/APfUyJATAKYU/mFe8Bk/kmVS0BLDTppYfigokrPDBgiiSdY0alXBE89rh/FkJRwwocQ+u4oTsNl0BEM90lbsaUNuN5Ubr1o6lRdL03j9kX1PGi7L3OX3YPt+6WzLeODR1tk28vLbU/D9cBrhvuKzpqq10w8RlxecRo2Z6V3jVNSPpOvgKIzoyJUa4ZbNK+uZh8abc/Vj8DlzFuYtiRMGJKDh1uksA53j37lhHj61pypI8rCqIFlhCF1jnPCaNJ85VBVzO5alFt/XHwaJ/YMYN9aeaQfsn5XJKzaJm8yDXS303jd0a9EBOcIum3PD6iweP1L2H5QLk7RMuNx2koYUgfvpapN1POA6Of/H/e//QXy5fsfeJxSXv78tVgYNUsepoy7HOQuvT/Ie+74a3V4CGkSLUL5ufWXLM5bj95Ef+KElbow2bmyEjSrrxxsIFK5sZeSpVHEsIgOGBTk79fod5/gQ5L6ets1KwIbF/O5ZRg5g6SkTxSxRmUruPsSLWA5FWa5SQd8CaEo+VZhg2D7sZSwQXC9+ELU9LKTEhq4DH7tZfcLEterp2G9NE3iPGi7Lxi6qfolJXaZQbY9lf1QBPcF51HdV4SOQ2JaRtcYl9EkbBC8xukJG0S279l83bKDnh1KwJldyl/5CDbdx8SmqQmbapXywfPrtsKQdnRpo57fAy0OuP609HXTDwXF6LIZ6tYLtHDEJ3I7zonWrFKkkA4E3LSHrX+qR8ygmAkNT6FOStgEcYJPk7BBAm7awdLp6vv/7n2abL1SwubWMQsmbHIg+KyqX7sUuO5oTc1aORkmbhgMBphXLQCzx5XLMN9G8/qF4Pxec7J+ZRaPU5Yya8F/iZ4dS8DcCeWFoe9Hq8ZF4cjfVaByReUmPCmG9ilJwiY9US7Su1MJOLKlKlQxzXi9jWobwFNOuJYrnfkEdYyfH3RvcOpWhZrFtbl3/suwZikGg8FgMBg5Cma5YTAYDAaDkaNg4obBYDAYDEaOgokbBuMH4eGdAJMWBMPE+f9eQkQGg5F1MMp12OTrYGy3D0ZNuwlej94q5UFDbw/vx9FalZZgfB+Yzw2D8YM4dj4GJi/kw6OxOjODwfj5QRGDCUMV8x0hz2/3lhVDTvv8BYxs94HvjZ6UuJDx78MsNwwGg8FgaIllk8MkbCIe8vUCxU4UNoyfAyZuONp3HgVmNdpBGaNmMG3WahqXv3BNiItLoP51G/bDtJmrITDoJRibtQbrmt2gvGlLMLdxBCNu2Mq+Gzh0/I3mffXqLYyduJQb1xUMDOvAlWseNK9x5dZgW7sHzYPrxWH7uj2hcIl6NA7p3W8qlCrfBNZu2AeFitelcWhYK1C0Fnz69G01XzCBl39QMgQES6fLx/Xj9MjX0oU8I6NSaHrUG/XpuOyLkGRwvx8Pl27GwnNuvo8p6mbYl5H8OjRtA8H9w3mkSlzguKCwj3DnQTzc9Y6nbWYEFqgL5Oa77BYLtzzjaN2M7EcszDhlkXKCPsaPA0sziNeFkb2gRSY2LhUwAWVOD6X+r8PEDcfV6/fgifcJiAy9Cv37dqSXtiby588HD+8fhfCgyxAdHQthLy7CowdH4cbN+/CWG0YGD3Tkxh0D9xt7YRwndF4GXoLQgIsQFBxO03V0dCD4+QW4dc0ZjhxcBcnJfK2j6tVM4XX4DRg/ph+YVCwH79/Hw+27D8GhdUNumW/LD4KZddv084PWTn6SAmfs3CCa3rSHr+RxN+jqS9Mx7bwiTbo/BtMGXtCqrx/0GxcAw6cHgQM3X/Vm3tB/gr/SulDc4DpwGU3nFvcP51Flt8trqNTQC1r0fgJ9xwZAn9EBtE18cP+9j68Xo8rUxcFQuZEXtOTmGzYtCPqPf0HrxmXa9OOLVjKyGc1/Gca/THZciqTkNKof17zrKWjR7RQ8f8E/21RJSEyFLoMu0Hwtu5+GmHcfhSlysJZaaHgCfEj6BD2GXoS2vZWrhWOtN1weOx/faPiSzvNXCqzE7e4ZRXUAMfMurYvb52cq+4x+MjgfFul8FhBL89y8I8+Ajc+mBw/fyPYlUKW4cVxCCrjf4585mIwT14V16ZDHfjE0rA3nr4bJtoE166Q+6FI/fYZWPU7L5otTKULKyBgmbjh2bVsIxco0hG69JoKenm66ilxpkup8wp9SzKCbJ08eEiWq64tPSIQS5RrDrLnrYc8+LADJL6erKy90N2pEb3DsPh6GjpjHiR2nLH0lmAlJwU5efEe/irh58NYpTLHv+1y5+KMoRDCxW8dWhtSP3PSIg7BI/s/2W79ScGpnNTi3pzo4NOUzpd66lwBrdsiLaNavyVctx0y06ESriqLgUczgu+1gFMxfwwvClg0Lw99LTWHdAhOwMeeL3C3bFAGXb/GFRUV2Hn4NR87yx9mxVVFKXrZtmSktj/gHfYTgl8yKw2Bo4mNKGhX5PXI6iGqiPQ14D826nqaCtYq8evMBqtY/BB5eb2g+P/9YsGzqws2vLCqcRl6GNVsfQeW6B0kcPA/k/7P4vx8zw43qxeHy2LXrew6sm7kqPRMyAuvs9RhyEcxq74cRU27y6+L2uTm3z4r7kpSURvMtWOnJCZvTNE/CB/45FssJLCyc27H/Bdm+NOp8Ehp1PC6rxfWUO74+Iy5TP1rEcV3iMBZXxuGMWLHRG4ZMuC7bBtasM7LbJ0zlQcFU0X4/PHkeK5uveoND3HHeEeZgaAMTNxytW9WHhBgPWDBvNDU5iX+sTPy/MsWgIbMhOtINVq2YCiOH9xTGKjN8aHfwfvgM3ka/g0YNs+ZsunBKBfp1OcMXjBSJiErhU8gLnPhHWfycvco/GAyLykUXnpshU15Qv2ObojBtVHmwrFYAqlfWh81LKsEITuwg63ZKf8UcORvD9yhw4MRb+rUx16dfkSXr+YcpZofduqwStGlSFDq2NIRjW6uCrg4vgkZMD6RfBPdt8XpeDK1bUBHWzTcFe8uC0LJRUdi23Az08/G3+/Df5ctkBvyi9HyYAPNXh8HhU285gZei1T0Sn5hGy81dGcqd4xj4KJFGXxP4YEWL2x+rwmCz8yuqAyQSGJpMXXrgtk5ejKFtoyh9JdG8mFmwarjqthXHfUiS31Oh4R9pXNQb3joZ/ioFdrm8hr3H5PWdRPD6RXDTV22LgLl/hcJB7r54915+vKqI61bcD+zfdiCKjtc/KEmySKQqeE6wWRWX2XkoCoLDNJ/TtzGptI23Mfx+YTPssxdJtOzfe19xy6pbLjTxMvIj1fXC++na7fcZXhvxWPGc4LkK45bH7Z6+zP+nxOmKjq7iuFfpNAmrUr/9cSo7ceNEJ/IreeHRF+rYlaSCtVhnDUHLQu02x6BI4bzw1L03zfeM+zUsqgete57hPuCUt3f4RCBUNi0MPld7wL1/+ErZa7c9gmNng8HEyABeeveDcG4d9WuVIuvPqGluNE9msKpRjJx6X/r0h1N7HbhnxP+gTa8zwlQ5uw/7w1CnalTcuGVjPvN0rdZHICY2Bfp2M6NjCefWUdu2JHfuEqBeu2P8PDYl4YlbL+rH0jgBd/vIhrXh4vWXsHrLY5g3xR7CvPrRdn7tU5UsN1jIUkQslhx4ry/NE+zpBHm4j759RwJoPEM7WLQUh2HpBtClcwtI+pAMJ05fg6T3ntCu0yiIiHwNNtbVwPXoRRg32okERwfH0fD0EVpbAEpVaAqvX16nfvTRwSaqtLTP8PpNDC33xC8Q+g74nZqxEPSviXt7BxYt3Qpe3n5QsKA+HDtxGYKeX4CSJQxhybJtMHPaMJoXWblqNxgZlYae3ZXL72cWvMTYhIQoRuX0HfMc7nglwoH1ZtB3LC9YFKe37f8EngV+BPfjllC2FO8sh39EvwDewmNeRV/NooRfNFisDwm8ZSezxKz4Oxw2Ob+mfsVt4L5ZtPCBJO4l/OSKDejn55vf7nNioMdIf+qXiiTCYoO2Dg+pX5z+hnvh1On4iPp9L9tAAZVKyT5PEmG3C/dS5XZpzR/qdXw0gftYr/NjeB0t/aJdN99EybIlgstVberNvWDV/2J5uF1bNNUIZvzJF6xUPUZctmb7R1QDSIpFvxvB7OXSyyIoiNoN8NNYt0nb1P1SXOdexIOnaBaIGxaaQPsW/Pmwc/CB2HjpnRD3G48Vw+FPXpRu+kAU7yURu7bcuuP4dY8fUgbW7pA3MSiye5UZNKmrXv3cxy8Rugx9Lgyp07CWAexVKeaJofvHL7wD6xr6UJwT/Vfc5dW5FTmwvjLUs+ctlorgsa7aFgkbdkuLf7wvnNdUhvoSy4o+NGiFvHxL3mSSV/cXeH7DLl0fmzq2BeDQRvX6Yaq4nHwBE+bcppeq6v2B1fZtLIrBuQPtoWX3U+Dn/17jfNgcLhZlrFR7P7RvZQzrFjekYRGcr2xpffDkxI64Du70UHMMWoG0rT2HAubx03dq8+OzqrzNXhgzxAJmjreDuPhUqN7wENw67QimxvLz+/nLF6hgsw9mjLOFsUMthbE8vYZfBLe7UbJ1Y5HcijX3k/gLUajN1LHfOXjwKFo2n1S0FB4vFkJ+6a1crBKb84LD4jkx40TDOF+lioXA7ZQjDSPRMcm0/jbN+A9VRsYwyw3Huyh36NShGQz9tRsJG/yjnT+9GZYvnQyjf+sNbyNvwu+TB4NRhdLwz9ktwlIAHm77hT6AJ97HwdCwMJTgRAr6ziCVzYzgzImN1I/43HOl39kzhkOTRjWhT6+2nNi5Czr4ROMYOVz5K6BBfRvo0K6JMPTtaHqJobBB6tmrP/hRpKCwQfAhLoIvGIuqBajTtF4p+nUtKfQp8+hZEgkbPAWisEE2OvMPf6x1IwUWGxQRLQUlDHVlFp1RswLpGBSxMS8Ia+abZkrYIOhHJAqbrm0NYcVsYxjYowTk0+O3NW5eMFlmVMHK0KKwQQfEwT1LUlesiA585nZZFDZSXHGPUxI2A7uXoGVthSY5UdhIgb4H6MMkCptfe5WE9Zzg6OIgF2A1mntDwgdp0ZERphXzwfzJFagTqW6WXzbOopqyBU6VooXzQGED+bUeNzdIJmyMyuWFbcsrcS94Mxg1oDSNQ6zb+Ah90ojCRjzH/buVoGFk0KQXJCoUefvuk0zY4L2H53f9AhMY1rekzMJ3yzOB+5qXFrQP/ZJI2JQtpSvbZiVjeT0m9A+TYuayUJmwwYrfI5xKwcrZFbn/R3Hu/8RdO+6SOHHLYjOxJhSFTYliOmBQgD+X4vlX3A9x3IBu0v8/VVxO8qJV6r+NL24UNggKG5xF0zNA9b9nUICvbC4iXo8m9cpCUAj3Yg+Ooy4oJA7y5ZPfG1lBFMN37/MfVSKqIvmGO9+E3raleoHRSSOs6VfVEvWttGthJDtWsTOvVlTJ2laooC4Ecudkz+Hn5PuEFC+WnwmbTMIsNz8p6P/jfscHosKuCWOyRtOejyE0PBV2/WUGTevxYga/9PDZFORuD85HXsO8VeGwfx331VizEPfwTgRH4eEvZRlAX5ffZgTSw1gTql/bjkOf0kth/K9lYMLQsjTOhvuyj+O+7J1Xm0GjOnKRld5XqCr4MmzZUF4ZuUGXx0qRWXiMYweV5r7uy6o92DJCtDjhOu6ftQZDTpgocvxCNPc1H0r9iudp6YaXsPUA3/SyY0UlaN5AvXJz1SZekCqIH8VlsbmlaU/e8blJXQPYvUrZeoD0Hv0cPLx5cap6fao384KPKV/pxXvrmKXaC6j9QD/wC+CbXqSubWYQr1O3tsVg5ZyK1K+IouXm2XVb0FMpuPngcQJ0H8Fb6DzPWEFxTqAqkpCYBtatH5JX2uiBpWHKiHL8BA5Fy41Tl+KwaKox9YukpH4hYYpPOIcmRWDzUnmVa8uW3pAoVMOWOgearo1ouUGWTDOCPp3lIkpEPCeq+4vNk3gsSG2bgnB4U1XqV8SqFYpO6f1S/E8EunP/LQ3CYtCkALhxl7coZfb6dhpwHu77vM3QaoLWhUIGuvDMvY8wRg5OQ8R1oOWmt6MZLJ5Zh4aR5I9p3PgDwpA0Ge2DiCbLDYL7gs1VFw61l1lubp/tAhUryD+aNu70hcVrvCDUqx81ZSkSFBoPDTuegMNbW0KjumW/2XIjWpHSQ3H/cbt4Ld7F8s25iLgPDO1glpuflAnj+kNEyBVhKOvMn8R/lVy4wX8ho78N0o97KSA1rfk/+ynB6XjuX7xloEIZ9dwNGG0w7He5sEELRufWRWH5TGPuBaP562LDQt5icu2O/MsThQ3SsLa6GV5rVOS521ELJf8dfLmt2xUFZo28KJIqM2wTBEp/7staVdggjm2KCX3K7HLl/YgK5P+fpLBBFk5R/1JEdhySf2nuWGEm9CmDTS1SPHn+gYQNcmhjFckv6zV/mAh9/y6qwgYpVFAHNi8xpa6YgoVQxICbXoYTaUh64fxS5xK3V740f/8mKvgBIWLKAg36AKb+lvFLRErYIAYF+OPcuEe56WnHQbmf0cEN6oIV2bWqstDHiT0JayBiZ1FAo7DJKjp5tH8lfFRJYpcZRBExfpglvdSluuwCm8jSo3RJ/lmRmKhunYl9zz8nK5STtiBri/hRNWWUteSxYqcINpv53ugFAXf6wCFO1CC9hvPOywztYOLmJ6VRAzvIg20Z2QQ61iInBadh5yP8g3ZwT94BuEZlfe5FkwcOnxGdE/k/dfMGyk1WaOiza8v7tdSyLkhfhk+v2VFTT48OxaFXR+kHPlKOe9FgRPujp0kQl5AGVxQinTSZt+dNKE/bSK9r2UhZPOCD5Pi26jQN/T+wOUYv7y8kcjCSCh1AteE6J8LE5oE546WFiOJ+45e5iNgctWOltAhBND10j57nr1H+fL9AHg0vG9UvTBFx2by6v0CFstKZUSub5Bf6fjy4Lw5Ni1Kn6R5APwWE+/jViKZlCwvNlwkKjvNIPj3+/OE9IRWKO7RPadn9lVkWKAgtxXWv28U3nZlXza/Rgoj/U2y2Q/Yd4wWyKkUKZU+zjRToU6OJfUf84exl3kppUFAXUrVw1taEjnD/enrLBd/3QtFKI0XbFvwHGVpeVLnmzgc1ZLQObdl9WLOPlwiGs4vNYAUK6ELjumXBeUMzGpa6VxnSZN/bk/FTU7BAHmhcx4C+6tHZFJtMzKvkBxMj+QtwDickELd7cfBBMNn/IVh8RB48SoTkj1+gZHEdcNmsblZPD3wB/TmTbzoYNycIpgqJ37q1U3fGrVGZfwFfdFMO9U4PFF5iJ4KOravmmsCz63YwbST/Nd52wFP6zQhMGijy6+QA6D/eX7ITOXZOPRKsunAcmSEpmT/3a7/BwiJGnmESQ6l9FTsRbaKJ/g3wmrmeiQaLlt7U/KLYvRTSDmSF2Hhlx2y3Y5YkeBHMo4TbwSgtTFWAPktZoU0Tudj28v0g9MkZ0ov/oNBE1Ur8PXPqkmYH6+/F3Mk1KRKoYcfjssgovDYXroVRyHVde37frx/vRL9DJl6T/d/wZ9rCu9R/9VhH+k2P6lWKwO37r8Fx4AVhDP/y7j/6ClSpl36TlRT/cPso7gs2e9UVopw2LG1Ev5rQz89bBgeMuQr3FMTWgaP+sOrvRxo/JDJLHduSEB3zEbwfv6VzheD+/rHCE2Yv9eBHcGA4e6NOJ2THgly8zkeBZrZZPTfDxE0uQvRL2S40ezi2URYV3dvxTVSbBGdeg4Lqt0eCIHqkmhiQT5/Tf1l2EZpxbnslynwxxgwqQ7+KzBrHC607D5STB6ZHnU6PKCpMjAxT5dcMXiqqRLyRO5O6eSaQg6lUJyL1TsRml2+lRDFl/xNtSEnld+ILdxmk9lXsRDK4XP8aDv394PcloTJR/b1Bh/Tbxy2VmsLW74qC3qP9KQHkxj2RSi+XzKDoEJuoYjFC0KqWHuiP8yO57NoBgkITqH5S398uQ712x+HX8dehb1czMCzCOyuXKVUA/pxTB85feUl+LChIrJoehr2u/jB9rC1UMytK86XH+YPtyXqJggIT6g0Yc4Xy61xxi4B6NeXO5NoymNvH2g7HaD1V6h2EsPBEWLWgvjA1fY7vbkO/KLT6jboMfUZcginzeaF281Rn+s0qh7e34u43PWjvdJ4TL8dpPzFP0Na9T6F3F3lzJIbDv+VEEJ53nMdx4HkKA9dgnGRogDkU5zLwC1VEyuSuOH3jIlNo11z5IfU+Lg1s2/JOkf27FYcFk+VOnLtdX8P81fwXBvL0mg3k01M3oStuo3GdQrBntfyPrYgpNx/enJbV9OHYtmqgIzRPINhkNHiycvh6UFgytOjNZzmePa4cDOmt/IDsN94f3IUXuzbNDVMWBcPRc3wzzwENPhKKGJfTk4XMi8cYcNNOY/OTpsKZ4rKawomRz5+/kg8RorisaQPunHEnrWvbotC9veYmQpG6tgU1Nulog7iv2jgUS51zzH9Tz9GX+jEJ5PqFpkrXGWnc/TFZb1o0LAzbl8ub+RQdijVdz46Dn1JySozCuuGqHOYrgo9AFFV7j77h7uE38CZGbuW5ccQCjMrKo48UHYo1bRN9Uao356O7FMPQxXOFiSgxX5Mm+o59LhP1UvdF8/qFYMdK6f8MkhWHYhE8J1fcwiGUEwhouXDqVlmyiRTnO3TiBUX1oB/QoN5V1e4nZ5fnlONGk2DBdew8+Iz6bcyLg50VRo79AtHvkmHNlsc0XhMzxttC18H/yByKI6I+wIWrYZjtAfp0rQz588nFa0rqZ2pa69GxEhQykK4DhRmXXU7xEWMDemI+LeVj/sx9DWDTEuadGdRbHlqPTUlvopNhSN/qNIwWqF2HntF5y6en/IGDeXxOXOB9/zDkGyPGVM8ZnhPcjtgMhdvCbTK0h4mbXIb4gESkHnxNe/pyD7QU+kp44aaeWwTpOvwZeAvmdvwKLVwoD8TEppG1AGcXLRjXDptDxQrqfh9TFnKiQfANubC3OlStJB06rJjrBqlikg86tzGEw6ejISxCaJPW/x/4XralfgST3e05wjfN4DGgY2hi4hdw5l5cYnTM8e1VwaZGxl/Ha3dEwhohxDizLwnxPF/lzoGJxDlANIkbUdTNGluOfD+k0CRuLFp4w4fkLxQifO80H8b6PcmquKnd8SH3lcqLCU25d763uFEFH4mi9Q/d3gJvydetjbgJCuVEdh9eZCtGgInn6o+JFWBgD82h2c17+ULwyxSoWF4PrrlYCGP/XXHzMyBGKqXH4xs9ybqkKVqKkXuRbltg5HiE1Dpq4IMTKV1CV2P77pG/5b42GC6LLycUNsjJnfKvmQVrXwp9yvRx5Ju/EE3CBsEILte/5RYT/+CPsOLvSJmwqVElP/cCt6J+EfQRGjuYFwQo25dvjoRNe6Nkwsaian6thA1izL1cRD4kKftsaMu3FOw0rsB/VeK+ZxYsOYG8F176PzupQjMakhULUmZ5FphEHYaLq4L7MWEo31Qq3teZwfOR3M9GMbRdLA+HGZTTI0JIY2Bnyec0yq1gxJBiNJFUV0xIkMdgqMLETS4Dv+Swe+Em/UU3d4IRTb99Qlk0KIKiR1wPWiZuuJpTThscxuR+4rSdGr4u7S0NZPNkRE0rfl78qn9wzoq29/yGLY07u7uGUuI/kUnDysnWf3F/DVom4Ca/zOldNYS5MgbDvMVkczYOj2Thw6ps2vMKNu9Vzo7buxPvW/TbjCCIT5AWRujAKsVfs3lHYozUEqPaVFm9TVr4zJvIO4Djst1/4039UmB2akzLn118qy7JaDl0bs8Oh2JV2vZ/Sp3jUOlzVKGMXNhqIi1N+n6YvpSPKKpjqyyiz+7h772I159gi4air31GP5cJvr/mfFvIfiaiuRmMHAv7GzCyBDa5GJXL9929+PFr2rCILm0PE2hpC4Ya4zJi6GlmOefMt6FjxlVbBx9qDlIk+OVHWLElkqwsig28C6cYy17c6KOEldFFMDFdh0F+EBElnf3W1qIglCrBf/HPW/VSKWQet79l/ytZBmdVMMR5gJCd98GjD9CsJ1Zip0EZB0++pezULYWmk6yAUXPI0XMx1JyTWeraykNsl28Ol0Uq4bqCQj/CgAm8XxUSG/dt1jMpRMvlsxfJ3LVRrgeF254iRPIpZlJWpXpzb5lPBIK1xxYpWCtXzFJupqtsIrcy/LkpQi37cVhECtwVEjOunqfexKctrRrLo7U0ZVjOSZze2xaCPPnSBQyGCPO5YTAy4NSlGBg/j3/ZaQKTFzp1UfajQEsPZsjVxIBuxcH5KJ9bA61KiuDf0qyhl8bcLliGwfsJ3/yhuiyimIVYCmwicTtqCaVLSjtWaktI+EdOQPHZlEX+nG4EvTrxAisjnxs8zol/hMDJS7wfiyoYsVeW28fnQR8pWaTfVVsSukhWfG5QrLbjzlFAsOZCl7iVFyqZgBV9bjCUXIxOU6VNE6xir57jCHPDNO3hC68UIvFUwQSUmKdJFW19bpBKDR8oNanZWxaAI1syri3FYOQUmOWGwciATq2Kwe0TllDLWt0HAh2q75+1UhM2CFpRDmyoDPr5lf9mxQ114MT2alRRXRP4Ave9YkPZaBVBB9cJQ8qAq4LfkxTYBLJ1mSk5e6tSvkxeCHCzlwkbFBiZ6RSpWD4frJ2vbGVQmkXQBZoMe3ica+abwILJ6pmtMenjo4u2MksU5mhCR9tvQdWyiBFsF/ebw6q50hYSFCePL9ukmwnY94qtpGUH1yklbBC0OmKT74zR8rIMimB5FClho8gvWjy1L+ytQWJQROWyMRg5Hma5YTAyQVLyZ9nXOgobFC6iJUET+BfDUGP0g0FxUthAHhoq/v3SWwdagDBxIoLZaXFeTL5XpQlvFdJktUBw/VggE0tl4Cbyc4JLT8jOK1Kv80OIeqt9k8/WZZWglUpW6ERuG3h82NxTUD+PTEwoPl4yOk9o1cAEhrgIvpjzC/liVB9R4nq0Wbc282BTHxZfxZw/OAeeHyxqKYVqtBSuH0UXXiNcNj93P2jKAaXKp7QvdF/gLuJ5wyr26YX7yo/lF+5YhN50wPnfC1Yzg4J51ELsGYycjHb/QgaDQaADc9HCOtThyyijFzaC82CGaFxGUdggOE1qHfhiEl9maAEStynOu1/IRJwROD8mEsRlMXGdqrBB0B8JX65adxJPDfH4cFuKVhLx+KSOURW0auA+4npEYYMorkNxPVLjVNFmHizvUIi7LnSOaNvaPxZxvTi/uKy2wgbBHCri8eJ5yyiPifxYhBEZgPPiurFjwoaR22CWGwbjJ2TBmjC4diceLh8wp5evIpFRKdCgK5/4zqqaPpzcmX4zBiP70CbPDYPB+PEwyw2D8ROCWXJDXqZQoj50JEXHXJs2fN0lUdi0bVaECRsGg8GQgIkbBuMnZP0CE8pQK4IRR3EJ8vAXHR2ATYsrCUMMBoPBUIQ1SzEYPzGYKA4LmWI4M+aAKV9GDwZ1LwEmRpmvNs7IOqcuxoCPXxL1z52gHuHFYDB+Dpi4YTAYOYYjZ6PhXVwaVDLOBy0aKEd0MXI2GEG4y5XP6D28b+arijNyFqxZisHIZvqOvAzvYjUnh2N8P/7aFglLN0RwIieGH8FQA7MWD5gQoJRdOSeAKRrw2mPHYDBxw2BkM9fdI7kH7X+jcCUj99G67xNwuxcPyzYzEcDIuTBxw2AwGLmI2yetoH5NA5gxWnOGbAbjvw4TNwxGBvg+iwG7Fq7Uud97RRllFdm+/ylNa+90DmLeqTdHJX9Mg18nXKN5xs26BacuBFO/Ik+evwP7lkdo/OWb4QrZaDOm/+grtBx2kVF8vSlFzl0Jo2m4/tueUUrrrtXmCAwYc0UY4qnb7hj8scKT+sVjf/yU+23pStsSmf3nPdl2Q18mCGPl7Dr0jKY173oKQl7GC2N53selcOfrLE1v1eM0RMdkX4VyRvpgosH966oIQwxGzoSJGwYjHaLfJUPrnmehorEB9OtRBXoMvQSjp98UpgI88ouBucs84WPqZ0hJSQOb5sqiBf0aqjc8BBeuvoSu7U3h/JVQ2LT7CUS9lb/Mk5I/cS/4M1C0SF4Y1KcaJzaugtMoZcGhiYFjr8LVWxG0XJVKRaBm66Nw7nKoMBVg9+HnMHTidbCsUQwKFdKF7kMuQqcB54WpAFFvkiEmVrle02tuXFx8KvWjkybua5teZ2ned+958YbiZ+eBZ9C9UyVo2aQC1Gt/HP7eIy+guX7HY5i15B50cqgIAUFxUL/9CSVRVaPRYU44xcLA3lXBzz8WrJq5ZkrQfSuzloVC0x6PoVaHhzBs2gv450asMEWZETMCYet+XgjO/SsMWvT2hXqdH8G0JSEa9/Pz5y+UfBGrx9d3fAT7j/NZpBeufUnrU2TE9BeUEBD5a2sEdB7yFKxb+8DoWYHwIlR+bwRy/VgEFaeNnBkID/34quGKTFkUrLZ+kcXr1be9yfkVN+4FeD6UC9KLN9/TfF6+iZCU9Bna9HsCNm18wJsbzgy4jnW7Iqnf5XQ0NOz6iPZ99oowyfM2fl4QLYMV1bH6fc32D6Fx98fCVB5cbsGal9CBOw/27bjr9vsLSPyQfrkQ3BQWvMVrjdej/3h/tYr+imD5jdkrQum6NevpC7OWh2q8zjh+6YZwuh9suHX/vjgEQiOYj93PBouWYjDSoXLdA3Bgc0uoZcsXxty0yxcWrfaCyEcDaLiclTPMm1IThvWvTunuwyISoG7b4/DgUjcoU6oA9B5xEW7eiYJ7/3SF8mUK0oPR2H4fVaXGdeBwrTZHYfo4W+jGiR9cx+ETL2Di3NuybWgiPDIRajscg4iH/Wk5BIUUCqrnt/twD+xP3P4fBPczjmBiVIi2delGOAwad0227gq2e8GKEz5n97ejYcSk5n5wbFsRVi9sAN6P30J7p/MQct8JdHX5OlqePm+g84ALEObdD3SEWgyDxl2FS9fDIYJbLzpTWzRxAf87faBgAV3abssep2FQr6rQv0dVSOWEYEVuG+J+4/Ry1nvhkksHMK9mSOv7VupxL6eoN5/AoWkR2LxEngcoFKuX93rCbUsYocDhTVWgto2BMMSDyRJrWhWA+4/ULWEmRnpw9ZCFMMQT/iqFeyn7qq2/qmk+qln1IuSjUkZjXD/WJWtYy4ATFnHCWDlPr9nCuLlBcMlNfVrvjsVg6Qx5wU984b97nyaZMRkrnz8NSFaa1n+CP9y6lwBr/qgInVsXo3E7Dr2GRevCYdqosrBsEy9OkLXzTaBTK+2vCR5XHduC8PrtJwgJVy9yenF/DahsIk9jYNHCGz4kf4EuDkXh+AW50BT3F+8N0wZe1K/KsL4lYeYYeTg+1jezbOVD/fnz/QLJH9Uv9nUXczAun08Y4omN+wR2bR8JQ3Kw6jtWoVcsJ/I8MAnaDngqeR+1blwYtvwpXTCV8e/DLDcMhgawWeVDUhqYmRSG2Pcp1PXpUlmYChAXnwL4jBs+oIZMXBiVU35JorDp0s6EhA2C8zWuW4b6kQePoiEyKglaNCwP7+NSaRutm1agOkuRr9VfrIqUKJaf6hHNXOwB8Qmp9CJ4eqs3CRtk6Tpvbnv4Mi5Ew7htXLd5taKwxVluZdGGvHnldbT6/naZfkVhg+xY3RTcTjtS//jZ7tz8/yOrDx4PHpfr9tZkyUFQJCErNvpQHh9cL4qtrAobTaCFomlPXtigaMAXJ3bPr9tyxwDQa5S/pIUChc26BSYQ5G5H8wfesoPSJXUhOCwFdru+FubiadSNFzatGxWWzY/rj+FEBwobKbBI6F2vRNn82I1w4kV09WbeVH7j6mFz2bT1C01o2qHTMXStvwcobFBwBdy0o/3q0KKoMEV7PLwTSWA/444f9xvXgz4+SGsnP/pVBYXNzpWVaN4ANzsaF/3uE1RqyAubG67msvOE1wGTWG478Aaa9FC28ohUKKsHT67YyLaPVf0R/j6Qn7uot6kkbLC6++NL/PzY3TlpSdFXVZp4UUFXEYf+vLA5vq2qbF6P05ZUcw1FKn60MH4OmLhhMDQQF8d/eZo3PqzUiYS81M5kX9xQ+UtRkYREvvlHdRtUIZsTVumhp5cH3M86wh4Xf6jW4BBZP1xOBdLDF3n4JJr7glUu1Ik0b1AO7vtoV3hTChR8gs6RkYcTOqbGvIh6FhALqalflI7HorELpAnNAihm+veoAmu2PgYju31g28IVjpyRblbJDs5cjgXjcnqU8RmLkIqgANu2nLfuYPSQKvjC6tjSUCbq8At+/QJT6j99ia8vhbyJ+US/WEBzyzIz2fy4/jsnrJS2qYrbMQvZ/Mi0UeVJcCGYpdqkgvzead/ckKw9CFZg/x4YFskDe9dW4cQDX6RT0WqhLbiP11wsZEVEcT3o4yMeJlq5VEHrWbP6RWhescjnqJn8vbxiljH30ZBPdp5wn24e4cVKWAT//1Hln33mVOQWweXKlMwLBgX4/UGrkkj3Ec/p99YxSyr+KlK6RF7Q5c4BVtM/fZm/1oqh89Y1Cgh9ACWL5YVRA/i8Out3v6Jfxo9H87+OwcjlFNDXpV+0Kqh2iJmJspVGE2/TcZbFZhtEahtoMcoItBQpLvPHck8wq7ufptlblYCPKeoC6fSlUGhQ+9uTnBUz1JMJKCnKly3IvejzKO2X2Iksm1NXNu72mS4wbqY7uHt8nxfD/MlGcN3Vgl64CL6kUGhhl48TiEjiB/nXuYhUJW07C/6l9vSF/Jqu3sqHVLtsVnfSRZEgvlSlwGrgiuCLGCuUIw5Nla0m+G4vVzov9X8vC0FfxxJC37eDIkFKFB3fVo1+D56Mpl9FFJuqRDyFJsHu7YvTryIoVprU4f9/6JekDX/ONKbfOSvD6BeJiOLFkaKwEenenm+ym7WMn1/xmP7cGC708UwaVo6sOBOHlhXGMH40TNwwGBro3YVvPxeda0VEwaCfnxcm2Pwiouq0WM2sCJy5GKr01ResEFlUxZQXMDEqSf8+fJB/XWpi58GnUNF+nzDEgxaR5GQ+x07jemW47Sp/cWJ/SFgCDOhVlYZRhODxKZrqP6Wln6Nn1gS5P4TImUshUNbKmfpxu8kfPytNR8T9+HX8NRJhIvnz60DTBmXh+h25r0d2g/vyNCCJnGSxqaNyI77rM8ZfmCNzpCloxvhE/nwVLaxuJWPIKaDPv26yy/nWzpJv6v2QpC5MpagpzO/ly4smxfsTm7dUO9E6h81TIh1a8oJz64E3UL2ZF/k0paR8UbvXGT8eJm4YDA0YFMwLXdubkJPujduR9ABDh2LTWgdoOn5lD3WqRs0u56+EkaOtTQsXmiayc20zshA07HgCEpM+wYnzwRAcKhc3hQvpwbhhlmDZxAUuXn9J29i8+wlUrneQWy79h3a7FsbUfIVRSlh3Cv1uNu70hVIl+K/g5g3LQ0UjA2jR/TSEhieQczA6L/+P+9f/TzDxt29pDEGh8bBmyyMI4+ZZuvYBCaL06NmpEhgW0SPfmpSUz7Td4ZNvggm3LWTCcCsSTY4DL3BCKh5CODHXqf95CoNH1i9tCFv3PYU9Ls/peFEYYeJDp65yf6bsZuDEAO5F9BTiEj5DPbuCMKBbCfJv6fgNPiWqKDZLMTSjL5yf9KKWMoNwC2sNWtEQqe1j85ZqlyghmrBZ8tDGKmBjXoD7yEHBnAzVmnmT0/P5a9KRd4wfA/s3MhjpsGFpI7h6tCMcOB4Av/1+k0SEYvPKgmm1KVrqxIVgOHwiEHyu9IDRg80hn+DrUrEC32zUroURTJ53G54Hvocm9eUOxcj0sbZw82RnOHY2mLbx8WMaRRKhGfzUhRCNXemS+rTusIhEGDXtJkxdcAfu/dMNvLl9EMEmn9/HWMOStV6wxdkPnNc3h3Af+f5jRNSt047wjNuvxdw8jeuWhV6OlcDGgm8KKFJYDzq24c35Irhfvjd7kXAaN/sWbTfYsy+4c9tCUPQF3nPi1mMGS9d7w9J1XjBnkh2dSwSb+8J9+oPP42g63nOXwrj5+3Lr4312spt+4/3B7V4CFDfUoaaDAxuqUlPV9NEVOEGV9WaYioJfjLYWhNxKTCxv7sLir9nBm2heVEo1H0qBxWeRQgZyXxwR0TlYU6dIHVsDamITpy2faUz+WaNmBYF/EL8Nxo+HhYIzGN8R/HfhX0yxvb5izX3kcKsokqTAvCkVbJWbnRTJaPnciFQoeFWKePkKy2cZQw8V/w0P7wToPdofhvUpBTPHyjP2YkgzhgI/u85H7ohg0xo2a6Gzqf9NftrGPa9g5ZZIGDOoFEwerp71t3aHh/D2nXKoNq4fUX1xIumFdrd2egIBwR8pEkh0mM3OUPAxg0pzx1COxn0LeFwli+uCxykrYYycJRvCYduB1zB9VDkY0Y/3+RJDwb3OW6s166V3jvA/VbmxFzn8+vxjDYUNdJRCwaWWWboxHLbufw0ndlQD6+q871R621Al4QP30fEqlY7PsAjfJC3i4RMPvUcFQPsWRWDDQnkKAsaPg1luGIzvyN0HUVDeZi/UbXsMRk93o+YZFDb3L3YT5tAMRiChgNHUMbSjTEn+RTRnhdyRFHkfn0bCBvlKQf3fxuiBvCVuw+7XcPu+ctTV+l2RJGy+J2bGvCVkw25lnyUUAChs/m3QovLoqXIag5secSRskOFO2jmzH9zIN1OqJvVDug5/RsImr+4vJGxU2XogSuiTg8IGsaiiT79IW04EI71H8VFTimAzE/pohUXw0V3v4z5TjpuGXX2V/NiQR368xaZ4UWXRw/hxMHHDYHxH6tUsDUGefcGiuiGVPsB2f2ySKVtaHkrK+L6MH8KLD3QMHTQpAK64v+deUn5g6/CQxiPPFKKfvgVRQDmNC4CzV9/RNjCD7apt3z80eP1CPjz9r62vYPrSENr2mh0RshwxP4LOQ55RRmUUe1dvx8HAiS9oPDYJaesrU9e2EHRqVRReRqZC5UYP4MQ/MXDrXjzMXx0GPk94MXFsG+8YrwpWBsfMxHguTl6MoXw1SMliOtxHg3wHNi42hRKGOuDhk8idrwdw2e093PKMh4Mn31IzE/povY3hAwowdw76qyV//ELWwBt348CdO75fpwTAEqES+byJRvTL+PEwccNgfGfy6enA9lVNyRfm2C4HpSYqxveni0Nx6OvIN0fduBsPQ6cGysQM5ldB7npnrsyAKhf3m0NBIRpozOxg2kbU20/QpG4h7mv++0ZRlSimC4N78L5Dh0/H0LbX7sDSEZy4tuMjhP5NUCxY19CHC9ffk9gbMoUXNpg1+Oohc+rXlrXzMWs3AAbwTZwfAv0nBMBuVz5H0761lcG8ivRHAjYPvY//TOdiwh8h8OnTV/KLcTvK58cRQb8bt2P8OHSkHzYtEPqPD4CZQvi36+YqYG8lT/lwYjsfzo77M2jSC+jHHd+127y1rln9QloLN8b3h/ncMBiMXMOntC+UIwajub4XGAaP1gHMMo1YtfaBhMTPWvl1ZBXKpss90TGBYHbw7AVfbiAj6tsXhP3rq6r53OD+YHRSdpxvXA8mL0RfKEVn4PQQrzcmUtRmGcyYTc1dWmwjO4+Nkf0wyw2Dwcg16Or877u8jDDrrvidiOsXhQ3WtEJhI1p1vje43ewSNogeJwqqmOTLsDMqJx0BhfuTXecbBaO2IkVEvN7aLqPDzY/HrM382XlsjOyHWW4YDAYji6DFAt+HA7uXoGgj7F+07iUcOhVD08WInpxOetFSDMa/CbPcMJSIjPoAMe+ylkEUq1Fv3OULW/f6yb5mtQW3n5SsOTtvcnIazcNg/EwM6V2SfFzQHwTDkS1a+siETYOaBrlC2DAYPxNM3DCUqNn6KIycdlMYyjxYR6ly3YOweLUX/LHiviybr7bg9k9eCBGG1LlwLYzmyQ2Ut3EGb1/1Ojy5gQmz3aGp40lh6Odn9rgKVK26X9fiUKq4LhQplAdqWxeA+2etYO/a75d5+WfDuro+mFdRrxPFYPzbMHHDyFasm7nCrdOdZblYgu87CVMYmQULZ5bLYSHjl26Ey2pQpUeLxuWgrn0pYei/AUbBLZxiDHdPWYH3BRs4vLkaFCuqmykfkf86J3ZUh50rc4+YY/y8MHHDyHZKlZAnyWJ8O9ePd4aSxXPnV3DH1hXhzzl1hSEGg8HIHMyhmKEEflVbmxeDh094fwHEsroh/HO4gzCkGdUvcrTcWDV1geh3H5Uy6qrOt2ZhfejZma/AjdP+ml8P+nThv/5u3I6APr9doX6kZ2dTcDkZlGGGXrytK9juhcNbWkGPYZeEscB9SevB4xu9hCGABX/dh7/3+AlDAA7NK8CO1U1lX9tG3DrWLm5I2YVFrGoUgwuH2gtDmsGwUiM75fIJQ/pWg4XTa1N/m95noGxJfdi1rjkNY8HMhaseyI4Nz8XCabVgiFN1Gh4/6xa4ng6ifqRTG2P4e0UTKto5ZOJ12PZXE2jfiq8D9eTZO2jV8wzcOecIF6+Fw7wV9ym6g0KFBS66dIB2fc5SYU+Ru+e6gFF5Pq9HOWtnmDzSGlZukie7q2tfkupNXbj6UhgD0KGVEWz9qyn1Y+bWHkMvwp37fDZY5PS+tmBvVULtutevVQoOcdcHz5HiPYfH37jTCXgREi87F/e8XoPjoH+oXwStgnp5WbQKg8GQAMUNgyFSxnIPdWHhCV9TUz9/DQ6Lp+E1Wx4Kc2gmJSWN5n33/iP1I5ZNDtM45Av35lux0ftr3bZHv76NSfqakJj61aH3Gdl0BPsPHPOn/nexyV/LWu35uuOA39ek5E9f38d9/Fre2llpfk3gtspZ7/lawcb5q39gLB3LotX3aVmchuB6cXj+Sk8aF/XmAw0Pm3SNpiO4fAVb56+h4fFfP336/HXQuKtabR9p1/fMV/tWrtxxptD6+426pLRs4odUGn4R/J7WXZbrr9n6iDCVPxfb9/lRf3BYHA2/eZtE6wqPTKDhY2cDaRj7zRsfonmRZl1O0jhc71bnJ9R/x/MVnce4+BQa5sTL1x37n379yF2r+AR+XK028u3jubfg1vkmOulrLHdNO/Y/R/M07nyczlUsdz2ad+O3I+I48DwN+z6L+fr585evx88FfjW220v3A3bnroTSdOxP5fYN9w+HxWVCuPsNadTxuGy9eHx4LZtyx/Q2Jvnrh6RP3HW48rVRp+M0ncFgMFRhzVIMNewsi0OFcgVBl/vSx6rWxQ3zwbINfEG69MgrfEXzuTbUv6g/ffoCq/5+BLfPduXWmR8KFtCFU85tKWz2M6YHVWHBXw8oAuXXPtUhfz4dKFxID1YvrC9M1Y4bJzpDZdMidCwzx9vRtkRLxeylnlC1UmGYO7kmWWqwOa19SyM4ezmM29fPNA9y52wXMCpnQDkwdq1tJozNGMe2JnDuQHvuOPPS+vdubClM4cHq2Oin0XnABeg36grk0fmFrClSoEUHKVE8P62rXJmC0LerGbyMTKRhqxqG8C6Wr4GDBIbEc9uvSPssUrdmaTqPhQzyQsfWRmRl+bVvNbJ+GBTMC3249b16rVzV+DZ37CWK5SdrDV4r5NqxznSuinDXY7tgsRHx8HpDFcDNqxrSsTm2NSVrkYfXa7ondPLw+4P9mINEBO85XMaYu9+kwNvjypGOdC/q59eBHWuawYvgeOAEsjAHg8FgyGHihqGGvr5y2Oryudnj++Af9J5+sbkDmyiwM7bfRwLG9+k7mqbIP9deci9e5VtUsS6MNpgYFxL6eHD5LwrNMPOm1hT6eOb/Xov25/DJQGEM0Iv9WxjqVJ0Tcw9lx6raLIOEefUjwXXz7isI9nSCohq2tWN1MxKauI7mXU/BkTOBsPKP+jBuKJ9PxGV7a/rFSuLYYWbWDUsb0jgprM2Vq2MjhkX01AoCKgoQEcXyEYUK5RX6+G0jC1d5qR3zrCX36FcTBQpoDpUOC0+gfVPc7v+4k4ZNVijKciP1Wy2G5WvPC0MMBkMVJm4YGaKjmz23SVIyXx25WcOyah3WX1IFX7NYGft7ovryFl+g2eGJtmDlfdjr6g9Hd7SGSy4dyPKgCgqbfPl0aLuin48m3M84wuIZtSGUe9mPm+kOdi1dIVWwMBXiXvLW5obgejoQQl4mcOczD7fOf/fvLeqipg3Ury8WDv1WUDOh5Y0hJzwiFiJf8R8LDAZDHfbEYGTI7/PvCn1Zo2qlovS7f1NLta6qWRGapkhl00IyQfS9OHE+WOjjOXA0gH47tuEdc7+Vr5w62rrvKVlm6tUqDebVDKF6Ff74FalS7yBEvPoANhbFqD9NsH6oMvvPe7Biow8M7lMNAu85kdUi6k0yLSNyfJcDzFjkAY6DLsAlV3Uh9b0RhWL3DqZq13fTssY07VtAi9Xrt+pVu4dNug6x7+VNcbmJML+VsObPPsIQg8FQhYkbhhq3PKJkTQxoGYh6k0QvrKxSyECXfFx6DP1H9hJP/JAKtR2OqjWHIJuXNaHfwJA4+kVmLPYQ+rKOVXVD2H/0Bfg955vEUJCs3PwQanAiBP1Jsgr6uxw5w0c34bpb9zpD/SIpKZ/hQ1IaHNvVGk7scSAhN3jcNWGqMs8CYmHN1sfCkNyyhL4qImgBSkn9AjHvUsDUWNp35XuD13jMjFt0z4iUt3Ym3yBERyd965QUokFr1lIPOo/IyQvBcP12JBQtkrnrVKbKRDA0HktdKbMJkJTEiyO8/3BcsYpjoYTpeKhmPxOSk3l/nlPnvIVp42TLzl18HNb9fVk23LTdMqV7eNXGf2TTsEtN5UW6icXvULf5IhpX0WIqjfttwh4aFvdtyUrl+0SK8tUnw+IV/HxjpuyTbae4yTgax2Dkdpi4YaiBjqi1HY6Rv0RF+/2wbkkDrtPsv6Et2Oxy7XhnqppsbLeP1l+n7XFYNL22kj+FSLkyBSDkvhM07XKK5sVlMHQ4u7hwuAPcPNUZ+o2+QusvZ70X9m1qDpdcMw57zwg81kCPvjCTE2O47vI2e2H94gY0DZ1g8UVoWns/nNnXFuralyZH23sXusIVtwglYSByZEcb2L2uGa2L31dn+H2MDRzd2UaYgwfz4hQpzDsw/wie3uoNy+bUgUadTwjH7UxO0hXKFqTpTeuXhVZNytO07kOUQ7s1gceCFjAML8drhMuu3fYY/O9kznLRufc62Lt1GLwLXQ8xIetg0ZwuYGTOC4xh43ZD2JMV3Pj18DZoLeTPrwvVa8+maSLRwWtpWfdLM2HD1qvwhRNaOIzdoyfhcOSEJ83X2vEv2Lz9mmzam8A1UNHyd5qGBIW+5da1DkJ8V5BYCwmLof155b8aXr9YDSvXa3deVMF14HoZDAb33OD+XOqfzAyGBDsPPqUII02IOUn+LfAlp4l/Y1/a9jmrlA9IkX/7XIgY2e2Fvl0rw5+zWQI8VUpXnkACQhR+n9I+w917gdCofhUaxkchis4vX75Az0F/g4dnEET6ryLLzaCRO0moIFGv46AGJ3zCn64EfX3ecoRWk6njHWDGpPbUf3j3b9CqmTlNw/Wi1QeXR8uNgUE+eHRnAU0TwXnImsn9ljKbKNuWJtByM/LXZjBragey3Bxw9chwGQYjN8HEDYORg0DB98KjL4VLM+SgaMEmG00CIC4+GUwsf4fy5YpC2dJF4HlAFKSkpKUrbiKe/QX58/PRWqriRgpN4qZO80XwIvA1WFqUh/z58oLH/SAmbhiMLMKapRiMHACKGuwObWnJhI0E2OxZsIByqDtaaCJexZLVpJL1NGrWeXR7AVw4NgnsbLLmUL5jw2ASG4qdFPGcqKpcqSREc9u+fnYanD86UZjCYDCyAhM3DEYOYMvKxnByjwM0rldWGMNQpXmT6nDijJcwxAkQZzewbfgH9aPoUUrceE+e5yiz1LY3gZET5U2mKJ5OnpVvV5G0z5/hZbg8x5PbbX+hj8FgZAUmbhiMHAAWmqxlW1IYYkixe/MQ2LD1CjUbYffPFV94E7iWfHBe+q2E0pXlkVQjhzQjn5xvAS0/82c6ytaF/jb1avO101QxLFoQfvnfL7JIrCfPIqFgQT1I/JA7Q9wZjOyC+dwwGIxcBYZ4YzOVnp6uMIYHxQw2ExUtUkAyei+zJH9M5bb1CYoU1s9wfYmJHyn6qpCBvAo8ih0p7l6ZBVXMSgtDDAZDCiZuGAwGg8Fg5ChYsxSDwWAwGIwcBRM3DEYuZfConRCfwJc1EJtksgPMxvvI9yX1Y0RSh55rqD87eBudIMuezWAwGJpg4obByKVglI4YGh0c8hZOnfem/oxA59eIyFhhSJ1n/q+g56DNwhCuO1royzy4rQc+IcIQwOYd1+BNdLwwxGAwGNIwccNgMMhBtV+v+sJQ+mTkpmdlUQGe3V8iDGUN1W3NndYJypRSL7LKYDAYijBxw2DkEvxfRFE2XCxDsGmHcoFOT69g2O58k/pRULjfDYC6LRaBsflU6NZvA41PSk6Fpu2XUT9aZgKD31CzU/MOy+HkOW8ws5lOhSjPX3okm0/ktkcAlKs6Cazrz6N5RXDZS9eeCEMAQcFvYf6fpyAlNU22jpET98JlYZ6xU/dDeIS80OmzgFfQoNUS2s9OvdcpiSFcPjomAewa/UFFKRX3CefDsHDLenOheq1ZMHWOizCFwWDkBJi4YTByAfgyr9tiMezfPhyiAtZAu1aW4PUwVJjKhyJjWQFk1KS90LHXOrj1zwwI8V0OdWqaQr9h20A/f17Koou47B4JlUxKAkoJLBoZEPgaAryXUq2ld7Ef4JFvOM2HvOLW+z4uGSKer4KrZ6bCb+OdaXsILhv7Xl4oFMOnw17GgF5eHdm2Nq/uDy2FOk0oqFD4IC06roDGDn/CzQvTIfTJCpgxuR1Y1JkjEzi4D3gcXm5/QCS37a9fvsLl6340rar9TDh+xgse31kAfvcW0TYPuN6laQwG478PEzcMRi7gzIWH0KJJdTAz5RP9VTQqDnbW0iUGwoSMuZjcDrvfJ7SDfduG0ThNTBnrQPNKUaZUYWjX2or6ixkWhFHDmsGBI1kXEj6PX8L2DYMhTx7+MVavlhkJqVBOqIigmENw3/r3rkeWHATrRmE5BgSnHebEWt8erNgog5FTYOKGwcgFhIRFQ7s2vMDIiDMu48F5y1CwazSfEslVtp2u1NyTVYYObAwBL94IQ1mjRePqQp+c6JhEoU8ZsYI3ghYpWysjMKoxBYpVHAstO60QpjAYjJwAEzcMRi5ARycP+bNoA1oyOjhYw8Pb8+HBzblgbVEBxkzZL0zNOmFhMZS1NzuIff9B6JNTQJ+v1J0eeIx/zHCEML+VcP7oJAiPjFWqO8VgMP7bMHHDYOQCHDvYKjnuIokfeL8XVYwtpsKCZaeo38S4BDXt3PcOpuFv4UNSilJumnlLT4KleXnq/x8nMnC6COax0RZd3Tyw3dlNGJJTulRhoU8zaJES/W+w0OWGlf3gdhaKZTIYjJ8LJm4YjFwAhk+/f59EL3WMLCptNkFJVCji7TYP/t5xDcpXmwwmlr9D2aqT4NyRicJU3upRq9lCrStYGxoWpG1iV7LSeErw16mdDU1bPK8rTJ55mKaVqzYJ5iw+QeNFDArmA4euq+HgEQ9hjJxQ3xXgfOg2HQvuJx5b4MM/qTZURrg6j4Teg/8GI/MptO2eAzfDkrldhakMBuO/DqstxWDkEvCvfvTUA0hI+AgD+tSDKzeeQZOGVSkyKeJVLES9jgd7G97JGEO897vchbS0L+SbYsN1IhhVdf7SY2jTwhzKlC4Cew64wyCnhsJUoMipW3cCYHC/hrTNC5cfg0NLS9i93x3y5PmFHHexmUwEw9B9/SKgkkkJqGVvAh6eQdC0UTWahkUuDx29Bw3qmlEunnMXH0HDupWhUCG+wCSu//BxT0hOSoX6dcygamV5Qcld+25Bt872smKUuF8ozESn6pSUT3DAlRdNbVtZQGmWP4fByDEwccNgMBgMBiNHwZqlGAwGg8Fg5CiYuGEwGAwGg5GjYOKGwWAwGAxGjoKJGwaDwWAwGAwGg8FgMBiMnxOA/wMeznKGTNuywwAAAABJRU5ErkJggg==;" vertex="1" parent="82">
                    <mxGeometry y="40" width="282.48" height="140" as="geometry"/>
                </mxCell>
            </root>
        </mxGraphModel>
    </diagram>
</mxfile>